G04*
G04 #@! TF.GenerationSoftware,Altium Limited,Altium Designer,25.8.1 (18)*
G04*
G04 Layer_Color=16711935*
%FSLAX44Y44*%
%MOMM*%
G71*
G04*
G04 #@! TF.SameCoordinates,16AD229D-0A12-456A-95A7-24712EE817D5*
G04*
G04*
G04 #@! TF.FilePolarity,Positive*
G04*
G01*
G75*
%ADD10C,0.1000*%
%ADD16C,0.2000*%
G36*
X369448Y398024D02*
X369513D01*
X369688Y398006D01*
X369882Y397978D01*
X370086Y397932D01*
X370308Y397877D01*
X370511Y397803D01*
X370520D01*
X370539Y397793D01*
X370567Y397775D01*
X370604Y397756D01*
X370696Y397710D01*
X370816Y397627D01*
X370955Y397534D01*
X371094Y397414D01*
X371223Y397276D01*
X371343Y397118D01*
Y397109D01*
X371352Y397100D01*
X371371Y397072D01*
X371389Y397044D01*
X371436Y396952D01*
X371491Y396832D01*
X371556Y396684D01*
X371602Y396508D01*
X371648Y396323D01*
X371667Y396120D01*
X370853Y396055D01*
Y396064D01*
Y396083D01*
X370844Y396111D01*
X370835Y396157D01*
X370807Y396259D01*
X370770Y396397D01*
X370714Y396545D01*
X370631Y396693D01*
X370530Y396832D01*
X370400Y396961D01*
X370382Y396970D01*
X370335Y397007D01*
X370243Y397063D01*
X370123Y397118D01*
X369966Y397174D01*
X369781Y397229D01*
X369550Y397266D01*
X369291Y397276D01*
X369161D01*
X369106Y397266D01*
X369032Y397257D01*
X368865Y397239D01*
X368680Y397202D01*
X368496Y397155D01*
X368320Y397081D01*
X368246Y397035D01*
X368172Y396989D01*
X368153Y396980D01*
X368116Y396943D01*
X368061Y396878D01*
X368005Y396804D01*
X367941Y396702D01*
X367885Y396591D01*
X367848Y396462D01*
X367830Y396314D01*
Y396296D01*
Y396259D01*
X367839Y396194D01*
X367858Y396120D01*
X367885Y396027D01*
X367932Y395935D01*
X367987Y395843D01*
X368070Y395750D01*
X368079Y395741D01*
X368126Y395713D01*
X368163Y395685D01*
X368200Y395667D01*
X368255Y395639D01*
X368320Y395602D01*
X368403Y395574D01*
X368496Y395537D01*
X368597Y395500D01*
X368717Y395454D01*
X368847Y395417D01*
X368995Y395371D01*
X369161Y395334D01*
X369346Y395288D01*
X369355D01*
X369392Y395279D01*
X369448Y395269D01*
X369513Y395251D01*
X369596Y395232D01*
X369697Y395205D01*
X369799Y395177D01*
X369910Y395149D01*
X370150Y395084D01*
X370382Y395020D01*
X370493Y394983D01*
X370594Y394946D01*
X370687Y394918D01*
X370761Y394881D01*
X370770D01*
X370788Y394872D01*
X370816Y394853D01*
X370853Y394835D01*
X370955Y394779D01*
X371075Y394705D01*
X371214Y394604D01*
X371352Y394493D01*
X371482Y394363D01*
X371593Y394225D01*
X371602Y394206D01*
X371639Y394160D01*
X371676Y394077D01*
X371731Y393966D01*
X371778Y393836D01*
X371824Y393679D01*
X371852Y393503D01*
X371861Y393318D01*
Y393309D01*
Y393300D01*
Y393272D01*
Y393235D01*
X371842Y393134D01*
X371824Y393004D01*
X371787Y392856D01*
X371741Y392699D01*
X371667Y392533D01*
X371565Y392357D01*
Y392348D01*
X371556Y392338D01*
X371510Y392283D01*
X371445Y392200D01*
X371352Y392107D01*
X371232Y391996D01*
X371084Y391876D01*
X370918Y391765D01*
X370724Y391664D01*
X370714D01*
X370696Y391654D01*
X370668Y391645D01*
X370631Y391627D01*
X370576Y391608D01*
X370511Y391580D01*
X370363Y391543D01*
X370187Y391497D01*
X369975Y391451D01*
X369744Y391423D01*
X369494Y391414D01*
X369346D01*
X369272Y391423D01*
X369189D01*
X369096Y391432D01*
X368986Y391442D01*
X368754Y391479D01*
X368514Y391516D01*
X368274Y391580D01*
X368042Y391664D01*
X368033D01*
X368015Y391673D01*
X367987Y391691D01*
X367950Y391710D01*
X367839Y391765D01*
X367710Y391848D01*
X367562Y391959D01*
X367405Y392089D01*
X367257Y392246D01*
X367118Y392422D01*
Y392431D01*
X367099Y392449D01*
X367090Y392477D01*
X367062Y392514D01*
X367044Y392560D01*
X367016Y392616D01*
X366951Y392755D01*
X366887Y392930D01*
X366831Y393124D01*
X366794Y393346D01*
X366776Y393577D01*
X367571Y393651D01*
Y393642D01*
Y393633D01*
X367580Y393605D01*
Y393568D01*
X367599Y393485D01*
X367626Y393365D01*
X367663Y393245D01*
X367700Y393106D01*
X367765Y392976D01*
X367830Y392856D01*
X367839Y392847D01*
X367867Y392810D01*
X367913Y392745D01*
X367987Y392681D01*
X368079Y392597D01*
X368181Y392514D01*
X368320Y392431D01*
X368468Y392357D01*
X368477D01*
X368486Y392348D01*
X368514Y392338D01*
X368542Y392329D01*
X368634Y392301D01*
X368754Y392265D01*
X368902Y392228D01*
X369069Y392200D01*
X369254Y392181D01*
X369457Y392172D01*
X369540D01*
X369633Y392181D01*
X369744Y392191D01*
X369873Y392209D01*
X370021Y392228D01*
X370169Y392265D01*
X370308Y392311D01*
X370326Y392320D01*
X370372Y392338D01*
X370437Y392375D01*
X370520Y392412D01*
X370604Y392477D01*
X370696Y392542D01*
X370788Y392616D01*
X370862Y392708D01*
X370872Y392718D01*
X370890Y392755D01*
X370918Y392801D01*
X370955Y392875D01*
X370992Y392949D01*
X371020Y393041D01*
X371038Y393143D01*
X371047Y393254D01*
Y393263D01*
Y393309D01*
X371038Y393365D01*
X371029Y393439D01*
X371001Y393513D01*
X370973Y393605D01*
X370927Y393698D01*
X370862Y393781D01*
X370853Y393790D01*
X370825Y393818D01*
X370788Y393855D01*
X370724Y393910D01*
X370650Y393966D01*
X370548Y394030D01*
X370428Y394095D01*
X370289Y394151D01*
X370280Y394160D01*
X370234Y394169D01*
X370160Y394197D01*
X370113Y394206D01*
X370049Y394225D01*
X369984Y394252D01*
X369901Y394271D01*
X369808Y394299D01*
X369697Y394326D01*
X369586Y394354D01*
X369457Y394391D01*
X369309Y394428D01*
X369152Y394465D01*
X369143D01*
X369115Y394474D01*
X369069Y394483D01*
X369013Y394502D01*
X368939Y394520D01*
X368856Y394539D01*
X368671Y394594D01*
X368468Y394659D01*
X368255Y394724D01*
X368070Y394789D01*
X367987Y394826D01*
X367913Y394863D01*
X367904D01*
X367895Y394872D01*
X367839Y394909D01*
X367756Y394955D01*
X367663Y395029D01*
X367552Y395112D01*
X367442Y395214D01*
X367331Y395334D01*
X367238Y395463D01*
X367229Y395482D01*
X367201Y395528D01*
X367164Y395602D01*
X367127Y395695D01*
X367090Y395815D01*
X367053Y395953D01*
X367025Y396101D01*
X367016Y396259D01*
Y396268D01*
Y396277D01*
Y396305D01*
Y396342D01*
X367035Y396434D01*
X367053Y396554D01*
X367081Y396693D01*
X367127Y396850D01*
X367192Y397007D01*
X367284Y397165D01*
Y397174D01*
X367294Y397183D01*
X367340Y397239D01*
X367405Y397313D01*
X367488Y397405D01*
X367599Y397507D01*
X367737Y397618D01*
X367904Y397719D01*
X368089Y397812D01*
X368098D01*
X368116Y397821D01*
X368144Y397830D01*
X368181Y397849D01*
X368227Y397867D01*
X368292Y397886D01*
X368431Y397923D01*
X368606Y397960D01*
X368810Y397997D01*
X369023Y398024D01*
X369263Y398034D01*
X369383D01*
X369448Y398024D01*
D02*
G37*
G36*
X378915Y391525D02*
X378083D01*
X376743Y396397D01*
Y396407D01*
X376733Y396425D01*
X376724Y396453D01*
X376715Y396499D01*
X376687Y396601D01*
X376659Y396721D01*
X376622Y396850D01*
X376586Y396970D01*
X376558Y397072D01*
X376549Y397118D01*
X376539Y397146D01*
Y397137D01*
X376530Y397128D01*
X376521Y397072D01*
X376502Y396989D01*
X376474Y396887D01*
X376447Y396776D01*
X376410Y396647D01*
X376382Y396517D01*
X376345Y396397D01*
X374995Y391525D01*
X374108D01*
X372434Y397923D01*
X373312D01*
X374265Y393725D01*
Y393716D01*
X374274Y393698D01*
X374283Y393661D01*
X374292Y393614D01*
X374302Y393550D01*
X374320Y393485D01*
X374339Y393402D01*
X374357Y393309D01*
X374403Y393115D01*
X374450Y392893D01*
X374496Y392653D01*
X374542Y392412D01*
Y392422D01*
X374551Y392459D01*
X374570Y392505D01*
X374579Y392579D01*
X374598Y392653D01*
X374625Y392745D01*
X374672Y392949D01*
X374727Y393152D01*
X374746Y393254D01*
X374773Y393346D01*
X374792Y393429D01*
X374810Y393503D01*
X374829Y393559D01*
X374838Y393596D01*
X376049Y397923D01*
X377076D01*
X377981Y394678D01*
Y394668D01*
X378000Y394622D01*
X378018Y394557D01*
X378037Y394474D01*
X378065Y394363D01*
X378102Y394243D01*
X378139Y394104D01*
X378176Y393947D01*
X378222Y393772D01*
X378259Y393596D01*
X378342Y393217D01*
X378425Y392819D01*
X378490Y392412D01*
Y392422D01*
X378499Y392440D01*
Y392477D01*
X378518Y392523D01*
X378527Y392579D01*
X378545Y392644D01*
X378555Y392727D01*
X378582Y392819D01*
X378629Y393023D01*
X378684Y393263D01*
X378740Y393522D01*
X378814Y393809D01*
X379812Y397923D01*
X380672D01*
X378915Y391525D01*
D02*
G37*
G36*
X384102D02*
X383316D01*
Y396527D01*
X383307Y396517D01*
X383261Y396480D01*
X383205Y396425D01*
X383113Y396360D01*
X383011Y396277D01*
X382882Y396185D01*
X382734Y396083D01*
X382567Y395981D01*
X382558D01*
X382549Y395972D01*
X382493Y395935D01*
X382401Y395889D01*
X382290Y395833D01*
X382161Y395769D01*
X382022Y395704D01*
X381883Y395639D01*
X381744Y395584D01*
Y396342D01*
X381754D01*
X381772Y396360D01*
X381809Y396370D01*
X381855Y396397D01*
X381911Y396425D01*
X381976Y396462D01*
X382133Y396554D01*
X382318Y396656D01*
X382503Y396786D01*
X382697Y396934D01*
X382891Y397091D01*
X382900Y397100D01*
X382909Y397109D01*
X382937Y397137D01*
X382974Y397165D01*
X383057Y397257D01*
X383168Y397368D01*
X383279Y397497D01*
X383400Y397645D01*
X383501Y397793D01*
X383594Y397951D01*
X384102D01*
Y391525D01*
D02*
G37*
G36*
X316797Y336981D02*
X316917Y336963D01*
X317065Y336935D01*
X317232Y336889D01*
X317398Y336833D01*
X317565Y336759D01*
X317574D01*
X317583Y336750D01*
X317639Y336722D01*
X317722Y336667D01*
X317814Y336602D01*
X317925Y336510D01*
X318036Y336408D01*
X318147Y336288D01*
X318240Y336149D01*
X318249Y336131D01*
X318277Y336084D01*
X318314Y336001D01*
X318360Y335900D01*
X318406Y335779D01*
X318443Y335641D01*
X318471Y335484D01*
X318480Y335326D01*
Y335308D01*
Y335252D01*
X318471Y335178D01*
X318452Y335077D01*
X318424Y334957D01*
X318378Y334827D01*
X318323Y334698D01*
X318249Y334568D01*
X318240Y334550D01*
X318212Y334513D01*
X318156Y334448D01*
X318082Y334374D01*
X317990Y334291D01*
X317879Y334198D01*
X317750Y334115D01*
X317592Y334032D01*
X317602D01*
X317620Y334023D01*
X317648Y334013D01*
X317685Y334004D01*
X317787Y333967D01*
X317916Y333912D01*
X318064Y333838D01*
X318212Y333745D01*
X318351Y333625D01*
X318480Y333486D01*
X318489Y333468D01*
X318526Y333413D01*
X318582Y333320D01*
X318637Y333200D01*
X318693Y333052D01*
X318748Y332876D01*
X318785Y332673D01*
X318794Y332451D01*
Y332442D01*
Y332414D01*
Y332368D01*
X318785Y332312D01*
X318776Y332238D01*
X318757Y332155D01*
X318739Y332063D01*
X318720Y331961D01*
X318646Y331739D01*
X318591Y331619D01*
X318535Y331508D01*
X318461Y331388D01*
X318378Y331268D01*
X318286Y331147D01*
X318175Y331036D01*
X318166Y331027D01*
X318147Y331009D01*
X318110Y330981D01*
X318064Y330944D01*
X318008Y330898D01*
X317934Y330851D01*
X317851Y330796D01*
X317750Y330750D01*
X317648Y330694D01*
X317528Y330639D01*
X317407Y330593D01*
X317269Y330546D01*
X317121Y330509D01*
X316964Y330482D01*
X316807Y330463D01*
X316631Y330454D01*
X316548D01*
X316492Y330463D01*
X316418Y330472D01*
X316335Y330482D01*
X316243Y330500D01*
X316141Y330519D01*
X315919Y330574D01*
X315688Y330667D01*
X315568Y330722D01*
X315457Y330787D01*
X315346Y330870D01*
X315235Y330953D01*
X315226Y330962D01*
X315207Y330981D01*
X315179Y331009D01*
X315152Y331046D01*
X315105Y331092D01*
X315059Y331157D01*
X315004Y331221D01*
X314948Y331305D01*
X314893Y331397D01*
X314837Y331489D01*
X314736Y331711D01*
X314652Y331970D01*
X314625Y332109D01*
X314606Y332257D01*
X315392Y332359D01*
Y332349D01*
X315401Y332331D01*
X315410Y332294D01*
X315420Y332248D01*
X315429Y332192D01*
X315448Y332127D01*
X315494Y331989D01*
X315558Y331822D01*
X315642Y331665D01*
X315734Y331517D01*
X315845Y331388D01*
X315863Y331378D01*
X315900Y331342D01*
X315975Y331295D01*
X316067Y331249D01*
X316178Y331194D01*
X316317Y331147D01*
X316474Y331110D01*
X316640Y331101D01*
X316696D01*
X316733Y331110D01*
X316834Y331120D01*
X316964Y331147D01*
X317112Y331194D01*
X317269Y331258D01*
X317426Y331351D01*
X317574Y331480D01*
X317592Y331499D01*
X317639Y331554D01*
X317694Y331637D01*
X317768Y331748D01*
X317842Y331887D01*
X317897Y332044D01*
X317944Y332229D01*
X317962Y332432D01*
Y332442D01*
Y332460D01*
Y332488D01*
X317953Y332525D01*
X317944Y332627D01*
X317916Y332747D01*
X317879Y332895D01*
X317814Y333043D01*
X317722Y333191D01*
X317602Y333329D01*
X317583Y333348D01*
X317537Y333385D01*
X317463Y333440D01*
X317361Y333505D01*
X317232Y333570D01*
X317075Y333625D01*
X316899Y333662D01*
X316705Y333681D01*
X316622D01*
X316557Y333671D01*
X316474Y333662D01*
X316381Y333644D01*
X316270Y333625D01*
X316150Y333597D01*
X316243Y334291D01*
X316289D01*
X316326Y334282D01*
X316446D01*
X316548Y334300D01*
X316668Y334319D01*
X316807Y334346D01*
X316964Y334393D01*
X317112Y334457D01*
X317269Y334540D01*
X317278D01*
X317287Y334550D01*
X317334Y334587D01*
X317398Y334651D01*
X317472Y334735D01*
X317546Y334855D01*
X317611Y334994D01*
X317657Y335151D01*
X317676Y335243D01*
Y335345D01*
Y335354D01*
Y335363D01*
Y335419D01*
X317657Y335493D01*
X317639Y335594D01*
X317602Y335705D01*
X317555Y335826D01*
X317481Y335946D01*
X317380Y336057D01*
X317370Y336066D01*
X317324Y336103D01*
X317260Y336149D01*
X317176Y336205D01*
X317065Y336251D01*
X316936Y336297D01*
X316788Y336334D01*
X316622Y336343D01*
X316548D01*
X316465Y336325D01*
X316353Y336306D01*
X316233Y336269D01*
X316113Y336223D01*
X315984Y336149D01*
X315863Y336057D01*
X315854Y336048D01*
X315817Y336001D01*
X315762Y335937D01*
X315697Y335844D01*
X315632Y335724D01*
X315568Y335576D01*
X315512Y335400D01*
X315475Y335197D01*
X314689Y335336D01*
Y335345D01*
X314699Y335373D01*
X314708Y335410D01*
X314717Y335465D01*
X314736Y335530D01*
X314763Y335604D01*
X314819Y335779D01*
X314911Y335983D01*
X315022Y336186D01*
X315161Y336380D01*
X315336Y336556D01*
X315346Y336565D01*
X315364Y336575D01*
X315392Y336593D01*
X315429Y336621D01*
X315475Y336658D01*
X315540Y336695D01*
X315605Y336732D01*
X315688Y336778D01*
X315873Y336852D01*
X316085Y336926D01*
X316335Y336972D01*
X316465Y336991D01*
X316696D01*
X316797Y336981D01*
D02*
G37*
G36*
X311500Y336954D02*
X311574D01*
X311740Y336935D01*
X311925Y336917D01*
X312119Y336880D01*
X312313Y336833D01*
X312489Y336769D01*
X312498D01*
X312507Y336759D01*
X312563Y336732D01*
X312646Y336685D01*
X312738Y336621D01*
X312849Y336538D01*
X312970Y336436D01*
X313081Y336306D01*
X313182Y336168D01*
X313192Y336149D01*
X313219Y336094D01*
X313265Y336020D01*
X313312Y335909D01*
X313358Y335779D01*
X313404Y335641D01*
X313432Y335484D01*
X313441Y335326D01*
Y335308D01*
Y335262D01*
X313432Y335178D01*
X313413Y335077D01*
X313386Y334957D01*
X313340Y334827D01*
X313284Y334698D01*
X313210Y334559D01*
X313201Y334540D01*
X313173Y334503D01*
X313118Y334430D01*
X313044Y334356D01*
X312951Y334263D01*
X312840Y334161D01*
X312701Y334069D01*
X312544Y333976D01*
X312554D01*
X312572Y333967D01*
X312600Y333958D01*
X312637Y333940D01*
X312748Y333903D01*
X312877Y333838D01*
X313016Y333755D01*
X313173Y333653D01*
X313312Y333533D01*
X313441Y333385D01*
X313450Y333366D01*
X313487Y333311D01*
X313543Y333228D01*
X313598Y333117D01*
X313654Y332969D01*
X313709Y332812D01*
X313746Y332627D01*
X313755Y332423D01*
Y332414D01*
Y332405D01*
Y332349D01*
X313746Y332257D01*
X313728Y332146D01*
X313709Y332016D01*
X313672Y331878D01*
X313626Y331730D01*
X313561Y331582D01*
X313552Y331563D01*
X313524Y331517D01*
X313487Y331452D01*
X313432Y331360D01*
X313358Y331268D01*
X313284Y331166D01*
X313192Y331064D01*
X313090Y330981D01*
X313081Y330972D01*
X313044Y330944D01*
X312979Y330907D01*
X312896Y330870D01*
X312794Y330815D01*
X312674Y330759D01*
X312544Y330713D01*
X312387Y330667D01*
X312369D01*
X312313Y330648D01*
X312221Y330639D01*
X312101Y330620D01*
X311953Y330602D01*
X311777Y330583D01*
X311583Y330574D01*
X311361Y330565D01*
X308920D01*
Y336963D01*
X311435D01*
X311500Y336954D01*
D02*
G37*
G36*
X307857Y336205D02*
X304380D01*
Y334226D01*
X307385D01*
Y333468D01*
X304380D01*
Y330565D01*
X303530D01*
Y336963D01*
X307857D01*
Y336205D01*
D02*
G37*
G36*
X220147Y567787D02*
X220221Y567778D01*
X220295Y567768D01*
X220489Y567731D01*
X220693Y567676D01*
X220905Y567593D01*
X221016Y567537D01*
X221118Y567472D01*
X221210Y567399D01*
X221303Y567315D01*
X221312Y567306D01*
X221321Y567297D01*
X221340Y567260D01*
X221368Y567223D01*
X221404Y567177D01*
X221441Y567112D01*
X221479Y567038D01*
X221525Y566955D01*
X221562Y566862D01*
X221599Y566751D01*
X221636Y566640D01*
X221673Y566511D01*
X221691Y566372D01*
X221719Y566215D01*
X221728Y566058D01*
Y565882D01*
X220961Y565771D01*
Y565781D01*
Y565799D01*
Y565836D01*
X220951Y565891D01*
X220942Y565947D01*
Y566012D01*
X220914Y566169D01*
X220887Y566335D01*
X220831Y566502D01*
X220776Y566650D01*
X220739Y566714D01*
X220693Y566770D01*
X220683Y566779D01*
X220646Y566807D01*
X220591Y566853D01*
X220517Y566899D01*
X220415Y566955D01*
X220304Y566992D01*
X220166Y567029D01*
X220018Y567038D01*
X219962D01*
X219907Y567029D01*
X219823Y567020D01*
X219740Y567001D01*
X219648Y566982D01*
X219555Y566945D01*
X219463Y566899D01*
X219454Y566890D01*
X219426Y566872D01*
X219389Y566835D01*
X219333Y566798D01*
X219287Y566733D01*
X219232Y566668D01*
X219186Y566594D01*
X219149Y566502D01*
Y566493D01*
X219130Y566455D01*
X219121Y566391D01*
X219102Y566308D01*
X219084Y566197D01*
X219075Y566058D01*
X219056Y565891D01*
Y565697D01*
Y561287D01*
X218206D01*
Y565651D01*
Y565660D01*
Y565688D01*
Y565725D01*
Y565781D01*
X218215Y565854D01*
Y565928D01*
X218233Y566104D01*
X218252Y566308D01*
X218289Y566520D01*
X218344Y566714D01*
X218409Y566899D01*
Y566908D01*
X218418Y566918D01*
X218446Y566973D01*
X218492Y567047D01*
X218557Y567149D01*
X218649Y567251D01*
X218751Y567362D01*
X218881Y567472D01*
X219028Y567565D01*
X219047Y567574D01*
X219102Y567602D01*
X219186Y567639D01*
X219306Y567676D01*
X219454Y567722D01*
X219620Y567759D01*
X219805Y567787D01*
X220008Y567796D01*
X220092D01*
X220147Y567787D01*
D02*
G37*
G36*
X217253Y567676D02*
Y567639D01*
Y567584D01*
X217244Y567509D01*
X217235Y567426D01*
X217216Y567334D01*
X217198Y567241D01*
X217161Y567140D01*
Y567130D01*
X217152Y567121D01*
X217133Y567066D01*
X217096Y566982D01*
X217041Y566872D01*
X216967Y566742D01*
X216874Y566594D01*
X216772Y566446D01*
X216643Y566289D01*
Y566280D01*
X216625Y566271D01*
X216578Y566215D01*
X216495Y566132D01*
X216375Y566012D01*
X216236Y565873D01*
X216061Y565707D01*
X215848Y565522D01*
X215617Y565327D01*
X215607Y565318D01*
X215571Y565291D01*
X215515Y565244D01*
X215450Y565189D01*
X215367Y565115D01*
X215266Y565032D01*
X215164Y564939D01*
X215044Y564837D01*
X214812Y564616D01*
X214581Y564394D01*
X214470Y564283D01*
X214369Y564172D01*
X214276Y564070D01*
X214202Y563968D01*
Y563959D01*
X214184Y563950D01*
X214165Y563922D01*
X214147Y563885D01*
X214082Y563783D01*
X214008Y563663D01*
X213943Y563515D01*
X213879Y563358D01*
X213842Y563183D01*
X213823Y563016D01*
Y563007D01*
Y562998D01*
X213832Y562942D01*
X213842Y562850D01*
X213869Y562748D01*
X213906Y562619D01*
X213971Y562489D01*
X214054Y562360D01*
X214165Y562230D01*
X214184Y562212D01*
X214230Y562175D01*
X214295Y562129D01*
X214396Y562064D01*
X214526Y562008D01*
X214674Y561953D01*
X214849Y561916D01*
X215044Y561907D01*
X215099D01*
X215136Y561916D01*
X215247Y561925D01*
X215376Y561953D01*
X215515Y561990D01*
X215672Y562055D01*
X215820Y562138D01*
X215959Y562249D01*
X215977Y562267D01*
X216014Y562313D01*
X216070Y562387D01*
X216125Y562498D01*
X216190Y562628D01*
X216245Y562794D01*
X216283Y562979D01*
X216301Y563192D01*
X217105Y563109D01*
Y563099D01*
X217096Y563072D01*
Y563025D01*
X217087Y562961D01*
X217068Y562887D01*
X217050Y562803D01*
X217022Y562702D01*
X216994Y562600D01*
X216920Y562378D01*
X216810Y562156D01*
X216745Y562045D01*
X216661Y561934D01*
X216578Y561833D01*
X216486Y561740D01*
X216477Y561731D01*
X216458Y561722D01*
X216430Y561694D01*
X216384Y561666D01*
X216329Y561629D01*
X216264Y561592D01*
X216190Y561546D01*
X216098Y561500D01*
X215996Y561454D01*
X215885Y561407D01*
X215765Y561370D01*
X215635Y561333D01*
X215497Y561306D01*
X215349Y561278D01*
X215191Y561269D01*
X215025Y561259D01*
X214933D01*
X214868Y561269D01*
X214794Y561278D01*
X214701Y561287D01*
X214600Y561306D01*
X214498Y561324D01*
X214258Y561389D01*
X214017Y561481D01*
X213897Y561537D01*
X213777Y561602D01*
X213666Y561685D01*
X213564Y561777D01*
X213555Y561786D01*
X213536Y561796D01*
X213518Y561833D01*
X213481Y561870D01*
X213435Y561916D01*
X213389Y561981D01*
X213342Y562045D01*
X213287Y562129D01*
X213194Y562304D01*
X213102Y562526D01*
X213065Y562637D01*
X213046Y562766D01*
X213028Y562896D01*
X213019Y563035D01*
Y563053D01*
Y563099D01*
X213028Y563173D01*
X213037Y563275D01*
X213056Y563386D01*
X213093Y563515D01*
X213130Y563654D01*
X213185Y563793D01*
X213194Y563811D01*
X213213Y563857D01*
X213250Y563932D01*
X213305Y564033D01*
X213379Y564144D01*
X213472Y564283D01*
X213583Y564422D01*
X213712Y564579D01*
X213731Y564597D01*
X213777Y564653D01*
X213823Y564699D01*
X213869Y564745D01*
X213925Y564800D01*
X213999Y564874D01*
X214073Y564949D01*
X214165Y565032D01*
X214258Y565124D01*
X214369Y565226D01*
X214489Y565327D01*
X214618Y565448D01*
X214766Y565568D01*
X214914Y565697D01*
X214923Y565707D01*
X214942Y565725D01*
X214979Y565753D01*
X215025Y565790D01*
X215081Y565845D01*
X215145Y565901D01*
X215293Y566021D01*
X215450Y566160D01*
X215598Y566298D01*
X215728Y566418D01*
X215783Y566465D01*
X215829Y566511D01*
X215839Y566520D01*
X215866Y566548D01*
X215903Y566585D01*
X215950Y566640D01*
X215996Y566705D01*
X216051Y566770D01*
X216162Y566927D01*
X213009D01*
Y567685D01*
X217253D01*
Y567676D01*
D02*
G37*
%LPC*%
G36*
X311287Y336205D02*
X309771D01*
Y334282D01*
X311342D01*
X311463Y334291D01*
X311592Y334300D01*
X311721Y334309D01*
X311851Y334328D01*
X311953Y334346D01*
X311971Y334356D01*
X312008Y334365D01*
X312064Y334393D01*
X312138Y334430D01*
X312211Y334467D01*
X312295Y334522D01*
X312378Y334596D01*
X312443Y334670D01*
X312452Y334679D01*
X312470Y334707D01*
X312498Y334762D01*
X312526Y334827D01*
X312554Y334901D01*
X312581Y334994D01*
X312600Y335104D01*
X312609Y335225D01*
Y335243D01*
Y335280D01*
X312600Y335336D01*
X312591Y335410D01*
X312572Y335502D01*
X312544Y335594D01*
X312507Y335687D01*
X312452Y335779D01*
X312443Y335789D01*
X312424Y335816D01*
X312387Y335863D01*
X312341Y335909D01*
X312276Y335964D01*
X312202Y336020D01*
X312110Y336075D01*
X312008Y336112D01*
X311999D01*
X311953Y336131D01*
X311888Y336140D01*
X311786Y336158D01*
X311647Y336177D01*
X311490Y336186D01*
X311287Y336205D01*
D02*
G37*
G36*
X311453Y333523D02*
X309771D01*
Y331323D01*
X311592D01*
X311786Y331332D01*
X311869Y331342D01*
X311943Y331351D01*
X311953D01*
X311990Y331360D01*
X312045Y331369D01*
X312110Y331388D01*
X312267Y331443D01*
X312424Y331517D01*
X312433Y331526D01*
X312461Y331545D01*
X312498Y331573D01*
X312544Y331610D01*
X312591Y331665D01*
X312655Y331721D01*
X312701Y331795D01*
X312757Y331878D01*
X312766Y331887D01*
X312775Y331915D01*
X312794Y331970D01*
X312822Y332035D01*
X312849Y332109D01*
X312868Y332201D01*
X312877Y332312D01*
X312886Y332423D01*
Y332442D01*
Y332479D01*
X312877Y332553D01*
X312859Y332636D01*
X312840Y332728D01*
X312803Y332830D01*
X312757Y332932D01*
X312692Y333033D01*
X312683Y333043D01*
X312655Y333080D01*
X312618Y333126D01*
X312563Y333181D01*
X312489Y333246D01*
X312396Y333311D01*
X312295Y333366D01*
X312174Y333413D01*
X312156Y333422D01*
X312119Y333431D01*
X312036Y333449D01*
X311934Y333468D01*
X311805Y333486D01*
X311647Y333505D01*
X311453Y333523D01*
D02*
G37*
%LPD*%
D10*
X27742Y478982D02*
X107742D01*
X27742Y248982D02*
X107742D01*
Y478982D01*
X27742Y248982D02*
Y478982D01*
D16*
X330776Y363414D02*
Y419414D01*
Y363414D02*
X402776D01*
Y419414D01*
X330776D02*
X402776D01*
X281999Y343235D02*
X325061D01*
Y317673D02*
Y343235D01*
X281999Y317673D02*
X325061D01*
X281999D02*
Y343235D01*
X183728Y538046D02*
X259728D01*
X183728D02*
Y597546D01*
X259728D01*
Y538046D02*
Y597546D01*
M02*
