G04*
G04 #@! TF.GenerationSoftware,Altium Limited,Altium Designer,25.8.1 (18)*
G04*
G04 Layer_Color=8388736*
%FSLAX44Y44*%
%MOMM*%
G71*
G04*
G04 #@! TF.SameCoordinates,16AD229D-0A12-456A-95A7-24712EE817D5*
G04*
G04*
G04 #@! TF.FilePolarity,Positive*
G04*
G01*
G75*
%ADD10C,0.1000*%
%ADD16C,0.2000*%
%ADD120C,0.0500*%
D10*
X151478Y487046D02*
Y525046D01*
X189478D01*
Y487046D02*
Y525046D01*
X151478Y487046D02*
X189478D01*
X258160Y486480D02*
X270160D01*
X278060Y494380D02*
Y506380D01*
X258160Y514280D02*
X270160D01*
X250260Y494380D02*
Y506380D01*
Y494380D02*
X258160Y486480D01*
X270160D02*
X278060Y494380D01*
X270160Y514280D02*
X278060Y506380D01*
X250260D02*
X258160Y514280D01*
D16*
X339776Y364414D02*
Y418414D01*
Y364414D02*
X393776D01*
Y418414D01*
X339776D02*
X393776D01*
X293530Y336704D02*
X313530D01*
Y324204D02*
Y336704D01*
X293530Y324204D02*
X313530D01*
X293530D02*
Y336704D01*
X184728Y539046D02*
X258728D01*
X184728D02*
Y596546D01*
X258728D01*
Y539046D02*
Y596546D01*
D120*
X94883Y216359D02*
G03*
X94883Y216359I-1000J0D01*
G01*
X418273Y397861D02*
G03*
X418273Y397861I-1000J0D01*
G01*
X110885Y547321D02*
G03*
X110885Y547321I-1000J0D01*
G01*
X270479Y546297D02*
G03*
X270479Y546297I-1000J0D01*
G01*
X95884Y208360D02*
Y218360D01*
X79882Y218359D02*
X95883D01*
X79884Y208360D02*
Y218357D01*
Y208360D02*
X95884D01*
X409274Y395860D02*
Y411860D01*
X419271D01*
X419273Y395861D02*
Y411862D01*
X409274Y395860D02*
X419274D01*
X111886Y539322D02*
Y549322D01*
X95884Y549321D02*
X111885D01*
X95886Y539322D02*
Y549319D01*
Y539322D02*
X111886D01*
X267478Y554296D02*
X283478D01*
Y544299D02*
Y554296D01*
X267479Y544297D02*
X283480D01*
X267478Y544296D02*
Y554296D01*
M02*
