M48
;Layer_Color=9474304
;FILE_FORMAT=4:4
METRIC,LZ
;TYPE=PLATED
T01F00S00C0.2000
T02F00S00C0.2540
T03F00S00C0.3048
T04F00S00C0.3302
T06F00S00C1.0000
%
T01
X002711Y0019998
Y0021398
X002851
Y0022798
Y0024198
X002991
X003131
Y0022798
X002991
Y0021398
X003131
Y0019998
X002991
X002851
X002711Y0022798
Y0024198
X00231728Y00448296
X00223978
Y00440546
Y00456046
X00216228Y00448296
T02
X00085Y000745
X00103Y0008775
T03
X00058Y0004625
X0004675Y000885
X00067Y00122
X0007575Y00125854
Y00135564
X0008425Y001215
X0010225Y001195
X00110722Y0012825
X0011175Y00059
X0012225Y000535
X00144Y0005375
X001115Y00041
X0014925Y00095
X0018025Y0009775
X0017975Y00111
X00201712Y00120538
X0021325Y0010925
X00221828Y001145
X00237576Y0011475
X00232Y0014275
X00221828Y00142308
X002135Y0008925
X001985Y00071
X0020475Y00017382
X002605Y0002107
X00277285Y00021067
X002695Y000095
Y00036818
X00312Y000575
X0033575Y000755
X003435Y00106
X003795Y0011975
X003965Y001185
X00396118Y00104
X0037275Y0007975
X0038Y0015375
X0037925Y00172
X00329Y0015325
X0030775Y0017075
X00252Y001805
X0024975Y0025375
X0028525Y002655
X0028425Y00277
X00329Y00273
Y0029225
X00395668Y00274296
X00396962Y00254972
X003815Y00343
X00416Y00345
X0038775Y0039725
X0038833Y0048052
X00362Y00523
X002505Y0046225
X00251Y0042375
X0024675Y0037875
X00199Y0037375
X0018775Y004135
X0016075Y004005
X00184Y0047675
X00221Y004785
X0022425Y005195
X0018325Y00306
X0016975Y0028025
X0017075Y002605
X0017025Y002415
Y0022325
X00171Y0020575
X00132Y0021575
Y00227
X00106Y0021375
X001105Y0020325
X0011075Y00184
X00077345Y00184405
X00091Y001665
Y001555
X00094Y0027725
X0008025Y00277
X000685Y0027675
X0005825
X0004625Y00276
X0012036Y0028675
X0013425Y002785
Y00295
X00150172Y0028625
X0023525Y00181
X00124Y00545
X00117Y00561
X001175Y0057325
X00077Y00576
X002965Y0056275
X00369Y005515
T04
X004449Y000116
X004576
X004703
X00483
Y000243
Y00037
Y000497
Y000624
Y000751
Y000878
Y001005
Y001132
Y001259
Y001386
X004703
Y001259
X004576
Y001386
X004449
Y001259
Y001132
X004576
X004703
Y001005
Y000878
Y000751
Y000624
Y000497
Y00037
Y000243
X004576
Y00037
Y000497
Y000624
Y000751
Y000878
Y001005
X004449
Y000878
Y000751
Y000624
Y000497
Y00037
Y000243
Y001513
Y00164
X004576
X004703
Y001767
X00483
Y001894
X004703
X004576
Y001767
X004449
Y001894
X004322
X004195
X004068
X003941
X003814
X003687
X00356
X003433
X0034355Y0020425
X0035625
X0036895
X0038165
X0039435
X0040705
X0041975
X004195Y002225
X004322
X004449
X004576
X004703
X00483
X00483Y0023655
X004835Y00247
Y0025575
X00483Y0027465
Y0028735
X004957
Y0030005
Y0031275
X00483
X004703
Y0030005
X004576
Y0031275
X004449
Y0030005
Y0028735
X004576
X004703
Y0027465
Y0026195
X004576
Y0027465
X004449
Y0026195
Y0024925
X004576
X004703
Y0023655
X004576
X004449
X004322
X004195
X004068
X003941
X003814
X003687
X00356
X00343896Y00235954
X003433Y002225
X00356
X003687
X003814
X003941
X004068
X0045785Y0020425
X0047055
X0048325
X00483Y00164
Y001513
X004703
X004576
X004957Y0027465
X005084
Y0028735
X005211
Y0030005
Y0031275
X005338
X005465
X005592
X005719
X005846
X005973
Y0030005
X005846
X005719
X005592
X005465
X005338
Y0028735
X005465
X005592
X005719
X005846
X005973
Y0027465
X005846
X005719
X005592
X005465
X005338
X005211
X005084Y0030005
Y0031275
X00483Y0030005
T06
X00209228Y00562546
X00234228
M30
