G04*
G04 #@! TF.GenerationSoftware,Altium Limited,Altium Designer,25.8.1 (18)*
G04*
G04 Layer_Physical_Order=1*
G04 Layer_Color=255*
%FSLAX44Y44*%
%MOMM*%
G71*
G04*
G04 #@! TF.SameCoordinates,16AD229D-0A12-456A-95A7-24712EE817D5*
G04*
G04*
G04 #@! TF.FilePolarity,Positive*
G04*
G01*
G75*
%ADD11C,0.2540*%
%ADD13C,0.1524*%
%ADD19R,3.0480X1.7780*%
G04:AMPARAMS|DCode=20|XSize=0.64mm|YSize=0.5mm|CornerRadius=0.125mm|HoleSize=0mm|Usage=FLASHONLY|Rotation=0.000|XOffset=0mm|YOffset=0mm|HoleType=Round|Shape=RoundedRectangle|*
%AMROUNDEDRECTD20*
21,1,0.6400,0.2500,0,0,0.0*
21,1,0.3900,0.5000,0,0,0.0*
1,1,0.2500,0.1950,-0.1250*
1,1,0.2500,-0.1950,-0.1250*
1,1,0.2500,-0.1950,0.1250*
1,1,0.2500,0.1950,0.1250*
%
%ADD20ROUNDEDRECTD20*%
%ADD21R,0.6400X0.5000*%
%ADD22R,0.7112X0.2032*%
%ADD23R,0.2032X0.7112*%
%ADD24R,1.7018X1.7018*%
G04:AMPARAMS|DCode=25|XSize=1.2mm|YSize=1mm|CornerRadius=0.25mm|HoleSize=0mm|Usage=FLASHONLY|Rotation=180.000|XOffset=0mm|YOffset=0mm|HoleType=Round|Shape=RoundedRectangle|*
%AMROUNDEDRECTD25*
21,1,1.2000,0.5000,0,0,180.0*
21,1,0.7000,1.0000,0,0,180.0*
1,1,0.5000,-0.3500,0.2500*
1,1,0.5000,0.3500,0.2500*
1,1,0.5000,0.3500,-0.2500*
1,1,0.5000,-0.3500,-0.2500*
%
%ADD25ROUNDEDRECTD25*%
%ADD26R,1.2000X1.0000*%
G04:AMPARAMS|DCode=27|XSize=0.9mm|YSize=0.9mm|CornerRadius=0.225mm|HoleSize=0mm|Usage=FLASHONLY|Rotation=0.000|XOffset=0mm|YOffset=0mm|HoleType=Round|Shape=RoundedRectangle|*
%AMROUNDEDRECTD27*
21,1,0.9000,0.4500,0,0,0.0*
21,1,0.4500,0.9000,0,0,0.0*
1,1,0.4500,0.2250,-0.2250*
1,1,0.4500,-0.2250,-0.2250*
1,1,0.4500,-0.2250,0.2250*
1,1,0.4500,0.2250,0.2250*
%
%ADD27ROUNDEDRECTD27*%
%ADD28R,0.7500X0.3500*%
%ADD29R,0.7700X0.1900*%
G04:AMPARAMS|DCode=30|XSize=0.76mm|YSize=0.27mm|CornerRadius=0.0675mm|HoleSize=0mm|Usage=FLASHONLY|Rotation=0.000|XOffset=0mm|YOffset=0mm|HoleType=Round|Shape=RoundedRectangle|*
%AMROUNDEDRECTD30*
21,1,0.7600,0.1350,0,0,0.0*
21,1,0.6250,0.2700,0,0,0.0*
1,1,0.1350,0.3125,-0.0675*
1,1,0.1350,-0.3125,-0.0675*
1,1,0.1350,-0.3125,0.0675*
1,1,0.1350,0.3125,0.0675*
%
%ADD30ROUNDEDRECTD30*%
%ADD31R,0.6000X0.5000*%
%ADD32R,0.7100X0.1900*%
G04:AMPARAMS|DCode=33|XSize=0.26mm|YSize=0.86mm|CornerRadius=0.065mm|HoleSize=0mm|Usage=FLASHONLY|Rotation=180.000|XOffset=0mm|YOffset=0mm|HoleType=Round|Shape=RoundedRectangle|*
%AMROUNDEDRECTD33*
21,1,0.2600,0.7300,0,0,180.0*
21,1,0.1300,0.8600,0,0,180.0*
1,1,0.1300,-0.0650,0.3650*
1,1,0.1300,0.0650,0.3650*
1,1,0.1300,0.0650,-0.3650*
1,1,0.1300,-0.0650,-0.3650*
%
%ADD33ROUNDEDRECTD33*%
%ADD34R,1.0000X0.6250*%
G04:AMPARAMS|DCode=35|XSize=0.9mm|YSize=0.9mm|CornerRadius=0.225mm|HoleSize=0mm|Usage=FLASHONLY|Rotation=270.000|XOffset=0mm|YOffset=0mm|HoleType=Round|Shape=RoundedRectangle|*
%AMROUNDEDRECTD35*
21,1,0.9000,0.4500,0,0,270.0*
21,1,0.4500,0.9000,0,0,270.0*
1,1,0.4500,-0.2250,-0.2250*
1,1,0.4500,-0.2250,0.2250*
1,1,0.4500,0.2250,0.2250*
1,1,0.4500,0.2250,-0.2250*
%
%ADD35ROUNDEDRECTD35*%
G04:AMPARAMS|DCode=37|XSize=1.2mm|YSize=1mm|CornerRadius=0.25mm|HoleSize=0mm|Usage=FLASHONLY|Rotation=90.000|XOffset=0mm|YOffset=0mm|HoleType=Round|Shape=RoundedRectangle|*
%AMROUNDEDRECTD37*
21,1,1.2000,0.5000,0,0,90.0*
21,1,0.7000,1.0000,0,0,90.0*
1,1,0.5000,0.2500,0.3500*
1,1,0.5000,0.2500,-0.3500*
1,1,0.5000,-0.2500,-0.3500*
1,1,0.5000,-0.2500,0.3500*
%
%ADD37ROUNDEDRECTD37*%
G04:AMPARAMS|DCode=38|XSize=0.26mm|YSize=0.86mm|CornerRadius=0.065mm|HoleSize=0mm|Usage=FLASHONLY|Rotation=90.000|XOffset=0mm|YOffset=0mm|HoleType=Round|Shape=RoundedRectangle|*
%AMROUNDEDRECTD38*
21,1,0.2600,0.7300,0,0,90.0*
21,1,0.1300,0.8600,0,0,90.0*
1,1,0.1300,0.3650,0.0650*
1,1,0.1300,0.3650,-0.0650*
1,1,0.1300,-0.3650,-0.0650*
1,1,0.1300,-0.3650,0.0650*
%
%ADD38ROUNDEDRECTD38*%
%ADD39R,0.2500X0.4750*%
%ADD40R,0.6858X0.5842*%
%ADD41R,0.4750X0.2500*%
%ADD42R,0.6250X1.0000*%
%ADD43R,1.0000X1.2000*%
G04:AMPARAMS|DCode=44|XSize=0.6mm|YSize=0.24mm|CornerRadius=0.0324mm|HoleSize=0mm|Usage=FLASHONLY|Rotation=0.000|XOffset=0mm|YOffset=0mm|HoleType=Round|Shape=RoundedRectangle|*
%AMROUNDEDRECTD44*
21,1,0.6000,0.1752,0,0,0.0*
21,1,0.5352,0.2400,0,0,0.0*
1,1,0.0648,0.2676,-0.0876*
1,1,0.0648,-0.2676,-0.0876*
1,1,0.0648,-0.2676,0.0876*
1,1,0.0648,0.2676,0.0876*
%
%ADD44ROUNDEDRECTD44*%
G04:AMPARAMS|DCode=45|XSize=0.87mm|YSize=0.93mm|CornerRadius=0.1088mm|HoleSize=0mm|Usage=FLASHONLY|Rotation=0.000|XOffset=0mm|YOffset=0mm|HoleType=Round|Shape=RoundedRectangle|*
%AMROUNDEDRECTD45*
21,1,0.8700,0.7125,0,0,0.0*
21,1,0.6525,0.9300,0,0,0.0*
1,1,0.2175,0.3263,-0.3563*
1,1,0.2175,-0.3263,-0.3563*
1,1,0.2175,-0.3263,0.3563*
1,1,0.2175,0.3263,0.3563*
%
%ADD45ROUNDEDRECTD45*%
%ADD46R,1.2000X0.8000*%
%ADD47R,7.4000X2.0000*%
G04:AMPARAMS|DCode=48|XSize=2.794mm|YSize=0.7366mm|CornerRadius=0.1842mm|HoleSize=0mm|Usage=FLASHONLY|Rotation=270.000|XOffset=0mm|YOffset=0mm|HoleType=Round|Shape=RoundedRectangle|*
%AMROUNDEDRECTD48*
21,1,2.7940,0.3683,0,0,270.0*
21,1,2.4257,0.7366,0,0,270.0*
1,1,0.3683,-0.1842,-1.2129*
1,1,0.3683,-0.1842,1.2129*
1,1,0.3683,0.1842,1.2129*
1,1,0.3683,0.1842,-1.2129*
%
%ADD48ROUNDEDRECTD48*%
%ADD49R,1.0000X0.2300*%
%ADD50R,0.9100X1.2200*%
%ADD51R,1.0000X0.7000*%
G04:AMPARAMS|DCode=52|XSize=0.64mm|YSize=0.47mm|CornerRadius=0.1175mm|HoleSize=0mm|Usage=FLASHONLY|Rotation=90.000|XOffset=0mm|YOffset=0mm|HoleType=Round|Shape=RoundedRectangle|*
%AMROUNDEDRECTD52*
21,1,0.6400,0.2350,0,0,90.0*
21,1,0.4050,0.4700,0,0,90.0*
1,1,0.2350,0.1175,0.2025*
1,1,0.2350,0.1175,-0.2025*
1,1,0.2350,-0.1175,-0.2025*
1,1,0.2350,-0.1175,0.2025*
%
%ADD52ROUNDEDRECTD52*%
%ADD53R,0.4700X0.6400*%
%ADD54R,1.9000X1.1000*%
%ADD55R,0.2600X0.8600*%
%ADD56R,1.4549X1.5562*%
%ADD57R,1.0000X3.2000*%
%ADD58R,1.2000X0.4400*%
%ADD59R,1.2000X0.7600*%
%ADD60R,1.2000X0.7000*%
G04:AMPARAMS|DCode=61|XSize=0.24mm|YSize=0.6mm|CornerRadius=0.0324mm|HoleSize=0mm|Usage=FLASHONLY|Rotation=0.000|XOffset=0mm|YOffset=0mm|HoleType=Round|Shape=RoundedRectangle|*
%AMROUNDEDRECTD61*
21,1,0.2400,0.5352,0,0,0.0*
21,1,0.1752,0.6000,0,0,0.0*
1,1,0.0648,0.0876,-0.2676*
1,1,0.0648,-0.0876,-0.2676*
1,1,0.0648,-0.0876,0.2676*
1,1,0.0648,0.0876,0.2676*
%
%ADD61ROUNDEDRECTD61*%
%ADD100C,1.5500*%
%ADD101R,1.5500X1.5500*%
%ADD103C,0.6000*%
%AMCUSTOMSHAPE104*
4,1,4,-1.0027,-0.5080,-1.0027,0.5080,1.0027,0.5080,1.0027,-0.5080,-1.0027,-0.5080,0.0*%
%ADD104CUSTOMSHAPE104*%

%ADD105R,0.6000X1.2000*%
%ADD106R,2.0500X2.0500*%
%ADD107R,4.7000X4.7000*%
%ADD108R,0.8000X4.3000*%
%ADD109C,0.6400*%
%ADD110C,1.0160*%
%ADD111C,0.2032*%
%ADD112R,4.6500X0.2015*%
%ADD113C,4.5720*%
%ADD114C,0.3000*%
%ADD115O,1.6000X1.0000*%
%ADD116C,0.4064*%
%ADD117C,0.6350*%
%ADD118C,0.2540*%
%ADD119C,0.5000*%
G36*
X214313Y571958D02*
X215230Y571642D01*
X215819Y571077D01*
X216349Y571077D01*
X216349Y571077D01*
X217106Y571701D01*
X223944Y571835D01*
X224954Y570839D01*
Y553272D01*
X243502D01*
Y559697D01*
X256128D01*
X256618Y558750D01*
Y552145D01*
X252308D01*
X252308Y552145D01*
X251218Y551928D01*
X250294Y551310D01*
X250294Y551310D01*
X238176Y539192D01*
X191924D01*
X187352Y543764D01*
X186514D01*
Y570942D01*
X187425Y571958D01*
X214313Y571958D01*
D02*
G37*
G36*
X305048Y525912D02*
X302762Y523626D01*
Y523372D01*
X279140D01*
X278632Y522864D01*
X277616Y523880D01*
Y535564D01*
X267964D01*
X266186Y537342D01*
Y542772D01*
X271424D01*
X272536Y541660D01*
X273552Y542676D01*
Y542772D01*
X274002D01*
Y555820D01*
X273552D01*
Y556392D01*
X268161D01*
X261360Y563193D01*
Y571886D01*
X261465Y572140D01*
X305048D01*
Y525912D01*
D02*
G37*
G36*
X270250Y476750D02*
Y465029D01*
X268993Y463772D01*
X268030Y464246D01*
Y471170D01*
X261760D01*
Y463900D01*
X267684D01*
X268158Y462937D01*
X262317Y457096D01*
X244443D01*
X243505Y457420D01*
Y459172D01*
X243402Y459420D01*
X243154Y459523D01*
X241748D01*
Y458296D01*
X239208D01*
Y459736D01*
X238759Y460336D01*
X239250Y462000D01*
X252010Y474917D01*
X252950Y474531D01*
Y473710D01*
X260490D01*
X268030D01*
Y477533D01*
X269046Y477954D01*
X270250Y476750D01*
D02*
G37*
G36*
X263500Y480500D02*
X251500D01*
X236143Y465143D01*
X235248Y465514D01*
Y464796D01*
X232708D01*
Y467472D01*
X231738D01*
X231595Y468193D01*
X231410Y468469D01*
X231859Y470898D01*
X238014Y477054D01*
X238014Y477054D01*
X238632Y477978D01*
X238849Y479068D01*
X238849Y479068D01*
Y508744D01*
X240974Y520250D01*
X263500D01*
Y480500D01*
D02*
G37*
G36*
X175250Y529750D02*
X196250D01*
Y486400D01*
X200626Y482024D01*
Y481426D01*
X201224D01*
X213889Y468761D01*
X213500Y467823D01*
X213102D01*
X212854Y467720D01*
X212751Y467472D01*
Y466066D01*
X213978D01*
Y463526D01*
X212751D01*
Y462120D01*
X211813Y461796D01*
X210204D01*
X189000Y483000D01*
X173250D01*
Y530313D01*
X174100Y530900D01*
X175250Y529750D01*
D02*
G37*
G36*
X142484Y530984D02*
X142250Y530750D01*
X146099Y530961D01*
X146438Y529963D01*
Y507316D01*
X148978D01*
Y527546D01*
X151708D01*
Y530086D01*
X148685D01*
X148657Y531102D01*
X160450Y531750D01*
X168250D01*
Y460192D01*
X178436Y458782D01*
X178366Y457768D01*
X174340D01*
Y451498D01*
X182880D01*
X191420D01*
Y456211D01*
X192186Y456878D01*
X197371Y456160D01*
X198114Y455664D01*
X199204Y455447D01*
X199204Y455447D01*
X202522D01*
X204043Y455237D01*
X204300Y454566D01*
X207478D01*
Y452026D01*
X204431D01*
X203947Y451452D01*
X203225Y451075D01*
X201226D01*
X201226Y451075D01*
X200136Y450858D01*
X199212Y450240D01*
X199212Y450240D01*
X196570Y447599D01*
X192289Y445363D01*
X191420Y445889D01*
Y448958D01*
X184150D01*
Y442688D01*
X185037D01*
X185279Y441701D01*
X182500Y440250D01*
X168625Y441375D01*
X168427Y448573D01*
X145750Y471250D01*
Y481275D01*
X146438Y482006D01*
X146766Y482006D01*
X151708D01*
Y484546D01*
X148978D01*
Y504776D01*
X146438D01*
Y486749D01*
X145422Y486328D01*
X143000Y488750D01*
X116600D01*
Y492214D01*
X119880D01*
Y500854D01*
Y509494D01*
X116600D01*
Y517394D01*
X120000D01*
Y526034D01*
X121270D01*
Y527304D01*
X128360D01*
Y532000D01*
X142063D01*
X142484Y530984D01*
D02*
G37*
G36*
X607151Y267000D02*
X486750D01*
Y221300D01*
X485750Y220300D01*
X485025Y220000D01*
D01*
X484652Y219846D01*
X484202Y219500D01*
X339000D01*
X338000Y220500D01*
Y220971D01*
X338014Y220986D01*
X338632Y221910D01*
X338849Y223000D01*
X338849Y223000D01*
Y242070D01*
X339279Y242500D01*
X481500D01*
Y242750D01*
X440264D01*
X439253Y242750D01*
X439251Y242750D01*
X439250Y243765D01*
Y318396D01*
X439500Y318500D01*
X607151D01*
Y267000D01*
D02*
G37*
G36*
X332880Y211101D02*
X332492Y211408D01*
X332047Y211683D01*
X331546Y211926D01*
X330988Y212136D01*
X330374Y212314D01*
X329702Y212459D01*
X328974Y212572D01*
X327348Y212702D01*
X326450Y212718D01*
Y214242D01*
X327348Y214258D01*
X328974Y214388D01*
X329702Y214501D01*
X330374Y214646D01*
X330988Y214824D01*
X331546Y215034D01*
X332047Y215277D01*
X332492Y215552D01*
X332880Y215859D01*
Y211101D01*
D02*
G37*
G36*
X486000Y206956D02*
X486840D01*
Y2849D01*
X438750D01*
Y183750D01*
X439000Y184000D01*
X438000Y185000D01*
X380121D01*
X379892Y185153D01*
X379000Y185331D01*
X336250D01*
Y207000D01*
X432491D01*
X433158Y205984D01*
X432960Y204987D01*
X444580D01*
X444382Y205984D01*
X445049Y207000D01*
X486000D01*
Y206956D01*
D02*
G37*
G36*
X98840Y108828D02*
Y106796D01*
X91768D01*
Y113868D01*
X93800D01*
X98840Y108828D01*
D02*
G37*
G36*
X69800Y106756D02*
X62728Y106796D01*
Y108828D01*
X67768Y113868D01*
X69800D01*
Y106756D01*
D02*
G37*
G36*
X98840Y82796D02*
X93800Y77756D01*
X91768D01*
Y84826D01*
X98840Y84828D01*
Y82796D01*
D02*
G37*
G36*
X69798Y84826D02*
X69800Y77756D01*
X67768D01*
X62728Y82796D01*
Y84828D01*
X69798Y84826D01*
D02*
G37*
G36*
X595293Y256895D02*
X604893D01*
Y58375D01*
X595091D01*
Y209049D01*
X511273Y209053D01*
Y219105D01*
X595091D01*
Y246899D01*
X512033D01*
Y256949D01*
X595293D01*
Y256895D01*
D02*
G37*
%LPC*%
G36*
X259220Y471170D02*
X252950D01*
Y463900D01*
X259220D01*
Y471170D01*
D02*
G37*
G36*
X260700Y518920D02*
X254430D01*
Y501650D01*
X260700D01*
Y518920D01*
D02*
G37*
G36*
X251890D02*
X245620D01*
Y501650D01*
X251890D01*
Y518920D01*
D02*
G37*
G36*
X260700Y499110D02*
X254430D01*
Y481840D01*
X260700D01*
Y499110D01*
D02*
G37*
G36*
X251890D02*
X245620D01*
Y481840D01*
X251890D01*
Y499110D01*
D02*
G37*
G36*
X159518Y530086D02*
X154248D01*
Y527546D01*
X159518D01*
Y530086D01*
D02*
G37*
G36*
X128360Y524764D02*
X122540D01*
Y517394D01*
X128360D01*
Y524764D01*
D02*
G37*
G36*
X159518Y512929D02*
X158903Y511964D01*
X157998Y509684D01*
X157544Y507316D01*
X159518D01*
Y512929D01*
D02*
G37*
G36*
X128240Y509494D02*
X122420D01*
Y502124D01*
X128240D01*
Y509494D01*
D02*
G37*
G36*
X159518Y504776D02*
X157544D01*
X157997Y502411D01*
X158902Y500131D01*
X159518Y499163D01*
Y504776D01*
D02*
G37*
G36*
X128240Y499584D02*
X122420D01*
Y492214D01*
X128240D01*
Y499584D01*
D02*
G37*
G36*
X159518Y484546D02*
X154248D01*
Y482006D01*
X159518D01*
Y484546D01*
D02*
G37*
G36*
X159998Y468767D02*
Y467316D01*
X161449D01*
X161271Y467745D01*
X160427Y468589D01*
X159998Y468767D01*
D02*
G37*
G36*
X157458D02*
X157029Y468589D01*
X156185Y467745D01*
X156007Y467316D01*
X157458D01*
Y468767D01*
D02*
G37*
G36*
X161449Y464776D02*
X159998D01*
Y463325D01*
X160427Y463503D01*
X161271Y464347D01*
X161449Y464776D01*
D02*
G37*
G36*
X157458D02*
X156007D01*
X156185Y464347D01*
X157029Y463503D01*
X157458Y463325D01*
Y464776D01*
D02*
G37*
G36*
X181610Y448958D02*
X174340D01*
Y442688D01*
X181610D01*
Y448958D01*
D02*
G37*
G36*
X444580Y202447D02*
X440040D01*
Y198603D01*
X440720D01*
X442199Y198897D01*
X443452Y199735D01*
X444290Y200988D01*
X444580Y202447D01*
D02*
G37*
G36*
X437500D02*
X432960D01*
X433250Y200988D01*
X434088Y199735D01*
X435341Y198897D01*
X436820Y198603D01*
X437500D01*
Y202447D01*
D02*
G37*
%LPD*%
D11*
X41509Y13196D02*
X263762D01*
X22436Y32269D02*
X41509Y13196D01*
X346562Y57806D02*
X400027D01*
X301950Y13193D02*
X346562Y57806D01*
X400027D02*
X407040Y64819D01*
Y124842D01*
X414528Y363380D02*
X414639Y363269D01*
Y345861D02*
X414750Y345750D01*
X414639Y345861D02*
Y363269D01*
X362750Y310746D02*
X382246Y291250D01*
X362750Y310746D02*
Y340250D01*
X350702Y352298D02*
X362750Y340250D01*
X35638Y24814D02*
X198944D01*
X99544Y34456D02*
X110500D01*
X97875Y36125D02*
X99544Y34456D01*
X68625Y36125D02*
X97875D01*
X111750Y59000D02*
Y81280D01*
X22436Y32269D02*
Y259627D01*
X26500Y33952D02*
Y226431D01*
Y33952D02*
X35638Y24814D01*
X37193Y32672D02*
X63892D01*
X35705Y34160D02*
X37193Y32672D01*
X35705Y34160D02*
Y80000D01*
X322242Y47854D02*
Y112954D01*
X303332Y28944D02*
X322242Y47854D01*
X312000Y57500D02*
Y57912D01*
X129250Y358684D02*
X130738Y360172D01*
X290830D01*
X129250Y242439D02*
Y358684D01*
X49559Y286750D02*
X120360D01*
X39319Y239250D02*
X59541D01*
X26500Y226431D02*
X39319Y239250D01*
X22436Y259627D02*
X49559Y286750D01*
X63892Y32672D02*
X67720Y36500D01*
X68250D01*
X49465Y80000D02*
X61277Y91812D01*
X35705Y80000D02*
X49465D01*
X35705D02*
Y89645D01*
X36250Y104500D02*
Y131750D01*
X51000Y161467D02*
Y177723D01*
X36250Y96500D02*
Y104500D01*
Y146717D02*
X51000Y161467D01*
X36250Y131750D02*
Y146717D01*
X98250Y131750D02*
X109750Y120250D01*
X36250Y131750D02*
X98250D01*
X320250Y427500D02*
X351927D01*
X313164D02*
X320250D01*
X279240Y472440D02*
Y485300D01*
X322242Y112954D02*
X333250D01*
X216516Y128516D02*
Y170766D01*
X320250Y420414D02*
Y427500D01*
X320204Y420460D02*
X320250Y420414D01*
X320204Y414310D02*
Y420460D01*
X319532Y413638D02*
X320204Y414310D01*
X302136Y413638D02*
X319532D01*
X351927Y427500D02*
X375678Y451251D01*
X301498Y413000D02*
X302136Y413638D01*
X333250Y111500D02*
X334704Y112954D01*
X301498Y352298D02*
Y413000D01*
X306292Y449042D02*
X358982D01*
X297434Y440184D02*
X306292Y449042D01*
X297434Y366776D02*
Y440184D01*
X275019Y465769D02*
Y469469D01*
X240478Y453296D02*
X262546D01*
X275019Y469469D02*
X277990Y472440D01*
X262546Y453296D02*
X275019Y465769D01*
X202912Y509698D02*
Y529338D01*
X197322Y534928D02*
X202912Y529338D01*
X115563Y534928D02*
X197322D01*
X190306Y437306D02*
X201226Y448226D01*
X149544Y437306D02*
X190306D01*
X202043Y443296D02*
X207478D01*
X201226Y448226D02*
X205748D01*
X189525Y430777D02*
X202043Y443296D01*
X182709Y430777D02*
X189525D01*
X236000Y532988D02*
X252308Y549296D01*
X236000Y479068D02*
Y532988D01*
X228790Y471858D02*
X236000Y479068D01*
X117000Y483000D02*
X128782D01*
X110500Y489500D02*
Y529865D01*
Y489500D02*
X117000Y483000D01*
X106436Y486642D02*
Y497469D01*
X107536Y474714D02*
Y485542D01*
X110500Y529865D02*
X115563Y534928D01*
X106436Y486642D02*
X107536Y485542D01*
X91500Y512405D02*
X106436Y497469D01*
X263762Y13196D02*
X264891Y14326D01*
X272891D02*
X274023Y13193D01*
X264891Y14326D02*
X272891D01*
X274023Y13193D02*
X301950D01*
X334704Y112954D02*
X351387D01*
X232750Y39044D02*
X242850Y28944D01*
X303332D01*
X122251Y241188D02*
X125186Y244123D01*
X118000Y464750D02*
X125186Y457564D01*
X123935Y237124D02*
X129250Y242439D01*
X125186Y244123D02*
Y457564D01*
X134250Y278500D02*
Y295000D01*
X140738Y352298D02*
X294273D01*
X216750Y171000D02*
X226750Y181000D01*
X125618Y233060D02*
X139250Y246692D01*
Y350810D02*
X140738Y352298D01*
X216516Y170766D02*
X216750Y171000D01*
X139250Y246692D02*
Y350810D01*
X192000Y295250D02*
X216500D01*
X174500D02*
X192000D01*
X220250Y253250D02*
Y254916D01*
X226642Y261308D02*
Y285108D01*
X220250Y254916D02*
X226642Y261308D01*
X150172Y286250D02*
X165500D01*
X174500Y295250D01*
X336000Y223000D02*
Y243250D01*
X348000Y255250D02*
X362500D01*
X336000Y243250D02*
X348000Y255250D01*
X326480Y218510D02*
X331510D01*
X336000Y223000D01*
X326450Y218480D02*
X326480Y218510D01*
X369906Y136042D02*
X371882Y134066D01*
X397816D01*
X407040Y124842D01*
X245322Y268400D02*
X245622D01*
X248250Y255662D02*
Y265772D01*
X249898Y253628D02*
Y254014D01*
X242242Y271480D02*
Y271780D01*
X248250Y255662D02*
X249898Y254014D01*
X242242Y271480D02*
X245322Y268400D01*
X245622D02*
X248250Y265772D01*
X249750Y253480D02*
Y253750D01*
X192000Y295250D02*
X192070Y295180D01*
Y251770D02*
Y295180D01*
X216500Y295250D02*
X226642Y285108D01*
X172614Y98636D02*
X173500Y97750D01*
X180250D01*
X177718Y109380D02*
X179338Y111000D01*
X175359Y109380D02*
X177718D01*
X251025Y423775D02*
X261087D01*
X261112Y423800D01*
X251000Y423750D02*
X251025Y423775D01*
X84784Y81312D02*
X84974Y81122D01*
Y76599D02*
Y81122D01*
Y76599D02*
X85000Y76573D01*
Y74500D02*
Y76573D01*
X95284Y87812D02*
X95346Y87750D01*
X103000D01*
X110393Y81280D02*
X111750D01*
X108905Y82768D02*
X110393Y81280D01*
X108905Y82768D02*
Y94324D01*
X95284Y95812D02*
X107417D01*
X108905Y94324D01*
X111750Y81000D02*
X122500D01*
X61277Y91812D02*
X66284D01*
X43069Y185655D02*
Y217030D01*
X187750Y63000D02*
X189750D01*
X190380Y62370D01*
X210820D01*
X68250Y36500D02*
X68625Y36125D01*
X185750Y63000D02*
X187750D01*
X176964Y54214D02*
X185750Y63000D01*
X176964Y42762D02*
Y54214D01*
X168657Y34456D02*
X176964Y42762D01*
X43069Y217030D02*
X63163Y237124D01*
X123935D01*
X35705Y89645D02*
X36250Y90190D01*
Y96500D01*
X110500Y34456D02*
X168657D01*
X111208Y40708D02*
X111500Y41000D01*
X111208Y35164D02*
Y40708D01*
X110500Y34456D02*
X111208Y35164D01*
X122500Y81000D02*
X142983D01*
X143452Y81469D01*
X43069Y185655D02*
X51000Y177723D01*
X147670Y120250D02*
X157834Y110086D01*
X109750Y120250D02*
X147670D01*
X358982Y449042D02*
X364735Y454795D01*
X368380D02*
X374084Y460500D01*
X364735Y454795D02*
X368380D01*
X376264Y511466D02*
X379072Y508658D01*
X372558Y511466D02*
X376264D01*
X372478Y511546D02*
X372558Y511466D01*
X374084Y460500D02*
X375750D01*
X379072Y497309D02*
Y508658D01*
X366956Y485193D02*
X379072Y497309D01*
X366956Y468294D02*
Y485193D01*
Y468294D02*
X374084Y461166D01*
Y460500D02*
Y461166D01*
X290830Y360172D02*
X297434Y366776D01*
X54980Y253982D02*
X67742D01*
X46250Y262712D02*
X54980Y253982D01*
X46250Y262712D02*
Y276000D01*
X66980Y253982D02*
X67742D01*
X58250Y262712D02*
X66980Y253982D01*
X58250Y262712D02*
Y276750D01*
X67742Y253982D02*
X85270D01*
X94000Y262712D01*
Y277250D01*
X80250Y258902D02*
Y277000D01*
X387993Y397492D02*
X414031D01*
X368708Y551792D02*
X369000Y551500D01*
X414031Y397492D02*
X414274Y397735D01*
X387750Y397250D02*
X387993Y397492D01*
X381382Y354330D02*
X381441Y354271D01*
X355032Y551792D02*
X368708D01*
X362000Y523000D02*
X362292Y522708D01*
X352778Y554046D02*
X355032Y551792D01*
X362292Y509794D02*
Y522708D01*
Y509532D02*
X362778Y509046D01*
X362292Y509532D02*
Y509794D01*
X395256Y274296D02*
X395668D01*
X381441Y343059D02*
X381500Y343000D01*
X381441Y343059D02*
Y354271D01*
X394464Y273503D02*
X395256Y274296D01*
X380503Y273503D02*
X394464D01*
X396823Y255111D02*
X396962Y254972D01*
X380500Y273500D02*
X380503Y273503D01*
X315692Y292250D02*
X329000D01*
X315378Y273000D02*
X329000D01*
X380139Y255111D02*
X396823D01*
X380000Y255250D02*
X380139Y255111D01*
X368148Y172618D02*
X368214Y172684D01*
X378154D02*
X378838Y172000D01*
X368214Y172684D02*
X378154D01*
X326450Y203480D02*
Y208480D01*
X342269Y202100D02*
X343300D01*
X338649Y198480D02*
X342269Y202100D01*
X326450Y198480D02*
Y203480D01*
Y198480D02*
X338649D01*
X378838Y172000D02*
X379250D01*
X369815Y153913D02*
X379837D01*
X380000Y153750D01*
X368032Y119750D02*
X379500D01*
X369652Y154076D02*
X369815Y153913D01*
X368012Y119579D02*
Y119730D01*
X368032Y119750D01*
X383292Y80042D02*
X385250Y82000D01*
X373042Y80042D02*
X383292D01*
X351387Y102954D02*
Y107954D01*
X372750Y79750D02*
X373042Y80042D01*
X343500Y106000D02*
X346546Y102954D01*
X351387D01*
X335458Y75792D02*
Y89292D01*
X333250Y91500D02*
X335458Y89292D01*
Y75792D02*
X335750Y75500D01*
X224142Y505968D02*
Y519392D01*
X224250Y519500D01*
X225900Y479988D02*
Y488950D01*
X224412Y478500D02*
X225900Y479988D01*
X221000Y478500D02*
X224412D01*
X183381Y467227D02*
X190273D01*
X222089Y456806D02*
X222488D01*
X199204Y458296D02*
X207478D01*
X190273Y467227D02*
X199204Y458296D01*
X246614Y378886D02*
Y388160D01*
X246478Y388296D02*
X246614Y388160D01*
Y378886D02*
X246750Y378750D01*
X249750Y253480D02*
X254750Y248480D01*
X257750D01*
X198728Y388296D02*
X198864Y388160D01*
X187864Y413614D02*
Y421432D01*
X187978Y421546D01*
X187750Y413500D02*
X187864Y413614D01*
X198864Y373886D02*
X199000Y373750D01*
X198864Y373886D02*
Y388160D01*
X183708Y476458D02*
X184000Y476750D01*
X183708Y468556D02*
Y476458D01*
X182880Y467728D02*
X183708Y468556D01*
X182880Y467728D02*
X183381Y467227D01*
X171724Y400792D02*
X171728Y400796D01*
X161042Y400792D02*
X171724D01*
X160750Y400500D02*
X161042Y400792D01*
X183288Y318786D02*
X183326Y318824D01*
X183288Y306038D02*
Y318786D01*
X183250Y306000D02*
X183288Y306038D01*
X169750Y280250D02*
X169901Y280099D01*
X180713D02*
X180864Y279948D01*
X169901Y280099D02*
X180713D01*
X182088Y260224D02*
X182364Y259948D01*
X171026Y260224D02*
X182088D01*
X181344Y241496D02*
X181348Y241492D01*
X170254Y241496D02*
X181344D01*
X170750Y260500D02*
X171026Y260224D01*
X170250Y241500D02*
X170254Y241496D01*
X68500Y254740D02*
Y276750D01*
X182352Y223496D02*
X182598Y223742D01*
X182290Y205933D02*
X182473Y206117D01*
X170496Y223496D02*
X182352D01*
X171183Y205933D02*
X182290D01*
X170250Y223250D02*
X170496Y223496D01*
X171000Y205750D02*
X171183Y205933D01*
X308864Y61048D02*
X312000Y57912D01*
X308864Y61048D02*
Y80772D01*
X172786Y63988D02*
X179798Y71000D01*
X187750D01*
X167718Y63988D02*
X172786D01*
X164230Y63480D02*
X167210D01*
X167718Y63988D01*
X163750Y63000D02*
X164230Y63480D01*
X94009Y213360D02*
X94399Y213750D01*
X106000D01*
X88090Y205566D02*
X94009Y211485D01*
Y213360D01*
X75991Y205566D02*
X88090D01*
X61426Y206406D02*
X61434Y206398D01*
X75159D01*
X75991Y205566D01*
X54226Y206350D02*
X57696D01*
X52324Y204448D02*
X54226Y206350D01*
X52324Y188022D02*
X53940Y186406D01*
X52324Y188022D02*
Y204448D01*
X53940Y186406D02*
X61426D01*
X66708Y108066D02*
Y121708D01*
X67000Y122000D01*
X66454Y107812D02*
X66708Y108066D01*
X66284Y107812D02*
X66454D01*
X76980Y474742D02*
X84950Y482712D01*
Y495804D02*
X88450Y499304D01*
X66252Y474742D02*
X76980D01*
X84950Y482712D02*
Y495804D01*
X88450Y499304D02*
Y500854D01*
X86440Y498844D02*
X88450Y500854D01*
X86440Y498844D02*
X88450Y500854D01*
X86440Y498844D02*
X88450Y500854D01*
X211170Y37040D02*
Y38040D01*
X214900Y41770D01*
X198944Y24814D02*
X211170Y37040D01*
X214900Y41770D02*
X215900D01*
X194980D02*
X214900D01*
X128782Y483000D02*
X131782Y480000D01*
X132000D01*
X150750Y391500D02*
X184762D01*
X148056Y394194D02*
X150750Y391500D01*
X186250Y392988D02*
Y403451D01*
X184762Y391500D02*
X186250Y392988D01*
X148056Y394194D02*
Y435818D01*
Y463944D01*
X132000Y480000D02*
X148056Y463944D01*
X91500Y512405D02*
Y523104D01*
X88570Y526034D02*
X91500Y523104D01*
X88570Y526034D02*
Y535131D01*
X121270Y500974D02*
Y526034D01*
X121150Y500854D02*
Y502404D01*
X88570Y535131D02*
X97761Y544322D01*
X107536Y474714D02*
X117500Y464750D01*
X302004Y515110D02*
X320940Y534046D01*
X352778D01*
X199000Y111000D02*
X216516Y128516D01*
X363000Y273500D02*
Y290496D01*
X362246Y291250D02*
X363000Y290496D01*
X358762Y269262D02*
X363000Y273500D01*
X358762Y258988D02*
Y269262D01*
Y258988D02*
X362500Y255250D01*
X301498Y352298D02*
X350702D01*
X375678Y451251D02*
X392262D01*
X393750Y452739D02*
Y521250D01*
X392262Y451251D02*
X393750Y452739D01*
X59541Y239250D02*
X61479Y241188D01*
X122251D01*
X214047Y416047D02*
Y431727D01*
X194389Y411590D02*
X209590D01*
X214047Y416047D01*
X233978Y466821D02*
X234203D01*
X233753D02*
X233978D01*
Y467046D01*
Y464796D02*
Y466821D01*
X233753D02*
X233978Y467046D01*
X234416Y467034D02*
Y467484D01*
X243250Y476318D02*
Y488093D01*
X234416Y467484D02*
X243250Y476318D01*
X234203Y466821D02*
X234416Y467034D01*
X148056Y435818D02*
X149544Y437306D01*
X117750Y464500D02*
X118000Y464750D01*
X117750Y464500D02*
X117750D01*
X186250Y403451D02*
X194389Y411590D01*
X179750Y111000D02*
X199000D01*
X232750Y132750D02*
X237750Y137750D01*
X232750Y39044D02*
Y132750D01*
X237750Y137750D02*
Y148393D01*
X252000Y162643D01*
Y180500D01*
X73769Y160830D02*
X195049D01*
X205415Y171196D01*
X52193Y182406D02*
X73769Y160830D01*
X226750Y181000D02*
X235250D01*
X351387Y112954D02*
X357546D01*
X362755Y105398D02*
Y107745D01*
X357546Y112954D02*
X362755Y107745D01*
X364243Y103910D02*
X367596D01*
X362755Y105398D02*
X364243Y103910D01*
X367596D02*
X368532Y102974D01*
X67386Y537346D02*
X68437D01*
X63480Y533440D02*
X67386Y537346D01*
X68437D02*
X75413Y544322D01*
X97761D01*
X205415Y171196D02*
X216282D01*
X333250Y100782D02*
Y111500D01*
X334738Y99294D02*
X338943D01*
X333250Y100782D02*
X334738Y99294D01*
X87678Y221154D02*
X137831D01*
X144037Y214948D01*
X81759Y215235D02*
X87678Y221154D01*
X64846Y233060D02*
X125618D01*
X380954Y534046D02*
X393750Y521250D01*
X352778Y534046D02*
X380954D01*
X294273Y330454D02*
Y352298D01*
X301498D01*
X47133Y215347D02*
X64846Y233060D01*
X121150Y500854D02*
X121270Y500974D01*
X126342Y506046D02*
X152978D01*
X121150Y502404D02*
X124430Y505684D01*
X125980D01*
X126342Y506046D01*
X202912Y509698D02*
X206642Y505968D01*
X174546Y450228D02*
X182880D01*
X47547Y210414D02*
X57696D01*
X47133Y210000D02*
X47547Y210414D01*
X47133Y210000D02*
Y215347D01*
Y187466D02*
X52193Y182406D01*
X47133Y187466D02*
Y210000D01*
X311234Y112954D02*
X322242D01*
X261656Y224386D02*
X262827D01*
X261951Y238450D02*
X264844Y235557D01*
Y226404D02*
Y235557D01*
X260750Y223480D02*
X261656Y224386D01*
X262827D02*
X264844Y226404D01*
X257750Y223480D02*
X260750D01*
X257780Y238450D02*
X261951D01*
X192070Y251770D02*
X201348Y242492D01*
Y240492D02*
Y242492D01*
X237750Y253250D02*
X239016Y251984D01*
X239382D01*
X243112Y248254D01*
X247922D01*
X252666Y243510D01*
X257720D01*
X257750Y243480D01*
X182880Y450228D02*
X185948Y453296D01*
X207478D01*
X81759Y213360D02*
Y215235D01*
X351349Y94666D02*
X351399Y94716D01*
X352524D02*
X353012Y95204D01*
X343532Y94666D02*
X351349D01*
X353012Y95204D02*
Y96329D01*
X351399Y94716D02*
X352524D01*
X243250Y488093D02*
X244143Y488986D01*
X248922D01*
X384316Y102934D02*
X385250Y102000D01*
X369657Y102934D02*
X384316D01*
X369637Y102954D02*
X369657Y102934D01*
X342044Y96154D02*
X343532Y94666D01*
X342044Y96154D02*
Y96193D01*
X338943Y99294D02*
X342044Y96193D01*
X308864Y115323D02*
X311234Y112954D01*
X308864Y115323D02*
Y121412D01*
X352778Y516626D02*
X352858Y516546D01*
X352778Y516626D02*
Y534046D01*
X352858Y516546D02*
X353078D01*
X278890Y515110D02*
X302004D01*
X275160Y489380D02*
X279240Y485300D01*
X275160Y511380D02*
X278890Y515110D01*
X275160Y500380D02*
Y511380D01*
Y489380D02*
Y500380D01*
X257750Y238480D02*
X257780Y238450D01*
X220332Y238480D02*
X257750D01*
X220178Y223480D02*
X257750D01*
X200864Y260948D02*
Y279948D01*
X199864Y259948D02*
X200864Y260948D01*
X199864Y258948D02*
Y259948D01*
Y258948D02*
X220332Y238480D01*
X144037Y214948D02*
X192142D01*
X207048Y210350D02*
X220178Y223480D01*
X203703Y210350D02*
X207048D01*
X199973Y206117D02*
Y206620D01*
X203703Y210350D01*
X192142Y214948D02*
X199973Y207117D01*
Y206620D02*
Y207117D01*
X61280Y533440D02*
X63480D01*
X187750Y47000D02*
Y55000D01*
Y47000D02*
X189750D01*
X194980Y41770D01*
X209122Y232718D02*
X253988D01*
X253844Y227574D02*
X254720Y228450D01*
X201348Y240492D02*
X209122Y232718D01*
X203828Y227574D02*
X253844D01*
X257720Y228450D02*
X257750Y228480D01*
X254720Y228450D02*
X257720D01*
X254750Y233480D02*
X257750D01*
X253988Y232718D02*
X254750Y233480D01*
X200098Y223742D02*
Y223844D01*
X203828Y227574D01*
X225466Y471858D02*
X228790D01*
X223978Y464796D02*
Y470370D01*
X225466Y471858D01*
X152978Y471796D02*
X158728Y466046D01*
X152978Y471796D02*
Y506046D01*
X172728Y420796D02*
X182709Y430777D01*
X205818Y438296D02*
X207478D01*
X203978Y436456D02*
X205818Y438296D01*
X203978Y421546D02*
Y436456D01*
X171728Y420796D02*
X172728D01*
X248922Y488986D02*
Y496142D01*
X257978Y562546D02*
X269353Y551171D01*
X234228Y562546D02*
X257978D01*
X252308Y549296D02*
X269353D01*
Y551171D01*
X248922Y496142D02*
X253160Y500380D01*
D13*
X204750Y18022D02*
X205114Y18386D01*
X209016D01*
X11750Y37926D02*
X40036Y9640D01*
X269360D01*
X209016Y18386D02*
X214900Y24270D01*
X269637Y9637D02*
X303423D01*
X348035Y54250D01*
X401500D02*
X411250Y64000D01*
X398554Y61362D02*
X403484Y66292D01*
X348035Y54250D02*
X401500D01*
X300477Y16749D02*
X345089Y61362D01*
X398554D01*
X344167Y64750D02*
X397000D01*
X304805Y25388D02*
X344167Y64750D01*
X397000D02*
X400436Y68186D01*
X403484Y66292D02*
Y112471D01*
X411250Y64000D02*
Y150750D01*
X400436Y68186D02*
Y107267D01*
X379000Y183000D02*
X411250Y150750D01*
X111497Y203869D02*
Y204247D01*
X110500Y202185D02*
Y202873D01*
X111497Y203869D01*
Y204247D02*
X123000Y215750D01*
X454500Y570000D02*
Y584750D01*
X452320Y586930D02*
X454500Y584750D01*
X109711Y45318D02*
X115704D01*
X108857Y44464D02*
X109711Y45318D01*
X94621Y44464D02*
X108857D01*
X93585Y45500D02*
X94621Y44464D01*
X75250Y45500D02*
X93585D01*
X111202Y51798D02*
X117845D01*
X88784Y74216D02*
X111202Y51798D01*
X11750Y37926D02*
Y542750D01*
X65728Y55022D02*
Y65500D01*
Y55022D02*
X75250Y45500D01*
X49250Y46250D02*
X58000D01*
X316318Y46959D02*
Y94151D01*
X301859Y32500D02*
X316318Y46959D01*
X11750Y542750D02*
X51426Y582426D01*
X75750Y136576D02*
Y147000D01*
Y120836D02*
Y125854D01*
X73482Y118568D02*
X75750Y120836D01*
X274364Y17882D02*
X275496Y16749D01*
X262289Y16752D02*
X263419Y17882D01*
X275496Y16749D02*
X300477D01*
X263419Y17882D02*
X274364D01*
X269360Y9640D02*
X269500Y9500D01*
X269637Y9637D01*
X226146Y30854D02*
X240248Y16752D01*
X277227Y21125D02*
X277285Y21067D01*
X240248Y16752D02*
X262289D01*
X260555Y21125D02*
X277227D01*
X237250Y41368D02*
X246118Y32500D01*
X301859D01*
X238862Y25388D02*
X304805D01*
X229194Y35056D02*
X238862Y25388D01*
X260500Y21070D02*
X260555Y21125D01*
X269860Y36818D02*
X272733Y39691D01*
X282135D01*
X269500Y36818D02*
X269860D01*
X127250Y229250D02*
X142806Y244806D01*
X143699Y347000D02*
X283820D01*
X142806Y346107D02*
X143699Y347000D01*
X132000Y227000D02*
X145854Y240854D01*
Y325607D02*
X146747Y326500D01*
X142806Y244806D02*
Y346107D01*
X146747Y326500D02*
X187400D01*
X145854Y240854D02*
Y325607D01*
X76784Y91812D02*
X80784Y95812D01*
X76784Y81312D02*
Y91812D01*
X326450Y213480D02*
X335020D01*
X280042Y260292D02*
X285250Y265500D01*
X279600Y255330D02*
X280042Y255772D01*
Y260292D01*
X286951Y273451D02*
X295181D01*
X275138Y255868D02*
Y261638D01*
X286951Y273451D01*
X274600Y255330D02*
X275138Y255868D01*
X284250Y277000D02*
Y300457D01*
X270383Y314324D02*
X284250Y300457D01*
X75750Y147000D02*
X84250Y155500D01*
X167490Y102192D02*
X174087D01*
X174143Y102136D02*
X199475D01*
X174087Y102192D02*
X174143Y102136D01*
X199475D02*
X225492Y128153D01*
X198665Y105636D02*
X222444Y129415D01*
X167434Y105636D02*
X198665D01*
X175115Y109136D02*
X175359Y109380D01*
X167434Y109136D02*
X175115D01*
X167434Y98636D02*
X172614D01*
X167434Y102136D02*
X167490Y102192D01*
X193250Y129000D02*
X201712Y120538D01*
X177750Y129000D02*
X193250D01*
X221342Y114014D02*
X221828Y114500D01*
X218014Y114014D02*
X221342D01*
X213250Y109250D02*
X218014Y114014D01*
X241077Y439056D02*
X246478Y433655D01*
X238988Y439056D02*
X241077D01*
X246478Y404296D02*
Y433655D01*
X95316Y91780D02*
X98808D01*
X98840Y91748D01*
X95284Y91812D02*
X95316Y91780D01*
X132289Y98000D02*
X145303D01*
X130477Y99812D02*
X132289Y98000D01*
X95284Y99812D02*
X130477D01*
X95284Y103812D02*
X95538Y104066D01*
X104986Y108966D02*
X132842D01*
X95538Y104066D02*
X100085D01*
X104986Y108966D01*
X153037Y105900D02*
X153853D01*
X153929Y105824D02*
X157346D01*
X157534Y105636D01*
X132842Y108966D02*
X149971D01*
X153853Y105900D02*
X153929Y105824D01*
X149971Y108966D02*
X153037Y105900D01*
X72784Y68730D02*
Y81312D01*
X89763Y51750D02*
X98250D01*
X81274Y60240D02*
X89763Y51750D01*
X81274Y60240D02*
X81274Y60240D01*
X72784Y68730D02*
X81274Y60240D01*
X161750Y79000D02*
X163750D01*
X152702Y69952D02*
X161750Y79000D01*
X98250Y51750D02*
X101250Y48750D01*
X116583D02*
X119199Y46134D01*
X101250Y48750D02*
X116583D01*
X152702Y51202D02*
Y69952D01*
X147634Y46134D02*
X152702Y51202D01*
X119199Y46134D02*
X147634D01*
X149439Y102136D02*
X157534D01*
X145303Y98000D02*
X149439Y102136D01*
X195271Y88591D02*
X200660Y93980D01*
X195271Y84521D02*
Y88591D01*
X189750Y79000D02*
X195271Y84521D01*
X187750Y79000D02*
X189750D01*
X154464Y78249D02*
Y86447D01*
X159053Y91036D01*
X173714D01*
X185750Y79000D01*
X187750D01*
X148216Y72000D02*
X154464Y78249D01*
X138714Y72000D02*
X148216D01*
X135166Y68452D02*
X138714Y72000D01*
X88784Y74216D02*
Y81312D01*
X135166Y57559D02*
Y68452D01*
X126789Y49182D02*
X135166Y57559D01*
X120461Y49182D02*
X126789D01*
X117845Y51798D02*
X120461Y49182D01*
X65728Y70675D02*
X68784Y73731D01*
Y81312D01*
X161750Y71000D02*
X163750D01*
X65728Y65500D02*
Y70675D01*
X155750Y65000D02*
X161750Y71000D01*
X117936Y43086D02*
X148897D01*
X115704Y45318D02*
X117936Y43086D01*
X148897D02*
X155750Y49939D01*
Y65000D01*
X292481Y144902D02*
X302895Y134488D01*
Y107574D02*
Y134488D01*
Y107574D02*
X316318Y94151D01*
X237250Y114424D02*
X237576Y114750D01*
X237250Y41368D02*
Y114424D01*
X177000Y128250D02*
X177750Y129000D01*
X110722Y128250D02*
X177000D01*
X92784Y110312D02*
Y112852D01*
X101764Y119014D02*
X102250Y119500D01*
X98946Y119014D02*
X101764D01*
X92784Y112852D02*
X98946Y119014D01*
X289600Y150150D02*
Y186630D01*
Y150150D02*
X292481Y147269D01*
Y144902D02*
Y147269D01*
X53580Y75648D02*
X53621D01*
X59426Y81453D01*
Y84759D01*
X62225Y87558D01*
X66030D01*
X66284Y87812D01*
X51531Y73599D02*
X53580Y75648D01*
X49000Y63500D02*
X51531Y66031D01*
Y73599D01*
X375750Y480500D02*
X375770Y480520D01*
X388330D01*
X362778Y509046D02*
Y509308D01*
X362292Y509794D02*
X362778Y509308D01*
X353078Y511546D02*
X360540D01*
X333528Y523546D02*
X345778Y511296D01*
X332528Y523546D02*
X333528D01*
X352828Y511296D02*
X353078Y511546D01*
X360540D02*
X362292Y509794D01*
X345778Y511296D02*
X352828D01*
X315308Y291866D02*
X315692Y292250D01*
X315054Y273324D02*
X315378Y273000D01*
X316013Y170750D02*
X316205Y170942D01*
X329000Y153250D02*
Y162261D01*
X328955Y162306D02*
X329000Y162261D01*
X259240Y471440D02*
Y472440D01*
X246096Y458296D02*
X259240Y471440D01*
X240478Y458296D02*
X246096D01*
X110689Y545000D02*
X124000D01*
X117359Y573391D02*
X117500Y573250D01*
X108829Y573391D02*
X117359D01*
X116916Y560916D02*
X117000Y561000D01*
X110011Y544322D02*
X110689Y545000D01*
X61420Y576000D02*
X77000D01*
X108598Y573622D02*
X108829Y573391D01*
X108592Y560916D02*
X116916D01*
X61280Y576140D02*
X61420Y576000D01*
X108508Y560832D02*
X108592Y560916D01*
X60480Y520340D02*
X61280Y521140D01*
X60480Y505440D02*
Y520340D01*
X307750Y170750D02*
X316013D01*
X151784Y95486D02*
X154934Y98636D01*
X157534D01*
X213500Y82550D02*
Y89250D01*
X210820Y79870D02*
X213500Y82550D01*
X187750Y71000D02*
X198500D01*
X214900Y24270D02*
X215900D01*
X149736Y95486D02*
X151784D01*
X149250Y95000D02*
X149736Y95486D01*
X143452Y63969D02*
X144000Y63421D01*
Y53750D02*
Y63421D01*
X77047Y184108D02*
X77345Y184405D01*
X84784Y110312D02*
Y116322D01*
X84250Y116856D02*
X84784Y116322D01*
X84250Y116856D02*
Y121500D01*
X61426Y186406D02*
X69966D01*
X72265Y184108D02*
X77047D01*
X69966Y186406D02*
X72265Y184108D01*
X84784Y110312D02*
X88784D01*
X95284Y87812D02*
Y91812D01*
X80784Y110312D02*
X84784D01*
X76784D02*
X80784D01*
X122250Y53500D02*
Y63250D01*
X122500Y63500D01*
X80784Y81312D02*
X84784D01*
X76784D02*
X80784D01*
X46750Y96000D02*
X47250Y96500D01*
X47938Y95812D02*
X66284D01*
X47250Y96500D02*
X47938Y95812D01*
X46750Y88500D02*
Y96000D01*
X49000Y46000D02*
X49250Y46250D01*
X72784Y110312D02*
Y112852D01*
X73482Y113550D01*
Y118568D01*
X110750Y178750D02*
Y184000D01*
X123000Y215750D02*
X132000D01*
X84250Y155500D02*
X91000D01*
X98500Y166500D02*
X110750Y178750D01*
X91000Y166500D02*
X98500D01*
X229250Y314500D02*
X229426Y314324D01*
X270383D01*
X229074D02*
X229250Y314500D01*
X199576Y314324D02*
X229074D01*
X187400Y326500D02*
X199576Y314324D01*
X47250Y104500D02*
X48988Y102762D01*
X55776D01*
X58726Y99812D01*
X66284D01*
X47250Y104500D02*
X47750D01*
X51816Y108566D01*
Y116332D01*
X223692Y431510D02*
X223978Y431796D01*
X223692Y388296D02*
Y431510D01*
X230478Y404296D02*
Y426053D01*
X232464Y428039D02*
Y428665D01*
X233357Y429558D02*
X233540D01*
X233978Y429996D02*
Y431796D01*
X230478Y426053D02*
X232464Y428039D01*
Y428665D02*
X233357Y429558D01*
X233540D02*
X233978Y429996D01*
X230478Y375569D02*
X235047Y371000D01*
X230478Y375569D02*
Y388296D01*
X214478D02*
X223692D01*
X230478D01*
X296164Y110541D02*
X298419Y108286D01*
Y107469D02*
Y108286D01*
X298576Y98167D02*
X302133Y94610D01*
Y66934D02*
Y94610D01*
X298576Y40132D02*
Y63377D01*
X298419Y107469D02*
X298576Y107311D01*
Y98167D02*
Y107311D01*
Y63377D02*
X302133Y66934D01*
X226146Y30854D02*
Y128153D01*
Y128835D01*
X229194Y35056D02*
Y134223D01*
X225492Y128181D02*
X226146Y128835D01*
Y149820D01*
X225492Y128153D02*
Y128181D01*
X221828Y142308D02*
X222444D01*
Y129415D02*
Y142308D01*
X222971Y151730D02*
X223068Y151827D01*
X222444Y142311D02*
X222930Y142797D01*
X226146Y149820D02*
X232282Y155956D01*
X222930Y144430D02*
X222971Y144471D01*
X222930Y142797D02*
Y144430D01*
X222971Y144471D02*
Y151730D01*
X275740Y459740D02*
X320040D01*
X264296Y448296D02*
X275740Y459740D01*
X240478Y448296D02*
X264296D01*
X414274Y409985D02*
Y421226D01*
X399500Y436000D02*
X414274Y421226D01*
X256585Y388665D02*
X262359D01*
X253264Y391986D02*
Y397510D01*
X262359Y388665D02*
X262478Y388546D01*
X253264Y391986D02*
X256585Y388665D01*
X246478Y404296D02*
X253264Y397510D01*
X246478Y404296D02*
Y404296D01*
X237524Y375143D02*
Y397250D01*
X238417Y374250D02*
X264000D01*
X230478Y404296D02*
X237524Y397250D01*
Y375143D02*
X238417Y374250D01*
X396776Y409914D02*
X410552D01*
X336776Y404128D02*
Y409914D01*
X330286Y397638D02*
X336776Y404128D01*
X396776Y354936D02*
Y372914D01*
X336776Y409914D02*
X396776D01*
X336776Y372914D02*
X396776D01*
Y354936D02*
X397382Y354330D01*
X319532Y397638D02*
X330286D01*
X410623Y409985D02*
X412399D01*
X410552Y409914D02*
X410623Y409985D01*
X348902Y154826D02*
Y172618D01*
Y154826D02*
X349652Y154076D01*
X348902Y172618D02*
X350648D01*
X348898Y174368D02*
X349523Y173743D01*
X350648Y172618D01*
X349156Y136792D02*
Y146682D01*
Y136792D02*
X349906Y136042D01*
X348902Y146936D02*
Y153326D01*
X349652Y154076D01*
X348902Y146936D02*
X349156Y146682D01*
X338864Y174368D02*
X348898D01*
X304600Y183630D02*
Y186630D01*
X303186Y182216D02*
X304600Y183630D01*
X303186Y181764D02*
Y182216D01*
X303000Y181578D02*
X303186Y181764D01*
X303000Y165928D02*
Y181578D01*
Y165928D02*
X321178Y147750D01*
X335000D01*
X337971Y150721D01*
Y173475D01*
X338864Y174368D01*
X321031Y183000D02*
X379000D01*
X320939Y183092D02*
X321031Y183000D01*
X316014Y181764D02*
X317826Y179952D01*
X311014Y181764D02*
X315874Y176904D01*
X319826D02*
X321920Y174810D01*
X319600Y183630D02*
Y186630D01*
X320138Y183092D02*
X320939D01*
X326295Y179952D02*
X328955Y177292D01*
X319600Y183630D02*
X320138Y183092D01*
X317826Y179952D02*
X326295D01*
X315874Y176904D02*
X319826D01*
X328955Y170942D02*
Y177292D01*
X397388Y110315D02*
X400436Y107267D01*
X402591Y113363D02*
X403484Y112471D01*
X379534Y113363D02*
X402591D01*
X396118Y90411D02*
Y104000D01*
X358905Y89518D02*
X395225D01*
X380797Y110315D02*
X397388D01*
X396986Y118986D02*
Y125107D01*
X396500Y118500D02*
X396986Y118986D01*
X395225Y89518D02*
X396118Y90411D01*
X438690Y213797D02*
X438770Y213717D01*
X399500Y436000D02*
Y527107D01*
X335977Y267977D02*
Y295240D01*
X329717Y301500D02*
X335977Y295240D01*
X307491Y301500D02*
X329717D01*
X416149Y409985D02*
X421560Y404574D01*
X421249Y386545D02*
X421560Y386856D01*
X414528Y383380D02*
X417693Y386545D01*
X412399Y409985D02*
X414274D01*
X421560Y386856D02*
Y404574D01*
X417693Y386545D02*
X421249D01*
X414274Y409985D02*
X416149D01*
X294600Y157520D02*
X332541Y119579D01*
X294600Y157520D02*
Y186630D01*
X284600Y150400D02*
Y186630D01*
Y150400D02*
X289250Y145750D01*
Y135433D02*
Y145750D01*
X289433Y82427D02*
Y135250D01*
X289250Y135433D02*
X289433Y135250D01*
Y82427D02*
X291088Y80772D01*
X279781Y135513D02*
Y136513D01*
X283464Y121412D02*
Y131830D01*
X279781Y135513D02*
X283464Y131830D01*
X279600Y136694D02*
X279781Y136513D01*
X279600Y136694D02*
Y186630D01*
X274600Y137383D02*
X276733Y135250D01*
Y82427D02*
Y135250D01*
X213104Y467470D02*
X213978Y466596D01*
X204154Y467470D02*
X213104D01*
X213978Y464279D02*
Y466596D01*
X411783Y213480D02*
X412100Y213797D01*
X282135Y39691D02*
X282576Y40132D01*
X232000Y137029D02*
Y142750D01*
X229194Y134223D02*
X232000Y137029D01*
X246000Y181730D02*
X257750Y193480D01*
X232282Y155956D02*
X240284D01*
X244250Y159922D01*
Y168211D01*
X246000Y169961D01*
Y181730D01*
X233059Y171000D02*
X242013Y179955D01*
Y192264D01*
X257212Y197942D02*
X257750Y198480D01*
X247692Y197942D02*
X257212D01*
X242013Y192264D02*
X247692Y197942D01*
X232750Y171000D02*
X233059D01*
X396093Y126000D02*
X396986Y125107D01*
X331750Y126000D02*
X396093D01*
X379125Y112954D02*
X379534Y113363D01*
X378436Y107954D02*
X380797Y110315D01*
X369637Y112954D02*
X379125D01*
X51426Y582426D02*
X344180D01*
X399500Y527107D01*
X69566Y544012D02*
X77644Y552090D01*
Y552754D02*
X85722Y560832D01*
X77644Y552090D02*
Y552754D01*
X69566Y554012D02*
X77644Y562090D01*
X61280Y553640D02*
X61652Y554012D01*
X69566D01*
X77644Y565454D02*
X85722Y573532D01*
X77644Y562090D02*
Y565454D01*
X223068Y151827D02*
Y161318D01*
X232750Y171000D01*
X296164Y110541D02*
Y121412D01*
X264600Y101287D02*
Y186630D01*
X332541Y119579D02*
X353012D01*
X299600Y158150D02*
X331750Y126000D01*
X82250Y229250D02*
X127250D01*
X67583Y214583D02*
X82250Y229250D01*
X264600Y255330D02*
Y257680D01*
X260833Y258218D02*
X264062D01*
X256184Y262867D02*
Y291139D01*
Y262867D02*
X260833Y258218D01*
X264062D02*
X264600Y257680D01*
X258811Y293766D02*
X263232D01*
X256184Y291139D02*
X258811Y293766D01*
X263232D02*
X267970Y298504D01*
X302589Y320481D02*
X303851D01*
Y305140D02*
Y320481D01*
X302495Y320387D02*
X302589Y320481D01*
X303851Y305140D02*
X307491Y301500D01*
X286052Y320387D02*
X302495D01*
X284713Y321726D02*
Y346107D01*
X295530Y292088D02*
Y308376D01*
X295181Y291739D02*
X295530Y292088D01*
X295181Y273451D02*
Y291739D01*
X269425Y255505D02*
Y272049D01*
X267970Y273504D02*
X269425Y272049D01*
Y255505D02*
X269600Y255330D01*
X284713Y321726D02*
X286052Y320387D01*
X283820Y347000D02*
X284713Y346107D01*
X61603Y214583D02*
X67583D01*
X61426Y214406D02*
X61603Y214583D01*
X141884Y188687D02*
X217582D01*
X141848Y188723D02*
X141884Y188687D01*
X74987Y191771D02*
X143110D01*
X144409Y194783D02*
X215057D01*
X144373Y194819D02*
X144409Y194783D01*
X145671Y197831D02*
X213794D01*
X145635Y197867D02*
X145671Y197831D01*
X72352Y194406D02*
X74987Y191771D01*
X215057Y194783D02*
X233754Y213480D01*
X216320Y191735D02*
X233064Y208480D01*
X76249Y194819D02*
X144373D01*
X77512Y197867D02*
X145635D01*
X143146Y191735D02*
X216320D01*
X217582Y188687D02*
X232375Y203480D01*
X213794Y197831D02*
X234443Y218480D01*
X73724Y188723D02*
X141848D01*
X143110Y191771D02*
X143146Y191735D01*
X72663Y198406D02*
X76249Y194819D01*
X72042Y190406D02*
X73724Y188723D01*
X72973Y202406D02*
X77512Y197867D01*
X61652Y544012D02*
X69566D01*
X61280Y543640D02*
X61652Y544012D01*
X85722Y573532D02*
X92508D01*
X52193Y182406D02*
X61426D01*
X61814Y210794D02*
X66381D01*
X66557Y210970D02*
X72322D01*
X74712Y213360D02*
X81759D01*
X61426Y210406D02*
X61814Y210794D01*
X66381D02*
X66557Y210970D01*
X72322D02*
X74712Y213360D01*
X358012Y90411D02*
X358905Y89518D01*
X358012Y90411D02*
Y96329D01*
X299600Y158150D02*
Y186630D01*
X369637Y107954D02*
X378436D01*
X311530Y308376D02*
Y329198D01*
X312787Y330454D01*
X302734Y261916D02*
X329916D01*
X335977Y267977D01*
X301014Y259761D02*
X301014Y259761D01*
Y260196D01*
X301014Y259744D02*
Y259761D01*
X299600Y258330D02*
X301014Y259744D01*
X299600Y255330D02*
Y258330D01*
X301014Y260196D02*
X302734Y261916D01*
X316014Y181764D02*
Y182216D01*
X314600Y183630D02*
X316014Y182216D01*
X309600Y183630D02*
Y186630D01*
Y183630D02*
X311014Y182216D01*
Y181764D02*
Y182216D01*
X316205Y162306D02*
X316713D01*
X318872Y164465D01*
Y164842D01*
X319765Y165735D01*
X320581D01*
X321920Y167074D01*
Y174810D01*
X314600Y183630D02*
Y186630D01*
X262478Y404546D02*
X269264Y397760D01*
Y379514D02*
Y397760D01*
X276352Y382291D02*
Y423546D01*
X264000Y374250D02*
X269264Y379514D01*
X265061Y371000D02*
X276352Y382291D01*
X235047Y371000D02*
X265061D01*
X276733Y82427D02*
X278388Y80772D01*
X283464D01*
X274600Y137383D02*
Y186630D01*
X270138Y122038D02*
Y186092D01*
X291088Y80772D02*
X296164D01*
X270138Y122038D02*
X270764Y121412D01*
Y80772D02*
X271018Y81026D01*
Y94869D01*
X264600Y101287D02*
X271018Y94869D01*
X269600Y186630D02*
X270138Y186092D01*
X85722Y560832D02*
X92508D01*
X61426Y198406D02*
X72663D01*
X61426Y194406D02*
X72352D01*
X61426Y202406D02*
X72973D01*
X61426Y190406D02*
X72042D01*
X234443Y218480D02*
X257750D01*
X232375Y203480D02*
X257750D01*
X233754Y213480D02*
X257750D01*
X233064Y208480D02*
X257750D01*
X261112Y439800D02*
X261239Y439673D01*
X276225D01*
X276352Y439546D01*
X240478Y443296D02*
X248135D01*
X251631Y439800D01*
X261112D01*
X195048Y476576D02*
X204154Y467470D01*
X186488Y489306D02*
X195048Y480746D01*
Y476576D02*
Y480746D01*
X199076Y334824D02*
X199576Y334324D01*
X183326Y334824D02*
X199076D01*
X334847Y469087D02*
X335280Y469520D01*
X320040Y459740D02*
X329387Y469087D01*
X334847D01*
X335280Y469520D02*
X350520D01*
X198728Y404296D02*
X214478D01*
Y405101D02*
X218978Y409601D01*
Y431796D01*
X214478Y404296D02*
Y405101D01*
X187978Y488546D02*
Y506046D01*
D19*
X452320Y586930D02*
D03*
D20*
X438770Y203717D02*
D03*
D21*
Y213717D02*
D03*
D22*
X95284Y103812D02*
D03*
Y99812D02*
D03*
Y95812D02*
D03*
Y91812D02*
D03*
Y87812D02*
D03*
Y83812D02*
D03*
X66284Y87812D02*
D03*
Y91812D02*
D03*
Y95812D02*
D03*
Y99812D02*
D03*
Y103812D02*
D03*
Y107812D02*
D03*
D23*
X88784Y81312D02*
D03*
X84784D02*
D03*
X80784D02*
D03*
X76784D02*
D03*
X72784D02*
D03*
X68784D02*
D03*
X72784Y110312D02*
D03*
X76784D02*
D03*
X80784D02*
D03*
X84784D02*
D03*
X88784D02*
D03*
X92784D02*
D03*
D24*
X80784Y95812D02*
D03*
D25*
X375750Y460500D02*
D03*
Y480500D02*
D03*
X414528Y363380D02*
D03*
X352778Y554046D02*
D03*
X332528Y523546D02*
D03*
X385250Y82000D02*
D03*
X333250Y91500D02*
D03*
X182880Y467728D02*
D03*
X171728Y402046D02*
D03*
X210820Y79870D02*
D03*
X215900Y24270D02*
D03*
X143452Y63969D02*
D03*
X122500Y63500D02*
D03*
X49000Y46000D02*
D03*
X199576Y314324D02*
D03*
X414528Y383380D02*
D03*
X352778Y534046D02*
D03*
X385250Y102000D02*
D03*
X333250Y111500D02*
D03*
X199576Y334324D02*
D03*
X332528Y503546D02*
D03*
D26*
X143452Y81469D02*
D03*
X210820Y62370D02*
D03*
X122500Y81000D02*
D03*
X49000Y63500D02*
D03*
X171728Y419546D02*
D03*
X182880Y450228D02*
D03*
X215900Y41770D02*
D03*
D27*
X68250Y36500D02*
D03*
X98750Y35250D02*
D03*
Y51250D02*
D03*
X68250Y52500D02*
D03*
X261112Y423800D02*
D03*
X246478Y388296D02*
D03*
X198728Y388296D02*
D03*
X183326Y318824D02*
D03*
X319532Y397638D02*
D03*
Y413638D02*
D03*
X183326Y334824D02*
D03*
X198728Y404296D02*
D03*
X230478D02*
D03*
Y388296D02*
D03*
X276352Y439546D02*
D03*
Y423546D02*
D03*
X350520Y469520D02*
D03*
Y485520D02*
D03*
X335280Y469520D02*
D03*
Y485520D02*
D03*
X214478Y404296D02*
D03*
Y388296D02*
D03*
X261112Y439800D02*
D03*
X246478Y404296D02*
D03*
X262478Y388546D02*
D03*
Y404546D02*
D03*
D28*
X187750Y63000D02*
D03*
X163750Y79000D02*
D03*
X187750D02*
D03*
X163750Y71000D02*
D03*
X187750D02*
D03*
X163750Y63000D02*
D03*
X187750Y87000D02*
D03*
Y55000D02*
D03*
Y47000D02*
D03*
Y39000D02*
D03*
X163750D02*
D03*
Y47000D02*
D03*
Y55000D02*
D03*
Y87000D02*
D03*
D29*
X157834Y109136D02*
D03*
D30*
X372478Y511546D02*
D03*
X353078D02*
D03*
Y516546D02*
D03*
Y506546D02*
D03*
Y501546D02*
D03*
X372478D02*
D03*
Y506546D02*
D03*
Y516546D02*
D03*
D31*
X36250Y96500D02*
D03*
Y104500D02*
D03*
X47250Y96500D02*
D03*
Y104500D02*
D03*
D32*
X157534Y105636D02*
D03*
Y102136D02*
D03*
Y98636D02*
D03*
X167434Y105636D02*
D03*
Y109136D02*
D03*
Y98636D02*
D03*
Y102136D02*
D03*
D33*
X289600Y186630D02*
D03*
X279600Y255330D02*
D03*
X274600Y186630D02*
D03*
X294600D02*
D03*
X284600D02*
D03*
X299600D02*
D03*
X319600D02*
D03*
X279600D02*
D03*
X269600D02*
D03*
Y255330D02*
D03*
X264600D02*
D03*
X274600D02*
D03*
X284600D02*
D03*
X289600D02*
D03*
X294600D02*
D03*
X299600D02*
D03*
X304600D02*
D03*
X309600D02*
D03*
X314600D02*
D03*
X319600D02*
D03*
X314600Y186630D02*
D03*
X309600D02*
D03*
X304600D02*
D03*
D34*
X414274Y397735D02*
D03*
Y409985D02*
D03*
D35*
X381382Y354330D02*
D03*
X187978Y421546D02*
D03*
X108508Y573532D02*
D03*
Y560832D02*
D03*
X282576Y40132D02*
D03*
X298576D02*
D03*
X232750Y171000D02*
D03*
X216750D02*
D03*
X216282Y155956D02*
D03*
X232282D02*
D03*
X397382Y354330D02*
D03*
X295530Y308376D02*
D03*
X311530D02*
D03*
X92508Y573532D02*
D03*
Y560832D02*
D03*
X203978Y421546D02*
D03*
D37*
X380500Y273500D02*
D03*
X380000Y255250D02*
D03*
X368148Y172618D02*
D03*
X369652Y154076D02*
D03*
X224650Y488950D02*
D03*
X224142Y505968D02*
D03*
X315308Y291866D02*
D03*
X313804Y273324D02*
D03*
X182364Y259948D02*
D03*
X180864Y279948D02*
D03*
X182598Y223742D02*
D03*
X181348Y241492D02*
D03*
X182473Y206117D02*
D03*
X277990Y472440D02*
D03*
X200864Y279948D02*
D03*
X362246Y291250D02*
D03*
X295308Y291866D02*
D03*
X220250Y253250D02*
D03*
X201348Y241492D02*
D03*
X349906Y136042D02*
D03*
X349652Y154076D02*
D03*
D38*
X326450Y208480D02*
D03*
Y203480D02*
D03*
Y198480D02*
D03*
X257750Y248480D02*
D03*
Y198480D02*
D03*
Y238480D02*
D03*
Y223480D02*
D03*
Y193480D02*
D03*
Y233480D02*
D03*
Y243480D02*
D03*
Y228480D02*
D03*
X326450Y218480D02*
D03*
X257750Y203480D02*
D03*
Y208480D02*
D03*
Y213480D02*
D03*
Y218480D02*
D03*
X326450Y248480D02*
D03*
Y243480D02*
D03*
Y238480D02*
D03*
Y233480D02*
D03*
Y228480D02*
D03*
Y223480D02*
D03*
Y213480D02*
D03*
Y193480D02*
D03*
D39*
X368012Y119579D02*
D03*
X353012D02*
D03*
X358012Y96329D02*
D03*
X353012D02*
D03*
X368012D02*
D03*
X363012D02*
D03*
X358012Y119579D02*
D03*
X363012D02*
D03*
D40*
X328955Y162306D02*
D03*
X316205Y170942D02*
D03*
X328955D02*
D03*
X316205Y162306D02*
D03*
D41*
X351387Y107954D02*
D03*
Y102954D02*
D03*
X369637Y107954D02*
D03*
Y102954D02*
D03*
X351387Y112954D02*
D03*
X369637D02*
D03*
D42*
X281603Y549296D02*
D03*
X110011Y544322D02*
D03*
X94009Y213360D02*
D03*
X81759D02*
D03*
X97761Y544322D02*
D03*
X269353Y549296D02*
D03*
D43*
X260490Y472440D02*
D03*
X296304Y273324D02*
D03*
X207150Y488950D02*
D03*
X382246Y291250D02*
D03*
X199864Y259948D02*
D03*
X199973Y206117D02*
D03*
X237750Y253250D02*
D03*
X200098Y223742D02*
D03*
X369906Y136042D02*
D03*
X362500Y255250D02*
D03*
X363000Y273500D02*
D03*
X350648Y172618D02*
D03*
X206642Y505968D02*
D03*
D44*
X240478Y458296D02*
D03*
X207478D02*
D03*
X240478Y453296D02*
D03*
X207478D02*
D03*
Y448296D02*
D03*
Y443296D02*
D03*
Y438296D02*
D03*
X240478D02*
D03*
Y443296D02*
D03*
Y448296D02*
D03*
D45*
X242242Y271780D02*
D03*
X226642D02*
D03*
D46*
X61280Y576140D02*
D03*
Y521140D02*
D03*
D47*
X67742Y253982D02*
D03*
Y473982D02*
D03*
D48*
X308864Y80772D02*
D03*
X296164Y121412D02*
D03*
X258064Y80772D02*
D03*
X308864Y121412D02*
D03*
X270764D02*
D03*
X283464D02*
D03*
X270764Y80772D02*
D03*
X296164D02*
D03*
X258064Y121412D02*
D03*
X283464Y80772D02*
D03*
D49*
X61426Y206406D02*
D03*
Y186406D02*
D03*
Y210406D02*
D03*
Y182406D02*
D03*
Y218406D02*
D03*
Y214406D02*
D03*
Y190406D02*
D03*
Y202406D02*
D03*
Y194406D02*
D03*
Y198406D02*
D03*
D50*
X121270Y526034D02*
D03*
X88570D02*
D03*
X121150Y500854D02*
D03*
X88450D02*
D03*
D51*
X396776Y409914D02*
D03*
X336776D02*
D03*
X396776Y372914D02*
D03*
X336776D02*
D03*
D52*
X466376Y213797D02*
D03*
X422100D02*
D03*
D53*
X456376D02*
D03*
X412100D02*
D03*
D54*
X267970Y298504D02*
D03*
Y273504D02*
D03*
D55*
X264600Y186630D02*
D03*
D56*
X294273Y330454D02*
D03*
X312787D02*
D03*
D57*
X275160Y500380D02*
D03*
X253160D02*
D03*
D58*
X39426Y173606D02*
D03*
Y227206D02*
D03*
D59*
X61280Y563840D02*
D03*
Y533440D02*
D03*
D60*
Y553640D02*
D03*
Y543640D02*
D03*
D61*
X213978Y431796D02*
D03*
X218978D02*
D03*
X223978D02*
D03*
X228978D02*
D03*
X233978D02*
D03*
Y464796D02*
D03*
X228978D02*
D03*
X223978D02*
D03*
X218978D02*
D03*
X213978D02*
D03*
D100*
X209228Y562546D02*
D03*
D101*
X234228D02*
D03*
D103*
X290830Y360172D02*
D03*
X132842Y108966D02*
D03*
X81274Y60240D02*
D03*
X133500Y98000D02*
D03*
X200660Y93980D02*
D03*
X65750Y65500D02*
D03*
X177750Y129000D02*
D03*
X229250Y314500D02*
D03*
X51816Y116332D02*
D03*
X132000Y480000D02*
D03*
X242013Y192264D02*
D03*
X311658Y429006D02*
D03*
X244250Y167000D02*
D03*
X158728Y466046D02*
D03*
X117750Y464500D02*
D03*
D104*
X502583Y251923D02*
D03*
X501821Y214077D02*
D03*
D105*
X362778Y509046D02*
D03*
D106*
X223978Y448296D02*
D03*
D107*
X292100Y220980D02*
D03*
D108*
X152978Y506046D02*
D03*
X187978D02*
D03*
D109*
X335020Y213480D02*
X411783D01*
X466376Y213797D02*
X487703D01*
X487983Y214077D01*
X437876Y213797D02*
X456376D01*
X422100D02*
X438690D01*
D110*
X482673Y251923D02*
X502583D01*
X481750Y251000D02*
X482673Y251923D01*
X487983Y214077D02*
X501821D01*
D111*
X352826Y487826D02*
X356142D01*
X362223Y493907D02*
Y493907D01*
X350520Y485520D02*
X352826Y487826D01*
X356142D02*
X362223Y493907D01*
Y493907D02*
X370288Y501972D01*
X206994Y481092D02*
X218978Y469108D01*
X206994Y481092D02*
Y487856D01*
X205900Y488950D02*
X206994Y487856D01*
X218978Y464796D02*
Y469108D01*
X205900Y505226D02*
X206642Y505968D01*
X205900Y490372D02*
Y505226D01*
X335280Y485520D02*
X336894Y487134D01*
Y491834D02*
X346606Y501546D01*
X353078D01*
X336894Y487134D02*
Y491834D01*
X371778Y501212D02*
X372112Y501546D01*
X372478D01*
X332528Y503546D02*
X335434Y506452D01*
X352984D01*
X353078Y506546D01*
D112*
X462500Y242757D02*
D03*
D113*
X409250Y28500D02*
D03*
D114*
X223978Y448296D02*
D03*
X231728D02*
D03*
X223978Y440546D02*
D03*
Y456046D02*
D03*
X216228Y448296D02*
D03*
D115*
X60480Y591840D02*
D03*
X22480D02*
D03*
X60480Y505440D02*
D03*
X22480D02*
D03*
D116*
X204750Y18022D02*
D03*
X110500Y202185D02*
D03*
X414750Y345750D02*
D03*
X111750Y59000D02*
D03*
X58000Y46250D02*
D03*
X312000Y57500D02*
D03*
X75750Y136576D02*
D03*
Y125854D02*
D03*
X269500Y9500D02*
D03*
X277285Y21067D02*
D03*
X269500Y36818D02*
D03*
X260500Y21070D02*
D03*
X120360Y286750D02*
D03*
X134250Y278500D02*
D03*
Y295000D02*
D03*
X150172Y286250D02*
D03*
X285250Y265500D02*
D03*
X284250Y277000D02*
D03*
X180250Y97750D02*
D03*
X213250Y109250D02*
D03*
X221828Y114500D02*
D03*
X201712Y120538D02*
D03*
X251000Y423750D02*
D03*
X111500Y41000D02*
D03*
X110722Y128250D02*
D03*
X237576Y114750D02*
D03*
X102250Y119500D02*
D03*
X46250Y276000D02*
D03*
X58250Y276750D02*
D03*
X94000Y277250D02*
D03*
X80250Y277000D02*
D03*
X388330Y480520D02*
D03*
X369000Y551500D02*
D03*
X387750Y397250D02*
D03*
X362000Y523000D02*
D03*
X395668Y274296D02*
D03*
X396962Y254972D02*
D03*
X381500Y343000D02*
D03*
X329000Y292250D02*
D03*
Y273000D02*
D03*
X379250Y172000D02*
D03*
X380000Y153750D02*
D03*
X379500Y119750D02*
D03*
X372750Y79750D02*
D03*
X329000Y153250D02*
D03*
X343500Y106000D02*
D03*
X335750Y75500D02*
D03*
X296500Y562750D02*
D03*
X250500Y462250D02*
D03*
X224250Y519500D02*
D03*
X221000Y478500D02*
D03*
X184000Y476750D02*
D03*
X249750Y253750D02*
D03*
X246750Y378750D02*
D03*
X187750Y413500D02*
D03*
X199000Y373750D02*
D03*
X117500Y573250D02*
D03*
X124000Y545000D02*
D03*
X117000Y561000D02*
D03*
X160750Y400500D02*
D03*
X77000Y576000D02*
D03*
X183250Y306000D02*
D03*
X169750Y280250D02*
D03*
X170750Y260500D02*
D03*
X68500Y276750D02*
D03*
X307750Y170750D02*
D03*
X170250Y223250D02*
D03*
Y241500D02*
D03*
X171000Y205750D02*
D03*
X149250Y95000D02*
D03*
X213500Y89250D02*
D03*
X198500Y71000D02*
D03*
X144000Y53750D02*
D03*
X122250Y53500D02*
D03*
X106000Y213750D02*
D03*
X77345Y184405D02*
D03*
X84250Y121500D02*
D03*
X67000Y122000D02*
D03*
X46750Y88500D02*
D03*
X132000Y227000D02*
D03*
X110750Y184000D02*
D03*
X132000Y215750D02*
D03*
X91000Y155500D02*
D03*
Y166500D02*
D03*
X221828Y142308D02*
D03*
X396118Y104000D02*
D03*
X396500Y118500D02*
D03*
X232000Y142750D02*
D03*
X252000Y180500D02*
D03*
X235250Y181000D02*
D03*
X179750Y111000D02*
D03*
D117*
X444900Y37000D02*
D03*
Y24300D02*
D03*
Y11600D02*
D03*
Y49700D02*
D03*
X470300Y37000D02*
D03*
X444900Y62400D02*
D03*
X457600Y24300D02*
D03*
Y49700D02*
D03*
Y37000D02*
D03*
X470300Y49700D02*
D03*
Y11600D02*
D03*
Y24300D02*
D03*
X457600Y11600D02*
D03*
X483000D02*
D03*
Y37000D02*
D03*
Y49700D02*
D03*
Y24300D02*
D03*
X454500Y570000D02*
D03*
X597300Y312750D02*
D03*
X584600D02*
D03*
X597300Y300050D02*
D03*
X584600D02*
D03*
X559200Y312750D02*
D03*
X571900Y300050D02*
D03*
Y312750D02*
D03*
X584600Y274650D02*
D03*
X597300D02*
D03*
X584600Y287350D02*
D03*
X597300D02*
D03*
X343896Y235954D02*
D03*
X546500Y312750D02*
D03*
X533800D02*
D03*
X521100D02*
D03*
X533800Y300050D02*
D03*
X521100D02*
D03*
X559200D02*
D03*
X546500D02*
D03*
Y287350D02*
D03*
X521100D02*
D03*
X483000Y312750D02*
D03*
X495700D02*
D03*
X470300D02*
D03*
X508400D02*
D03*
X470300Y300050D02*
D03*
X457600Y312750D02*
D03*
X444900D02*
D03*
X457600Y300050D02*
D03*
X444900D02*
D03*
X508400D02*
D03*
X495700D02*
D03*
Y287350D02*
D03*
X483000D02*
D03*
Y300050D02*
D03*
X444900Y287350D02*
D03*
X470300D02*
D03*
X457600D02*
D03*
X559200D02*
D03*
X571900D02*
D03*
X533800D02*
D03*
Y274650D02*
D03*
X508400Y287350D02*
D03*
X495700Y274650D02*
D03*
X521100D02*
D03*
X508400D02*
D03*
X571900D02*
D03*
X559200D02*
D03*
X546500D02*
D03*
X483500Y255750D02*
D03*
Y247000D02*
D03*
X483000Y274650D02*
D03*
X470300Y261950D02*
D03*
Y274650D02*
D03*
X457600D02*
D03*
X444900D02*
D03*
X457600Y261950D02*
D03*
X444900D02*
D03*
X470300Y236550D02*
D03*
Y249250D02*
D03*
X483000Y236550D02*
D03*
X457600Y222500D02*
D03*
X457600Y249250D02*
D03*
X444900D02*
D03*
X457600Y236550D02*
D03*
X444900D02*
D03*
X432200D02*
D03*
X419500D02*
D03*
X432200Y222500D02*
D03*
X419500D02*
D03*
X406800Y236550D02*
D03*
X394100D02*
D03*
X381400D02*
D03*
X368700D02*
D03*
X356000D02*
D03*
X483250Y204250D02*
D03*
X483000Y189400D02*
D03*
X483000Y222500D02*
D03*
X483000Y176700D02*
D03*
X470300Y164000D02*
D03*
X470550Y204250D02*
D03*
X470300Y222500D02*
D03*
X470300Y176700D02*
D03*
Y189400D02*
D03*
X483000Y138600D02*
D03*
Y151300D02*
D03*
Y113200D02*
D03*
Y125900D02*
D03*
Y164000D02*
D03*
X470300Y151300D02*
D03*
Y125900D02*
D03*
Y138600D02*
D03*
X457600Y189400D02*
D03*
Y176700D02*
D03*
X457850Y204250D02*
D03*
X457600Y164000D02*
D03*
X444900D02*
D03*
X444900Y222500D02*
D03*
X444900Y176700D02*
D03*
Y189400D02*
D03*
X457600Y138600D02*
D03*
Y151300D02*
D03*
Y113200D02*
D03*
Y125900D02*
D03*
X444900Y138600D02*
D03*
Y151300D02*
D03*
Y113200D02*
D03*
Y125900D02*
D03*
X483000Y87800D02*
D03*
Y75100D02*
D03*
Y100500D02*
D03*
Y62400D02*
D03*
X470300D02*
D03*
Y100500D02*
D03*
Y113200D02*
D03*
Y75100D02*
D03*
Y87800D02*
D03*
X457600D02*
D03*
Y100500D02*
D03*
Y62400D02*
D03*
Y75100D02*
D03*
X444900Y87800D02*
D03*
Y100500D02*
D03*
Y75100D02*
D03*
X406800Y222500D02*
D03*
X394350Y204250D02*
D03*
X394100Y222500D02*
D03*
X419750Y204250D02*
D03*
X407050D02*
D03*
X381400Y222500D02*
D03*
X368950Y204250D02*
D03*
X381400Y189400D02*
D03*
X381650Y204250D02*
D03*
X406800Y189400D02*
D03*
X394100D02*
D03*
X432200D02*
D03*
X419500D02*
D03*
X356000Y222500D02*
D03*
X368700D02*
D03*
X343300D02*
D03*
X356250Y204250D02*
D03*
X343550D02*
D03*
X356000Y189400D02*
D03*
X343300D02*
D03*
X368700D02*
D03*
D118*
X103000Y87750D02*
D03*
X85000Y74500D02*
D03*
D119*
X285100Y241980D02*
D03*
X313100D02*
D03*
X299100Y227980D02*
D03*
Y241980D02*
D03*
X313100Y227980D02*
D03*
X285100Y213980D02*
D03*
X271100Y227980D02*
D03*
Y241980D02*
D03*
X285100Y227980D02*
D03*
X271100Y213980D02*
D03*
X313100Y199980D02*
D03*
Y213980D02*
D03*
X299100D02*
D03*
X271100Y199980D02*
D03*
X299100D02*
D03*
X285100D02*
D03*
M02*
