G04*
G04 #@! TF.GenerationSoftware,Altium Limited,Altium Designer,25.8.1 (18)*
G04*
G04 Layer_Color=16711935*
%FSLAX44Y44*%
%MOMM*%
G71*
G04*
G04 #@! TF.SameCoordinates,16AD229D-0A12-456A-95A7-24712EE817D5*
G04*
G04*
G04 #@! TF.FilePolarity,Positive*
G04*
G01*
G75*
%ADD10C,0.1000*%
%ADD11C,0.2540*%
%ADD14C,0.1500*%
%ADD16C,0.2000*%
%ADD17C,0.1270*%
%ADD122C,0.0000*%
%ADD123C,0.0254*%
G36*
X327431Y194643D02*
X327417D01*
X327360D01*
X327276D01*
X327163Y194657D01*
X327036Y194671D01*
X326895Y194699D01*
X326754Y194728D01*
X326599Y194784D01*
X326585D01*
X326571Y194798D01*
X326486Y194826D01*
X326359Y194883D01*
X326190Y194967D01*
X325993Y195080D01*
X325767Y195221D01*
X325542Y195376D01*
X325302Y195574D01*
X325288D01*
X325274Y195602D01*
X325189Y195672D01*
X325063Y195799D01*
X324879Y195982D01*
X324668Y196194D01*
X324414Y196462D01*
X324132Y196786D01*
X323836Y197138D01*
X323822Y197152D01*
X323780Y197209D01*
X323709Y197293D01*
X323625Y197392D01*
X323512Y197519D01*
X323385Y197674D01*
X323244Y197829D01*
X323089Y198012D01*
X322751Y198365D01*
X322412Y198717D01*
X322243Y198886D01*
X322074Y199041D01*
X321919Y199182D01*
X321764Y199295D01*
X321750D01*
X321736Y199323D01*
X321693Y199352D01*
X321637Y199380D01*
X321482Y199478D01*
X321299Y199591D01*
X321073Y199690D01*
X320834Y199788D01*
X320566Y199845D01*
X320312Y199873D01*
X320298D01*
X320284D01*
X320199Y199859D01*
X320058Y199845D01*
X319903Y199803D01*
X319706Y199746D01*
X319508Y199648D01*
X319311Y199521D01*
X319114Y199352D01*
X319085Y199323D01*
X319029Y199253D01*
X318959Y199154D01*
X318860Y198999D01*
X318775Y198802D01*
X318691Y198576D01*
X318634Y198308D01*
X318620Y198012D01*
Y197928D01*
X318634Y197871D01*
X318648Y197702D01*
X318691Y197505D01*
X318747Y197293D01*
X318846Y197054D01*
X318973Y196828D01*
X319142Y196617D01*
X319170Y196588D01*
X319240Y196532D01*
X319353Y196448D01*
X319522Y196363D01*
X319720Y196264D01*
X319974Y196180D01*
X320256Y196123D01*
X320580Y196095D01*
X320453Y194869D01*
X320439D01*
X320396Y194883D01*
X320326D01*
X320227Y194897D01*
X320115Y194925D01*
X319988Y194953D01*
X319833Y194995D01*
X319678Y195038D01*
X319339Y195151D01*
X319001Y195320D01*
X318832Y195418D01*
X318662Y195545D01*
X318507Y195672D01*
X318367Y195813D01*
X318352Y195827D01*
X318338Y195855D01*
X318296Y195898D01*
X318254Y195968D01*
X318197Y196053D01*
X318141Y196151D01*
X318071Y196264D01*
X318000Y196405D01*
X317929Y196560D01*
X317859Y196729D01*
X317803Y196913D01*
X317746Y197110D01*
X317704Y197321D01*
X317662Y197547D01*
X317647Y197787D01*
X317633Y198040D01*
Y198181D01*
X317647Y198280D01*
X317662Y198393D01*
X317676Y198534D01*
X317704Y198689D01*
X317732Y198844D01*
X317831Y199210D01*
X317972Y199577D01*
X318056Y199760D01*
X318155Y199944D01*
X318282Y200113D01*
X318423Y200268D01*
X318437Y200282D01*
X318451Y200310D01*
X318507Y200338D01*
X318564Y200395D01*
X318634Y200465D01*
X318733Y200536D01*
X318832Y200606D01*
X318959Y200691D01*
X319226Y200832D01*
X319565Y200973D01*
X319734Y201029D01*
X319931Y201057D01*
X320129Y201085D01*
X320340Y201099D01*
X320368D01*
X320439D01*
X320551Y201085D01*
X320707Y201071D01*
X320876Y201043D01*
X321073Y200987D01*
X321285Y200930D01*
X321496Y200846D01*
X321524Y200832D01*
X321595Y200804D01*
X321707Y200747D01*
X321863Y200662D01*
X322032Y200550D01*
X322243Y200409D01*
X322455Y200240D01*
X322694Y200042D01*
X322723Y200014D01*
X322807Y199944D01*
X322878Y199873D01*
X322948Y199803D01*
X323033Y199718D01*
X323145Y199605D01*
X323258Y199492D01*
X323385Y199352D01*
X323526Y199210D01*
X323681Y199041D01*
X323836Y198858D01*
X324019Y198661D01*
X324203Y198435D01*
X324400Y198210D01*
X324414Y198195D01*
X324442Y198167D01*
X324485Y198111D01*
X324541Y198040D01*
X324626Y197956D01*
X324710Y197857D01*
X324893Y197632D01*
X325105Y197392D01*
X325316Y197166D01*
X325500Y196969D01*
X325570Y196884D01*
X325640Y196814D01*
X325655Y196800D01*
X325697Y196758D01*
X325753Y196701D01*
X325838Y196631D01*
X325937Y196560D01*
X326035Y196476D01*
X326275Y196306D01*
Y201114D01*
X327431D01*
Y194643D01*
D02*
G37*
G36*
X323681Y193135D02*
X323822D01*
X323991Y193121D01*
X324160Y193106D01*
X324541Y193064D01*
X324936Y193008D01*
X325316Y192923D01*
X325500Y192867D01*
X325669Y192810D01*
X325683D01*
X325711Y192796D01*
X325753Y192768D01*
X325810Y192740D01*
X325965Y192655D01*
X326162Y192528D01*
X326388Y192359D01*
X326613Y192162D01*
X326853Y191908D01*
X327064Y191598D01*
Y191584D01*
X327093Y191556D01*
X327107Y191514D01*
X327149Y191443D01*
X327191Y191359D01*
X327234Y191246D01*
X327276Y191133D01*
X327332Y190992D01*
X327389Y190837D01*
X327431Y190668D01*
X327473Y190485D01*
X327515Y190273D01*
X327544Y190061D01*
X327572Y189836D01*
X327600Y189328D01*
Y189202D01*
X327586Y189103D01*
Y188990D01*
X327572Y188849D01*
X327558Y188694D01*
X327544Y188539D01*
X327487Y188187D01*
X327403Y187806D01*
X327290Y187439D01*
X327135Y187087D01*
Y187073D01*
X327107Y187045D01*
X327078Y187003D01*
X327050Y186946D01*
X326937Y186791D01*
X326782Y186608D01*
X326585Y186396D01*
X326359Y186199D01*
X326078Y186002D01*
X325767Y185847D01*
X325753D01*
X325725Y185832D01*
X325669Y185818D01*
X325598Y185790D01*
X325514Y185762D01*
X325401Y185734D01*
X325274Y185692D01*
X325119Y185663D01*
X324950Y185635D01*
X324767Y185593D01*
X324569Y185565D01*
X324358Y185536D01*
X324118Y185508D01*
X323864Y185494D01*
X323596Y185480D01*
X323315D01*
X317676D01*
Y186777D01*
X323315D01*
X323329D01*
X323371D01*
X323441D01*
X323526D01*
X323625Y186791D01*
X323751D01*
X324019Y186805D01*
X324329Y186833D01*
X324640Y186876D01*
X324936Y186932D01*
X325063Y186960D01*
X325189Y187003D01*
X325218Y187017D01*
X325288Y187045D01*
X325387Y187115D01*
X325528Y187200D01*
X325669Y187299D01*
X325824Y187439D01*
X325979Y187609D01*
X326106Y187806D01*
X326120Y187834D01*
X326162Y187905D01*
X326204Y188032D01*
X326261Y188201D01*
X326331Y188398D01*
X326374Y188652D01*
X326416Y188920D01*
X326430Y189216D01*
Y189357D01*
X326416Y189441D01*
Y189568D01*
X326402Y189695D01*
X326345Y190005D01*
X326275Y190343D01*
X326162Y190668D01*
X326007Y190978D01*
X325908Y191119D01*
X325796Y191246D01*
X325782Y191260D01*
X325767Y191274D01*
X325725Y191302D01*
X325669Y191344D01*
X325584Y191387D01*
X325500Y191443D01*
X325373Y191499D01*
X325246Y191556D01*
X325091Y191612D01*
X324907Y191654D01*
X324696Y191711D01*
X324470Y191753D01*
X324217Y191796D01*
X323949Y191824D01*
X323639Y191852D01*
X323315D01*
X317676D01*
Y193149D01*
X323315D01*
X323329D01*
X323385D01*
X323456D01*
X323554D01*
X323681Y193135D01*
D02*
G37*
D10*
X270600Y194480D02*
G03*
X270600Y194480I-5000J0D01*
G01*
X435770Y214217D02*
X441770D01*
X435770Y203217D02*
X441770D01*
Y214217D01*
X435770Y203217D02*
Y214217D01*
X118420Y517784D02*
Y534284D01*
X91420Y517784D02*
X118420D01*
X91420D02*
Y534284D01*
X118420D01*
X296308Y268324D02*
Y278324D01*
X314308Y268324D02*
Y278324D01*
X296308D02*
X314308D01*
X296308Y268324D02*
X314308D01*
X166728Y419542D02*
X176728D01*
X166728Y401542D02*
X176728D01*
Y419542D01*
X166728Y401542D02*
Y419542D01*
X207154Y483950D02*
Y493950D01*
X225154Y483950D02*
Y493950D01*
X207154D02*
X225154D01*
X207154Y483950D02*
X225154D01*
X260494Y467440D02*
Y477440D01*
X278494Y467440D02*
Y477440D01*
X260494D02*
X278494D01*
X260494Y467440D02*
X278494D01*
X455876Y210797D02*
X466876D01*
X455876Y216797D02*
X466876D01*
Y210797D02*
Y216797D01*
X455876Y210797D02*
Y216797D01*
X118300Y492604D02*
Y509104D01*
X91300Y492604D02*
X118300D01*
X91300D02*
Y509104D01*
X118300D01*
X282076Y35632D02*
X299076D01*
X282076Y44632D02*
X299076D01*
Y35632D02*
Y44632D01*
X282076Y35632D02*
Y44632D01*
X380250Y83000D02*
Y101000D01*
X390250Y83000D02*
Y101000D01*
X380250Y83000D02*
X390250D01*
X380250Y101000D02*
X390250D01*
X328250Y110500D02*
X338250D01*
X328250Y92500D02*
X338250D01*
Y110500D01*
X328250Y92500D02*
Y110500D01*
X411600Y210797D02*
Y216797D01*
X422600Y210797D02*
Y216797D01*
X411600D02*
X422600D01*
X411600Y210797D02*
X422600D01*
X397882Y349830D02*
Y358830D01*
X380882Y349830D02*
Y358830D01*
Y349830D02*
X397882D01*
X380882Y358830D02*
X397882D01*
X363246Y296250D02*
X381246D01*
X363246Y286250D02*
X381246D01*
X363246D02*
Y296250D01*
X381246Y286250D02*
Y296250D01*
X296308Y286866D02*
X314308D01*
X296308Y296866D02*
X314308D01*
Y286866D02*
Y296866D01*
X296308Y286866D02*
Y296866D01*
X219746Y258250D02*
X237746D01*
X219746Y248250D02*
X237746D01*
X219746D02*
Y258250D01*
X237746Y248250D02*
Y258250D01*
X187826Y318324D02*
Y335324D01*
X178826Y318324D02*
Y335324D01*
X187826D01*
X178826Y318324D02*
X187826D01*
X181860Y264948D02*
X199860D01*
X181860Y254948D02*
X199860D01*
X181860D02*
Y264948D01*
X199860Y254948D02*
Y264948D01*
X181864Y284948D02*
X199864D01*
X181864Y274948D02*
X199864D01*
X181864D02*
Y284948D01*
X199864Y274948D02*
Y284948D01*
X204576Y315324D02*
Y333324D01*
X194576Y315324D02*
Y333324D01*
X204576D01*
X194576Y315324D02*
X204576D01*
X200348Y236492D02*
Y246492D01*
X182348Y236492D02*
Y246492D01*
Y236492D02*
X200348D01*
X182348Y246492D02*
X200348D01*
X182094Y228742D02*
X200094D01*
X182094Y218742D02*
X200094D01*
X182094D02*
Y228742D01*
X200094Y218742D02*
Y228742D01*
X181969Y211117D02*
X199969D01*
X181969Y201117D02*
X199969D01*
X181969D02*
Y211117D01*
X199969Y201117D02*
Y211117D01*
X295030Y312876D02*
X312030D01*
X295030Y303876D02*
X312030D01*
X295030D02*
Y312876D01*
X312030Y303876D02*
Y312876D01*
X327600Y185480D02*
Y256480D01*
X256600Y185480D02*
Y256480D01*
X327600D01*
X256600Y185480D02*
X327600D01*
X350906Y141042D02*
X368906D01*
X350906Y131042D02*
X368906D01*
X350906D02*
Y141042D01*
X368906Y131042D02*
Y141042D01*
X362504Y250250D02*
Y260250D01*
X380504Y250250D02*
Y260250D01*
X362504D02*
X380504D01*
X362504Y250250D02*
X380504D01*
X363004Y268500D02*
Y278500D01*
X381004Y268500D02*
Y278500D01*
X363004D02*
X381004D01*
X363004Y268500D02*
X381004D01*
X350652Y167618D02*
X368652D01*
X350652Y177618D02*
X368652D01*
Y167618D02*
Y177618D01*
X350652Y167618D02*
Y177618D01*
Y149076D02*
Y159076D01*
X368652Y149076D02*
Y159076D01*
X350652D02*
X368652D01*
X350652Y149076D02*
X368652D01*
X409528Y382380D02*
X419528D01*
X409528Y364380D02*
X419528D01*
Y382380D01*
X409528Y364380D02*
Y382380D01*
X315032Y414138D02*
X324032D01*
X315032Y397138D02*
X324032D01*
Y414138D01*
X315032Y397138D02*
Y414138D01*
X117500Y62996D02*
Y80996D01*
X127500Y62996D02*
Y80996D01*
X117500Y62996D02*
X127500D01*
X117500Y80996D02*
X127500D01*
X216250Y175500D02*
X233250D01*
X216250Y166500D02*
X233250D01*
X216250D02*
Y175500D01*
X233250Y166500D02*
Y175500D01*
X232782Y151456D02*
Y160456D01*
X215782Y151456D02*
Y160456D01*
Y151456D02*
X232782D01*
X215782Y160456D02*
X232782D01*
X203228Y387796D02*
Y404796D01*
X194228Y387796D02*
Y404796D01*
X203228D01*
X194228Y387796D02*
X203228D01*
X64480Y503940D02*
Y593340D01*
X-3520Y503940D02*
X64480D01*
X-3520D02*
Y593340D01*
X64480D01*
X225978Y404796D02*
X234978D01*
X225978Y387796D02*
X234978D01*
Y404796D01*
X225978Y387796D02*
Y404796D01*
X271852Y440046D02*
X280852D01*
X271852Y423046D02*
X280852D01*
Y440046D01*
X271852Y423046D02*
Y440046D01*
X346020Y469020D02*
X355020D01*
X346020Y486020D02*
X355020D01*
X346020Y469020D02*
Y486020D01*
X355020Y469020D02*
Y486020D01*
X330780Y469020D02*
X339780D01*
X330780Y486020D02*
X339780D01*
X330780Y469020D02*
Y486020D01*
X339780Y469020D02*
Y486020D01*
X92008Y569032D02*
Y578032D01*
X109008Y569032D02*
Y578032D01*
X92008D02*
X109008D01*
X92008Y569032D02*
X109008D01*
X92008Y556332D02*
Y565332D01*
X109008Y556332D02*
Y565332D01*
X92008D02*
X109008D01*
X92008Y556332D02*
X109008D01*
X209978Y404796D02*
X218978D01*
X209978Y387796D02*
X218978D01*
Y404796D01*
X209978Y387796D02*
Y404796D01*
X256612Y423300D02*
X265612D01*
X256612Y440300D02*
X265612D01*
X256612Y423300D02*
Y440300D01*
X265612Y423300D02*
Y440300D01*
X241978Y387796D02*
X250978D01*
X241978Y404796D02*
X250978D01*
X241978Y387796D02*
Y404796D01*
X250978Y387796D02*
Y404796D01*
X94250Y51750D02*
X103250D01*
X94250Y34750D02*
X103250D01*
Y51750D01*
X94250Y34750D02*
Y51750D01*
X63750Y53000D02*
X72750D01*
X63750Y36000D02*
X72750D01*
Y53000D01*
X63750Y36000D02*
Y53000D01*
X257978Y388046D02*
X266978D01*
X257978Y405046D02*
X266978D01*
X257978Y388046D02*
Y405046D01*
X266978Y388046D02*
Y405046D01*
X187478Y417046D02*
Y426046D01*
X204478Y417046D02*
Y426046D01*
X187478D02*
X204478D01*
X187478Y417046D02*
X204478D01*
X206646Y500968D02*
Y510968D01*
X224646Y500968D02*
Y510968D01*
X206646D02*
X224646D01*
X206646Y500968D02*
X224646D01*
X177880Y450232D02*
X187880D01*
X177880Y468232D02*
X187880D01*
X177880Y450232D02*
Y468232D01*
X187880Y450232D02*
Y468232D01*
X205820Y62374D02*
X215820D01*
X205820Y80374D02*
X215820D01*
X205820Y62374D02*
Y80374D01*
X215820Y62374D02*
Y80374D01*
X210900Y41766D02*
X220900D01*
X210900Y23766D02*
X220900D01*
Y41766D01*
X210900Y23766D02*
Y41766D01*
X138452Y81465D02*
X148452D01*
X138452Y63465D02*
X148452D01*
Y81465D01*
X138452Y63465D02*
Y81465D01*
X44000Y63496D02*
X54000D01*
X44000Y45496D02*
X54000D01*
Y63496D01*
X44000Y45496D02*
Y63496D01*
X347778Y535046D02*
X357778D01*
X347778Y553046D02*
X357778D01*
X347778Y535046D02*
Y553046D01*
X357778Y535046D02*
Y553046D01*
X370750Y461500D02*
X380750D01*
X370750Y479500D02*
X380750D01*
X370750Y461500D02*
Y479500D01*
X380750Y461500D02*
Y479500D01*
X327528Y504546D02*
X337528D01*
X327528Y522546D02*
X337528D01*
X327528Y504546D02*
Y522546D01*
X337528Y504546D02*
Y522546D01*
X439102Y211551D02*
X439769Y212218D01*
Y213551D01*
X439102Y214217D01*
X436437D01*
X435770Y213551D01*
Y212218D01*
X436437Y211551D01*
X439102Y210218D02*
X439769Y209552D01*
Y208219D01*
X439102Y207553D01*
X438436D01*
X437769Y208219D01*
Y208885D01*
Y208219D01*
X437103Y207553D01*
X436437D01*
X435770Y208219D01*
Y209552D01*
X436437Y210218D01*
X298974Y271656D02*
X298307Y272323D01*
X296974D01*
X296308Y271656D01*
Y268990D01*
X296974Y268324D01*
X298307D01*
X298974Y268990D01*
X302973Y268324D02*
X300307D01*
X302973Y270990D01*
Y271656D01*
X302306Y272323D01*
X300973D01*
X300307Y271656D01*
X306305Y268324D02*
Y272323D01*
X304305Y270323D01*
X306971D01*
X170060Y416876D02*
X170727Y417543D01*
Y418876D01*
X170060Y419542D01*
X167394D01*
X166728Y418876D01*
Y417543D01*
X167394Y416876D01*
X166728Y415543D02*
Y414210D01*
Y414877D01*
X170727D01*
X170060Y415543D01*
X166728Y412211D02*
Y410878D01*
Y411545D01*
X170727D01*
X170060Y412211D01*
X209820Y487282D02*
X209153Y487949D01*
X207820D01*
X207154Y487282D01*
Y484616D01*
X207820Y483950D01*
X209153D01*
X209820Y484616D01*
X213818Y487949D02*
X212486Y487282D01*
X211153Y485949D01*
Y484616D01*
X211819Y483950D01*
X213152D01*
X213818Y484616D01*
Y485283D01*
X213152Y485949D01*
X211153D01*
X263160Y470772D02*
X262493Y471439D01*
X261160D01*
X260494Y470772D01*
Y468106D01*
X261160Y467440D01*
X262493D01*
X263160Y468106D01*
X264493Y467440D02*
X265826D01*
X265159D01*
Y471439D01*
X264493Y470772D01*
X455876Y214796D02*
Y210797D01*
X458542D01*
X461874D02*
Y214796D01*
X459875Y212796D01*
X462541D01*
X284226Y37592D02*
Y41591D01*
X286225D01*
X286892Y40924D01*
Y39591D01*
X286225Y38925D01*
X284226D01*
X285559D02*
X286892Y37592D01*
X288225D02*
X289558D01*
X288891D01*
Y41591D01*
X288225Y40924D01*
X291557Y41591D02*
X294223D01*
Y40924D01*
X291557Y38258D01*
Y37592D01*
X386875Y95898D02*
X387708Y96731D01*
Y98397D01*
X386875Y99230D01*
X383543D01*
X382710Y98397D01*
Y96731D01*
X383543Y95898D01*
X382710Y94232D02*
Y92565D01*
Y93399D01*
X387708D01*
X386875Y94232D01*
X382710Y87567D02*
X387708D01*
X385209Y90066D01*
Y86734D01*
X334875Y105398D02*
X335708Y106231D01*
Y107897D01*
X334875Y108730D01*
X331543D01*
X330710Y107897D01*
Y106231D01*
X331543Y105398D01*
X330710Y103732D02*
Y102065D01*
Y102899D01*
X335708D01*
X334875Y103732D01*
Y99566D02*
X335708Y98733D01*
Y97067D01*
X334875Y96234D01*
X334042D01*
X333209Y97067D01*
Y97900D01*
Y97067D01*
X332376Y96234D01*
X331543D01*
X330710Y97067D01*
Y98733D01*
X331543Y99566D01*
X411600Y214796D02*
Y210797D01*
X414266D01*
X415599Y214129D02*
X416265Y214796D01*
X417598D01*
X418265Y214129D01*
Y213463D01*
X417598Y212796D01*
X416932D01*
X417598D01*
X418265Y212130D01*
Y211464D01*
X417598Y210797D01*
X416265D01*
X415599Y211464D01*
X395732Y356870D02*
Y352871D01*
X393733D01*
X393066Y353538D01*
Y354871D01*
X393733Y355537D01*
X395732D01*
X394399D02*
X393066Y356870D01*
X391733D02*
X390400D01*
X391067D01*
Y352871D01*
X391733Y353538D01*
X385735Y352871D02*
X387068Y353538D01*
X388401Y354871D01*
Y356204D01*
X387735Y356870D01*
X386402D01*
X385735Y356204D01*
Y355537D01*
X386402Y354871D01*
X388401D01*
X378580Y292251D02*
X381246D01*
Y294251D01*
X379913D01*
X381246D01*
Y296250D01*
X377247Y292251D02*
Y296250D01*
X375248D01*
X374581Y295584D01*
Y294917D01*
X375248Y294251D01*
X377247D01*
X375248D01*
X374581Y293584D01*
Y292918D01*
X375248Y292251D01*
X377247D01*
X370583Y296250D02*
X373249D01*
X370583Y293584D01*
Y292918D01*
X371249Y292251D01*
X372582D01*
X373249Y292918D01*
X301410Y293491D02*
X300577Y294324D01*
X298911D01*
X298078Y293491D01*
Y290159D01*
X298911Y289326D01*
X300577D01*
X301410Y290159D01*
X306409Y289326D02*
X303076D01*
X306409Y292658D01*
Y293491D01*
X305576Y294324D01*
X303909D01*
X303076Y293491D01*
X308075D02*
X308908Y294324D01*
X310574D01*
X311407Y293491D01*
Y292658D01*
X310574Y291825D01*
X309741D01*
X310574D01*
X311407Y290992D01*
Y290159D01*
X310574Y289326D01*
X308908D01*
X308075Y290159D01*
X237746Y254251D02*
Y258250D01*
X235080D01*
X231082Y254251D02*
X233747D01*
Y256251D01*
X232414Y255584D01*
X231748D01*
X231082Y256251D01*
Y257584D01*
X231748Y258250D01*
X233081D01*
X233747Y257584D01*
X185866Y320474D02*
X181867D01*
Y322473D01*
X182534Y323140D01*
X183867D01*
X184533Y322473D01*
Y320474D01*
Y321807D02*
X185866Y323140D01*
Y324473D02*
Y325806D01*
Y325139D01*
X181867D01*
X182534Y324473D01*
Y327805D02*
X181867Y328471D01*
Y329804D01*
X182534Y330471D01*
X183200D01*
X183867Y329804D01*
X184533Y330471D01*
X185200D01*
X185866Y329804D01*
Y328471D01*
X185200Y327805D01*
X184533D01*
X183867Y328471D01*
X183200Y327805D01*
X182534D01*
X183867Y328471D02*
Y329804D01*
X197194Y261616D02*
X197861Y260949D01*
X199194D01*
X199860Y261616D01*
Y264282D01*
X199194Y264948D01*
X197861D01*
X197194Y264282D01*
X195861D02*
X195195Y264948D01*
X193862D01*
X193195Y264282D01*
Y261616D01*
X193862Y260949D01*
X195195D01*
X195861Y261616D01*
Y262282D01*
X195195Y262949D01*
X193195D01*
X194762Y278323D02*
X195595Y277490D01*
X197261D01*
X198094Y278323D01*
Y281655D01*
X197261Y282488D01*
X195595D01*
X194762Y281655D01*
X189763Y282488D02*
X193096D01*
X189763Y279156D01*
Y278323D01*
X190597Y277490D01*
X192263D01*
X193096Y278323D01*
X188097D02*
X187264Y277490D01*
X185598D01*
X184765Y278323D01*
Y281655D01*
X185598Y282488D01*
X187264D01*
X188097Y281655D01*
Y278323D01*
X197951Y320426D02*
X197118Y319593D01*
Y317927D01*
X197951Y317094D01*
X201283D01*
X202116Y317927D01*
Y319593D01*
X201283Y320426D01*
X202116Y325425D02*
Y322092D01*
X198784Y325425D01*
X197951D01*
X197118Y324591D01*
Y322925D01*
X197951Y322092D01*
X195246Y239867D02*
X196079Y239034D01*
X197745D01*
X198578Y239867D01*
Y243199D01*
X197745Y244032D01*
X196079D01*
X195246Y243199D01*
X190247Y244032D02*
X193580D01*
X190247Y240700D01*
Y239867D01*
X191080Y239034D01*
X192747D01*
X193580Y239867D01*
X185249Y244032D02*
X188581D01*
X185249Y240700D01*
Y239867D01*
X186082Y239034D01*
X187748D01*
X188581Y239867D01*
X197428Y225410D02*
X198095Y224743D01*
X199428D01*
X200094Y225410D01*
Y228076D01*
X199428Y228742D01*
X198095D01*
X197428Y228076D01*
X193430Y228742D02*
X196095D01*
X193430Y226076D01*
Y225410D01*
X194096Y224743D01*
X195429D01*
X196095Y225410D01*
X189431Y224743D02*
X192097D01*
Y226743D01*
X190764Y226076D01*
X190097D01*
X189431Y226743D01*
Y228076D01*
X190097Y228742D01*
X191430D01*
X192097Y228076D01*
X197303Y207785D02*
X197970Y207118D01*
X199303D01*
X199969Y207785D01*
Y210451D01*
X199303Y211117D01*
X197970D01*
X197303Y210451D01*
X193305Y211117D02*
X195970D01*
X193305Y208451D01*
Y207785D01*
X193971Y207118D01*
X195304D01*
X195970Y207785D01*
X189306Y207118D02*
X190639Y207785D01*
X191972Y209118D01*
Y210451D01*
X191305Y211117D01*
X189972D01*
X189306Y210451D01*
Y209784D01*
X189972Y209118D01*
X191972D01*
X309880Y310916D02*
Y306917D01*
X307881D01*
X307214Y307584D01*
Y308917D01*
X307881Y309583D01*
X309880D01*
X308547D02*
X307214Y310916D01*
X303216D02*
X305881D01*
X303216Y308250D01*
Y307584D01*
X303882Y306917D01*
X305215D01*
X305881Y307584D01*
X301883Y310916D02*
X300550D01*
X301216D01*
Y306917D01*
X301883Y307584D01*
X366240Y137043D02*
X368906D01*
Y139043D01*
X367573D01*
X368906D01*
Y141042D01*
X364907Y137043D02*
Y141042D01*
X362908D01*
X362242Y140376D01*
Y139709D01*
X362908Y139043D01*
X364907D01*
X362908D01*
X362242Y138376D01*
Y137710D01*
X362908Y137043D01*
X364907D01*
X360909Y141042D02*
X359576D01*
X360242D01*
Y137043D01*
X360909Y137710D01*
X365170Y253582D02*
X364503Y254249D01*
X363170D01*
X362504Y253582D01*
Y250916D01*
X363170Y250250D01*
X364503D01*
X365170Y250916D01*
X366503Y253582D02*
X367169Y254249D01*
X368502D01*
X369169Y253582D01*
Y252916D01*
X368502Y252249D01*
X367836D01*
X368502D01*
X369169Y251583D01*
Y250916D01*
X368502Y250250D01*
X367169D01*
X366503Y250916D01*
X370501Y250250D02*
X371834D01*
X371168D01*
Y254249D01*
X370501Y253582D01*
X365670Y271832D02*
X365003Y272499D01*
X363670D01*
X363004Y271832D01*
Y269166D01*
X363670Y268500D01*
X365003D01*
X365670Y269166D01*
X367003Y271832D02*
X367669Y272499D01*
X369002D01*
X369669Y271832D01*
Y271166D01*
X369002Y270499D01*
X368336D01*
X369002D01*
X369669Y269833D01*
Y269166D01*
X369002Y268500D01*
X367669D01*
X367003Y269166D01*
X371001Y271832D02*
X371668Y272499D01*
X373001D01*
X373667Y271832D01*
Y269166D01*
X373001Y268500D01*
X371668D01*
X371001Y269166D01*
Y271832D01*
X353318Y170950D02*
X352651Y171617D01*
X351318D01*
X350652Y170950D01*
Y168284D01*
X351318Y167618D01*
X352651D01*
X353318Y168284D01*
X357317Y167618D02*
X354651D01*
X357317Y170284D01*
Y170950D01*
X356650Y171617D01*
X355317D01*
X354651Y170950D01*
X358649Y168284D02*
X359316Y167618D01*
X360649D01*
X361315Y168284D01*
Y170950D01*
X360649Y171617D01*
X359316D01*
X358649Y170950D01*
Y170284D01*
X359316Y169617D01*
X361315D01*
X355754Y155701D02*
X354921Y156534D01*
X353255D01*
X352422Y155701D01*
Y152369D01*
X353255Y151536D01*
X354921D01*
X355754Y152369D01*
X360753Y151536D02*
X357420D01*
X360753Y154868D01*
Y155701D01*
X359920Y156534D01*
X358253D01*
X357420Y155701D01*
X362419D02*
X363252Y156534D01*
X364918D01*
X365751Y155701D01*
Y154868D01*
X364918Y154035D01*
X365751Y153202D01*
Y152369D01*
X364918Y151536D01*
X363252D01*
X362419Y152369D01*
Y153202D01*
X363252Y154035D01*
X362419Y154868D01*
Y155701D01*
X363252Y154035D02*
X364918D01*
X416153Y377278D02*
X416986Y378111D01*
Y379777D01*
X416153Y380610D01*
X412821D01*
X411988Y379777D01*
Y378111D01*
X412821Y377278D01*
X411988Y373112D02*
X416986D01*
X414487Y375612D01*
Y372279D01*
X316992Y411988D02*
X320991D01*
Y409989D01*
X320324Y409322D01*
X318991D01*
X318325Y409989D01*
Y411988D01*
Y410655D02*
X316992Y409322D01*
Y405323D02*
Y407989D01*
X319658Y405323D01*
X320324D01*
X320991Y405990D01*
Y407323D01*
X320324Y407989D01*
X316992Y401325D02*
Y403991D01*
X319658Y401325D01*
X320324D01*
X320991Y401991D01*
Y403324D01*
X320324Y403991D01*
X120832Y78330D02*
X121499Y78997D01*
Y80330D01*
X120832Y80996D01*
X118166D01*
X117500Y80330D01*
Y78997D01*
X118166Y78330D01*
X117500Y76997D02*
Y75664D01*
Y76331D01*
X121499D01*
X120832Y76997D01*
X121499Y70999D02*
Y73665D01*
X119499D01*
X120166Y72332D01*
Y71666D01*
X119499Y70999D01*
X118166D01*
X117500Y71666D01*
Y72999D01*
X118166Y73665D01*
X231100Y173540D02*
Y169541D01*
X229101D01*
X228434Y170208D01*
Y171541D01*
X229101Y172207D01*
X231100D01*
X229767D02*
X228434Y173540D01*
X227101D02*
X225768D01*
X226435D01*
Y169541D01*
X227101Y170208D01*
X221103Y169541D02*
X223769D01*
Y171541D01*
X222436Y170874D01*
X221770D01*
X221103Y171541D01*
Y172873D01*
X221770Y173540D01*
X223103D01*
X223769Y172873D01*
X230632Y158496D02*
Y154497D01*
X228633D01*
X227966Y155164D01*
Y156497D01*
X228633Y157163D01*
X230632D01*
X229299D02*
X227966Y158496D01*
X226633D02*
X225300D01*
X225967D01*
Y154497D01*
X226633Y155164D01*
X221302Y158496D02*
Y154497D01*
X223301Y156497D01*
X220635D01*
X201268Y389946D02*
X197269D01*
Y391945D01*
X197936Y392612D01*
X199269D01*
X199935Y391945D01*
Y389946D01*
Y391279D02*
X201268Y392612D01*
X197936Y393945D02*
X197269Y394611D01*
Y395944D01*
X197936Y396610D01*
X198602D01*
X199269Y395944D01*
X199935Y396610D01*
X200602D01*
X201268Y395944D01*
Y394611D01*
X200602Y393945D01*
X199935D01*
X199269Y394611D01*
X198602Y393945D01*
X197936D01*
X199269Y394611D02*
Y395944D01*
X227938Y402646D02*
X231937D01*
Y400647D01*
X231270Y399980D01*
X229937D01*
X229271Y400647D01*
Y402646D01*
Y401313D02*
X227938Y399980D01*
Y398647D02*
Y397314D01*
Y397981D01*
X231937D01*
X231270Y398647D01*
X273812Y437896D02*
X277811D01*
Y435897D01*
X277144Y435230D01*
X275811D01*
X275145Y435897D01*
Y437896D01*
Y436563D02*
X273812Y435230D01*
Y431231D02*
Y433897D01*
X276478Y431231D01*
X277144D01*
X277811Y431898D01*
Y433231D01*
X277144Y433897D01*
X353060Y471170D02*
X349061D01*
Y473169D01*
X349728Y473836D01*
X351061D01*
X351727Y473169D01*
Y471170D01*
Y472503D02*
X353060Y473836D01*
X349728Y475169D02*
X349061Y475835D01*
Y477168D01*
X349728Y477835D01*
X350394D01*
X351061Y477168D01*
Y476502D01*
Y477168D01*
X351727Y477835D01*
X352394D01*
X353060Y477168D01*
Y475835D01*
X352394Y475169D01*
X337820Y471170D02*
X333821D01*
Y473169D01*
X334488Y473836D01*
X335821D01*
X336487Y473169D01*
Y471170D01*
Y472503D02*
X337820Y473836D01*
Y477168D02*
X333821D01*
X335821Y475169D01*
Y477835D01*
X94158Y570992D02*
Y574991D01*
X96157D01*
X96824Y574324D01*
Y572991D01*
X96157Y572325D01*
X94158D01*
X95491D02*
X96824Y570992D01*
X100822Y574991D02*
X98157D01*
Y572991D01*
X99490Y573658D01*
X100156D01*
X100822Y572991D01*
Y571658D01*
X100156Y570992D01*
X98823D01*
X98157Y571658D01*
X94158Y558292D02*
Y562291D01*
X96157D01*
X96824Y561624D01*
Y560291D01*
X96157Y559625D01*
X94158D01*
X95491D02*
X96824Y558292D01*
X100822Y562291D02*
X99490Y561624D01*
X98157Y560291D01*
Y558958D01*
X98823Y558292D01*
X100156D01*
X100822Y558958D01*
Y559625D01*
X100156Y560291D01*
X98157D01*
X211938Y402646D02*
X215937D01*
Y400647D01*
X215270Y399980D01*
X213937D01*
X213271Y400647D01*
Y402646D01*
Y401313D02*
X211938Y399980D01*
X215937Y398647D02*
Y395981D01*
X215270D01*
X212605Y398647D01*
X211938D01*
X263652Y425450D02*
X259653D01*
Y427449D01*
X260320Y428116D01*
X261653D01*
X262319Y427449D01*
Y425450D01*
Y426783D02*
X263652Y428116D01*
Y429449D02*
Y430782D01*
Y430115D01*
X259653D01*
X260320Y429449D01*
Y432781D02*
X259653Y433447D01*
Y434780D01*
X260320Y435447D01*
X262986D01*
X263652Y434780D01*
Y433447D01*
X262986Y432781D01*
X260320D01*
X249018Y389946D02*
X245019D01*
Y391945D01*
X245686Y392612D01*
X247019D01*
X247685Y391945D01*
Y389946D01*
Y391279D02*
X249018Y392612D01*
Y393945D02*
Y395278D01*
Y394611D01*
X245019D01*
X245686Y393945D01*
X249018Y397277D02*
Y398610D01*
Y397943D01*
X245019D01*
X245686Y397277D01*
X96210Y49600D02*
X100209D01*
Y47601D01*
X99542Y46934D01*
X98209D01*
X97543Y47601D01*
Y49600D01*
Y48267D02*
X96210Y46934D01*
Y45601D02*
Y44268D01*
Y44935D01*
X100209D01*
X99542Y45601D01*
X96210Y39603D02*
Y42269D01*
X98876Y39603D01*
X99542D01*
X100209Y40270D01*
Y41603D01*
X99542Y42269D01*
X65710Y50850D02*
X69709D01*
Y48851D01*
X69042Y48184D01*
X67709D01*
X67043Y48851D01*
Y50850D01*
Y49517D02*
X65710Y48184D01*
Y46851D02*
Y45518D01*
Y46185D01*
X69709D01*
X69042Y46851D01*
Y43519D02*
X69709Y42853D01*
Y41520D01*
X69042Y40853D01*
X68376D01*
X67709Y41520D01*
Y42186D01*
Y41520D01*
X67043Y40853D01*
X66376D01*
X65710Y41520D01*
Y42853D01*
X66376Y43519D01*
X265018Y390196D02*
X261019D01*
Y392195D01*
X261686Y392862D01*
X263019D01*
X263685Y392195D01*
Y390196D01*
Y391529D02*
X265018Y392862D01*
X264352Y394195D02*
X265018Y394861D01*
Y396194D01*
X264352Y396861D01*
X261686D01*
X261019Y396194D01*
Y394861D01*
X261686Y394195D01*
X262352D01*
X263019Y394861D01*
Y396861D01*
X189628Y419006D02*
Y423005D01*
X191627D01*
X192294Y422338D01*
Y421005D01*
X191627Y420339D01*
X189628D01*
X190961D02*
X192294Y419006D01*
X196292D02*
X193627D01*
X196292Y421672D01*
Y422338D01*
X195626Y423005D01*
X194293D01*
X193627Y422338D01*
X197625D02*
X198292Y423005D01*
X199625D01*
X200291Y422338D01*
Y419672D01*
X199625Y419006D01*
X198292D01*
X197625Y419672D01*
Y422338D01*
X209312Y504300D02*
X208645Y504967D01*
X207312D01*
X206646Y504300D01*
Y501634D01*
X207312Y500968D01*
X208645D01*
X209312Y501634D01*
X213311Y504967D02*
X210645D01*
Y502967D01*
X211978Y503634D01*
X212644D01*
X213311Y502967D01*
Y501634D01*
X212644Y500968D01*
X211311D01*
X210645Y501634D01*
X184548Y452898D02*
X183881Y452231D01*
Y450898D01*
X184548Y450232D01*
X187214D01*
X187880Y450898D01*
Y452231D01*
X187214Y452898D01*
X184548Y454231D02*
X183881Y454897D01*
Y456230D01*
X184548Y456897D01*
X185214D01*
X185881Y456230D01*
X186547Y456897D01*
X187214D01*
X187880Y456230D01*
Y454897D01*
X187214Y454231D01*
X186547D01*
X185881Y454897D01*
X185214Y454231D01*
X184548D01*
X185881Y454897D02*
Y456230D01*
X212488Y65040D02*
X211821Y64373D01*
Y63040D01*
X212488Y62374D01*
X215154D01*
X215820Y63040D01*
Y64373D01*
X215154Y65040D01*
X215820Y66373D02*
Y67706D01*
Y67039D01*
X211821D01*
X212488Y66373D01*
X211821Y69705D02*
Y72371D01*
X212488D01*
X215154Y69705D01*
X215820D01*
X214232Y39100D02*
X214899Y39767D01*
Y41100D01*
X214232Y41766D01*
X211566D01*
X210900Y41100D01*
Y39767D01*
X211566Y39100D01*
X210900Y37767D02*
Y36434D01*
Y37101D01*
X214899D01*
X214232Y37767D01*
X211566Y34435D02*
X210900Y33769D01*
Y32436D01*
X211566Y31769D01*
X214232D01*
X214899Y32436D01*
Y33769D01*
X214232Y34435D01*
X213566D01*
X212899Y33769D01*
Y31769D01*
X141784Y78800D02*
X142451Y79466D01*
Y80799D01*
X141784Y81465D01*
X139118D01*
X138452Y80799D01*
Y79466D01*
X139118Y78800D01*
X138452Y77467D02*
Y76134D01*
Y76800D01*
X142451D01*
X141784Y77467D01*
X142451Y71469D02*
X141784Y72801D01*
X140451Y74134D01*
X139118D01*
X138452Y73468D01*
Y72135D01*
X139118Y71469D01*
X139785D01*
X140451Y72135D01*
Y74134D01*
X47332Y60830D02*
X47999Y61497D01*
Y62830D01*
X47332Y63496D01*
X44666D01*
X44000Y62830D01*
Y61497D01*
X44666Y60830D01*
X44000Y59497D02*
Y58164D01*
Y58831D01*
X47999D01*
X47332Y59497D01*
Y56165D02*
X47999Y55499D01*
Y54166D01*
X47332Y53499D01*
X46666D01*
X45999Y54166D01*
X45333Y53499D01*
X44666D01*
X44000Y54166D01*
Y55499D01*
X44666Y56165D01*
X45333D01*
X45999Y55499D01*
X46666Y56165D01*
X47332D01*
X45999Y55499D02*
Y54166D01*
X351153Y540148D02*
X350320Y539315D01*
Y537649D01*
X351153Y536816D01*
X354485D01*
X355318Y537649D01*
Y539315D01*
X354485Y540148D01*
X350320Y541814D02*
Y545146D01*
X351153D01*
X354485Y541814D01*
X355318D01*
X374125Y466602D02*
X373292Y465769D01*
Y464103D01*
X374125Y463270D01*
X377457D01*
X378290Y464103D01*
Y465769D01*
X377457Y466602D01*
X378290Y468268D02*
Y469935D01*
Y469101D01*
X373292D01*
X374125Y468268D01*
Y472434D02*
X373292Y473267D01*
Y474933D01*
X374125Y475766D01*
X377457D01*
X378290Y474933D01*
Y473267D01*
X377457Y472434D01*
X374125D01*
X330903Y509648D02*
X330070Y508815D01*
Y507149D01*
X330903Y506316D01*
X334235D01*
X335068Y507149D01*
Y508815D01*
X334235Y509648D01*
X335068Y511314D02*
Y512980D01*
Y512147D01*
X330070D01*
X330903Y511314D01*
X335068Y518812D02*
Y515480D01*
X331736Y518812D01*
X330903D01*
X330070Y517979D01*
Y516313D01*
X330903Y515480D01*
D11*
X94754Y121212D02*
G03*
X94754Y121212I-1270J0D01*
G01*
D14*
X370262Y127954D02*
G03*
X370262Y127954I-750J0D01*
G01*
D16*
X74026Y182406D02*
G03*
X74026Y182406I-1000J0D01*
G01*
X195478Y458296D02*
G03*
X195478Y458296I-1000J0D01*
G01*
X36750Y87500D02*
G03*
X36750Y87500I-1000J0D01*
G01*
X344778Y517046D02*
G03*
X344778Y517046I-1000J0D01*
G01*
X149484Y110886D02*
G03*
X149484Y110886I-1000J0D01*
G01*
X155250Y87000D02*
G03*
X155250Y87000I-1000J0D01*
G01*
D17*
X260470Y302004D02*
X275470D01*
X260470Y270004D02*
X275470D01*
Y302004D01*
X260470Y270004D02*
Y302004D01*
X373012Y92954D02*
Y122954D01*
X348012Y92954D02*
X373012D01*
X348012D02*
Y122954D01*
X373012D01*
X33426Y229406D02*
X61926D01*
X33426Y171406D02*
Y229406D01*
Y171406D02*
X61926D01*
Y229406D01*
X226442Y267780D02*
Y275780D01*
X242442Y267780D02*
Y275780D01*
X226442D02*
X242442D01*
X226442Y267780D02*
X242442D01*
X206478Y430796D02*
X241478D01*
X206478Y465796D02*
X241478D01*
Y430796D02*
Y465796D01*
X206478Y430796D02*
Y465796D01*
X33750Y106500D02*
X49750D01*
X33750Y94500D02*
Y106500D01*
Y94500D02*
X49750D01*
Y106500D01*
X352478Y498746D02*
Y519346D01*
X373078D01*
Y498746D02*
Y519346D01*
X352478Y498746D02*
X373078D01*
X157484Y96886D02*
Y110886D01*
Y96886D02*
X167484D01*
Y110886D01*
X157484D02*
X167484D01*
X158750Y91500D02*
X192750D01*
X158750Y34500D02*
X192750D01*
Y91500D01*
X158750Y34500D02*
Y91500D01*
D122*
X329717Y168021D02*
G03*
X329717Y168021I-762J0D01*
G01*
X333121Y169672D02*
G03*
X333121Y163576I0J-3048D01*
G01*
D123*
X65798Y110798D02*
X95770D01*
Y80826D02*
Y110798D01*
X65798Y80826D02*
X95770D01*
X65798D02*
Y110798D01*
X83070D02*
X95770Y98098D01*
X312039Y158115D02*
Y175133D01*
Y158115D02*
X333121D01*
Y175133D01*
X312039D02*
X333121D01*
M02*
