G04*
G04 #@! TF.GenerationSoftware,Altium Limited,Altium Designer,25.8.1 (18)*
G04*
G04 Layer_Color=128*
%FSLAX44Y44*%
%MOMM*%
G71*
G04*
G04 #@! TF.SameCoordinates,16AD229D-0A12-456A-95A7-24712EE817D5*
G04*
G04*
G04 #@! TF.FilePolarity,Positive*
G04*
G01*
G75*
%ADD17C,0.1270*%
D17*
X391470Y28500D02*
X427030D01*
X409250Y10720D02*
Y46280D01*
X222978Y448296D02*
X224978D01*
X223978Y447296D02*
Y449296D01*
X230728Y448296D02*
X232728D01*
X231728Y447296D02*
Y449296D01*
X222978Y440546D02*
X224978D01*
X223978Y439546D02*
Y441546D01*
X204228Y562546D02*
X214228D01*
X209228Y557546D02*
Y567546D01*
X222978Y456046D02*
X224978D01*
X223978Y455046D02*
Y457046D01*
X215228Y448296D02*
X217228D01*
X216228Y447296D02*
Y449296D01*
X57480Y591840D02*
X63480D01*
X60480Y588840D02*
Y594840D01*
X19480Y591840D02*
X25480D01*
X22480Y588840D02*
Y594840D01*
X57480Y505440D02*
X63480D01*
X60480Y502440D02*
Y508440D01*
X19480Y505440D02*
X25480D01*
X22480Y502440D02*
Y508440D01*
X229228Y562546D02*
X239228D01*
X234228Y557546D02*
Y567546D01*
X203226Y18022D02*
X206274D01*
X204750Y16498D02*
Y19546D01*
X443249Y37000D02*
X446551D01*
X444900Y35349D02*
Y38651D01*
X443249Y24300D02*
X446551D01*
X444900Y22649D02*
Y25951D01*
X443249Y11600D02*
X446551D01*
X444900Y9949D02*
Y13251D01*
X443249Y49700D02*
X446551D01*
X444900Y48049D02*
Y51351D01*
X468649Y37000D02*
X471951D01*
X470300Y35349D02*
Y38651D01*
X443249Y62400D02*
X446551D01*
X444900Y60749D02*
Y64051D01*
X455949Y24300D02*
X459251D01*
X457600Y22649D02*
Y25951D01*
X455949Y49700D02*
X459251D01*
X457600Y48049D02*
Y51351D01*
X455949Y37000D02*
X459251D01*
X457600Y35349D02*
Y38651D01*
X468649Y49700D02*
X471951D01*
X470300Y48049D02*
Y51351D01*
X468649Y11600D02*
X471951D01*
X470300Y9949D02*
Y13251D01*
X468649Y24300D02*
X471951D01*
X470300Y22649D02*
Y25951D01*
X455949Y11600D02*
X459251D01*
X457600Y9949D02*
Y13251D01*
X481349Y11600D02*
X484651D01*
X483000Y9949D02*
Y13251D01*
X481349Y37000D02*
X484651D01*
X483000Y35349D02*
Y38651D01*
X481349Y49700D02*
X484651D01*
X483000Y48049D02*
Y51351D01*
X481349Y24300D02*
X484651D01*
X483000Y22649D02*
Y25951D01*
X108976Y202185D02*
X112024D01*
X110500Y200661D02*
Y203709D01*
X413226Y345750D02*
X416274D01*
X414750Y344226D02*
Y347274D01*
X452468Y570000D02*
X456532D01*
X454500Y567968D02*
Y572032D01*
X110226Y59000D02*
X113274D01*
X111750Y57476D02*
Y60524D01*
X56476Y46250D02*
X59524D01*
X58000Y44726D02*
Y47774D01*
X310476Y57500D02*
X313524D01*
X312000Y55976D02*
Y59024D01*
X595649Y312750D02*
X598951D01*
X597300Y311099D02*
Y314401D01*
X582949Y312750D02*
X586251D01*
X584600Y311099D02*
Y314401D01*
X595649Y300050D02*
X598951D01*
X597300Y298399D02*
Y301701D01*
X582949Y300050D02*
X586251D01*
X584600Y298399D02*
Y301701D01*
X557549Y312750D02*
X560851D01*
X559200Y311099D02*
Y314401D01*
X570249Y300050D02*
X573551D01*
X571900Y298399D02*
Y301701D01*
X570249Y312750D02*
X573551D01*
X571900Y311099D02*
Y314401D01*
X582949Y274650D02*
X586251D01*
X584600Y272999D02*
Y276301D01*
X595649Y274650D02*
X598951D01*
X597300Y272999D02*
Y276301D01*
X582949Y287350D02*
X586251D01*
X584600Y285699D02*
Y289001D01*
X595649Y287350D02*
X598951D01*
X597300Y285699D02*
Y289001D01*
X74226Y136576D02*
X77274D01*
X75750Y135052D02*
Y138100D01*
X74226Y125854D02*
X77274D01*
X75750Y124330D02*
Y127378D01*
X267976Y9500D02*
X271024D01*
X269500Y7976D02*
Y11024D01*
X275761Y21067D02*
X278809D01*
X277285Y19543D02*
Y22591D01*
X267976Y36818D02*
X271024D01*
X269500Y35294D02*
Y38342D01*
X258976Y21070D02*
X262024D01*
X260500Y19546D02*
Y22594D01*
X118836Y286750D02*
X121884D01*
X120360Y285226D02*
Y288274D01*
X132726Y278500D02*
X135774D01*
X134250Y276976D02*
Y280024D01*
X132726Y295000D02*
X135774D01*
X134250Y293476D02*
Y296524D01*
X148648Y286250D02*
X151696D01*
X150172Y284726D02*
Y287774D01*
X342245Y235954D02*
X345547D01*
X343896Y234303D02*
Y237605D01*
X283726Y265500D02*
X286774D01*
X285250Y263976D02*
Y267024D01*
X282726Y277000D02*
X285774D01*
X284250Y275476D02*
Y278524D01*
X178726Y97750D02*
X181774D01*
X180250Y96226D02*
Y99274D01*
X211726Y109250D02*
X214774D01*
X213250Y107726D02*
Y110774D01*
X220304Y114500D02*
X223352D01*
X221828Y112976D02*
Y116024D01*
X200189Y120538D02*
X203237D01*
X201712Y119014D02*
Y122062D01*
X249476Y423750D02*
X252524D01*
X251000Y422226D02*
Y425274D01*
X101730Y87750D02*
X104270D01*
X103000Y86480D02*
Y89020D01*
X83730Y74500D02*
X86270D01*
X85000Y73230D02*
Y75770D01*
X109976Y41000D02*
X113024D01*
X111500Y39476D02*
Y42524D01*
X109198Y128250D02*
X112246D01*
X110722Y126726D02*
Y129774D01*
X236052Y114750D02*
X239100D01*
X237576Y113226D02*
Y116274D01*
X100726Y119500D02*
X103774D01*
X102250Y117976D02*
Y121024D01*
X44726Y276000D02*
X47774D01*
X46250Y274476D02*
Y277524D01*
X56726Y276750D02*
X59774D01*
X58250Y275226D02*
Y278274D01*
X92476Y277250D02*
X95524D01*
X94000Y275726D02*
Y278774D01*
X78726Y277000D02*
X81774D01*
X80250Y275476D02*
Y278524D01*
X544849Y312750D02*
X548151D01*
X546500Y311099D02*
Y314401D01*
X532149Y312750D02*
X535451D01*
X533800Y311099D02*
Y314401D01*
X519449Y312750D02*
X522751D01*
X521100Y311099D02*
Y314401D01*
X532149Y300050D02*
X535451D01*
X533800Y298399D02*
Y301701D01*
X519449Y300050D02*
X522751D01*
X521100Y298399D02*
Y301701D01*
X557549Y300050D02*
X560851D01*
X559200Y298399D02*
Y301701D01*
X544849Y300050D02*
X548151D01*
X546500Y298399D02*
Y301701D01*
X544849Y287350D02*
X548151D01*
X546500Y285699D02*
Y289001D01*
X519449Y287350D02*
X522751D01*
X521100Y285699D02*
Y289001D01*
X481349Y312750D02*
X484651D01*
X483000Y311099D02*
Y314401D01*
X494049Y312750D02*
X497351D01*
X495700Y311099D02*
Y314401D01*
X468649Y312750D02*
X471951D01*
X470300Y311099D02*
Y314401D01*
X506749Y312750D02*
X510051D01*
X508400Y311099D02*
Y314401D01*
X468649Y300050D02*
X471951D01*
X470300Y298399D02*
Y301701D01*
X455949Y312750D02*
X459251D01*
X457600Y311099D02*
Y314401D01*
X443249Y312750D02*
X446551D01*
X444900Y311099D02*
Y314401D01*
X455949Y300050D02*
X459251D01*
X457600Y298399D02*
Y301701D01*
X443249Y300050D02*
X446551D01*
X444900Y298399D02*
Y301701D01*
X506749Y300050D02*
X510051D01*
X508400Y298399D02*
Y301701D01*
X494049Y300050D02*
X497351D01*
X495700Y298399D02*
Y301701D01*
X494049Y287350D02*
X497351D01*
X495700Y285699D02*
Y289001D01*
X481349Y287350D02*
X484651D01*
X483000Y285699D02*
Y289001D01*
X481349Y300050D02*
X484651D01*
X483000Y298399D02*
Y301701D01*
X443249Y287350D02*
X446551D01*
X444900Y285699D02*
Y289001D01*
X468649Y287350D02*
X471951D01*
X470300Y285699D02*
Y289001D01*
X455949Y287350D02*
X459251D01*
X457600Y285699D02*
Y289001D01*
X557549Y287350D02*
X560851D01*
X559200Y285699D02*
Y289001D01*
X570249Y287350D02*
X573551D01*
X571900Y285699D02*
Y289001D01*
X532149Y287350D02*
X535451D01*
X533800Y285699D02*
Y289001D01*
X532149Y274650D02*
X535451D01*
X533800Y272999D02*
Y276301D01*
X506749Y287350D02*
X510051D01*
X508400Y285699D02*
Y289001D01*
X494049Y274650D02*
X497351D01*
X495700Y272999D02*
Y276301D01*
X519449Y274650D02*
X522751D01*
X521100Y272999D02*
Y276301D01*
X506749Y274650D02*
X510051D01*
X508400Y272999D02*
Y276301D01*
X570249Y274650D02*
X573551D01*
X571900Y272999D02*
Y276301D01*
X557549Y274650D02*
X560851D01*
X559200Y272999D02*
Y276301D01*
X544849Y274650D02*
X548151D01*
X546500Y272999D02*
Y276301D01*
X481849Y255750D02*
X485151D01*
X483500Y254099D02*
Y257401D01*
X481849Y247000D02*
X485151D01*
X483500Y245349D02*
Y248651D01*
X481349Y274650D02*
X484651D01*
X483000Y272999D02*
Y276301D01*
X468649Y261950D02*
X471951D01*
X470300Y260299D02*
Y263601D01*
X468649Y274650D02*
X471951D01*
X470300Y272999D02*
Y276301D01*
X455949Y274650D02*
X459251D01*
X457600Y272999D02*
Y276301D01*
X443249Y274650D02*
X446551D01*
X444900Y272999D02*
Y276301D01*
X455949Y261950D02*
X459251D01*
X457600Y260299D02*
Y263601D01*
X443249Y261950D02*
X446551D01*
X444900Y260299D02*
Y263601D01*
X468649Y236550D02*
X471951D01*
X470300Y234899D02*
Y238201D01*
X468649Y249250D02*
X471951D01*
X470300Y247599D02*
Y250901D01*
X481349Y236550D02*
X484651D01*
X483000Y234899D02*
Y238201D01*
X455949Y222500D02*
X459251D01*
X457600Y220849D02*
Y224151D01*
X455949Y249250D02*
X459251D01*
X457600Y247599D02*
Y250901D01*
X443249Y249250D02*
X446551D01*
X444900Y247599D02*
Y250901D01*
X455949Y236550D02*
X459251D01*
X457600Y234899D02*
Y238201D01*
X443249Y236550D02*
X446551D01*
X444900Y234899D02*
Y238201D01*
X386806Y480520D02*
X389854D01*
X388330Y478996D02*
Y482044D01*
X367476Y551500D02*
X370524D01*
X369000Y549976D02*
Y553024D01*
X386226Y397250D02*
X389274D01*
X387750Y395726D02*
Y398774D01*
X360476Y523000D02*
X363524D01*
X362000Y521476D02*
Y524524D01*
X394145Y274296D02*
X397192D01*
X395668Y272771D02*
Y275819D01*
X430549Y236550D02*
X433851D01*
X432200Y234899D02*
Y238201D01*
X417849Y236550D02*
X421151D01*
X419500Y234899D02*
Y238201D01*
X430549Y222500D02*
X433851D01*
X432200Y220849D02*
Y224151D01*
X417849Y222500D02*
X421151D01*
X419500Y220849D02*
Y224151D01*
X395438Y254972D02*
X398486D01*
X396962Y253448D02*
Y256496D01*
X405149Y236550D02*
X408451D01*
X406800Y234899D02*
Y238201D01*
X392449Y236550D02*
X395751D01*
X394100Y234899D02*
Y238201D01*
X379976Y343000D02*
X383024D01*
X381500Y341476D02*
Y344524D01*
X327476Y292250D02*
X330524D01*
X329000Y290726D02*
Y293774D01*
X327476Y273000D02*
X330524D01*
X329000Y271476D02*
Y274524D01*
X379749Y236550D02*
X383051D01*
X381400Y234899D02*
Y238201D01*
X367049Y236550D02*
X370351D01*
X368700Y234899D02*
Y238201D01*
X354349Y236550D02*
X357651D01*
X356000Y234899D02*
Y238201D01*
X481599Y204250D02*
X484901D01*
X483250Y202599D02*
Y205901D01*
X481349Y189400D02*
X484651D01*
X483000Y187749D02*
Y191051D01*
X481349Y222500D02*
X484651D01*
X483000Y220849D02*
Y224151D01*
X481349Y176700D02*
X484651D01*
X483000Y175049D02*
Y178351D01*
X468649Y164000D02*
X471951D01*
X470300Y162349D02*
Y165651D01*
X468899Y204250D02*
X472201D01*
X470550Y202599D02*
Y205901D01*
X468649Y222500D02*
X471951D01*
X470300Y220849D02*
Y224151D01*
X468649Y176700D02*
X471951D01*
X470300Y175049D02*
Y178351D01*
X468649Y189400D02*
X471951D01*
X470300Y187749D02*
Y191051D01*
X481349Y138600D02*
X484651D01*
X483000Y136949D02*
Y140251D01*
X481349Y151300D02*
X484651D01*
X483000Y149649D02*
Y152951D01*
X481349Y113200D02*
X484651D01*
X483000Y111549D02*
Y114851D01*
X481349Y125900D02*
X484651D01*
X483000Y124249D02*
Y127551D01*
X481349Y164000D02*
X484651D01*
X483000Y162349D02*
Y165651D01*
X468649Y151300D02*
X471951D01*
X470300Y149649D02*
Y152951D01*
X468649Y125900D02*
X471951D01*
X470300Y124249D02*
Y127551D01*
X468649Y138600D02*
X471951D01*
X470300Y136949D02*
Y140251D01*
X455949Y189400D02*
X459251D01*
X457600Y187749D02*
Y191051D01*
X455949Y176700D02*
X459251D01*
X457600Y175049D02*
Y178351D01*
X456199Y204250D02*
X459501D01*
X457850Y202599D02*
Y205901D01*
X455949Y164000D02*
X459251D01*
X457600Y162349D02*
Y165651D01*
X443249Y164000D02*
X446551D01*
X444900Y162349D02*
Y165651D01*
X443249Y222500D02*
X446551D01*
X444900Y220849D02*
Y224151D01*
X443249Y176700D02*
X446551D01*
X444900Y175049D02*
Y178351D01*
X443249Y189400D02*
X446551D01*
X444900Y187749D02*
Y191051D01*
X455949Y138600D02*
X459251D01*
X457600Y136949D02*
Y140251D01*
X455949Y151300D02*
X459251D01*
X457600Y149649D02*
Y152951D01*
X455949Y113200D02*
X459251D01*
X457600Y111549D02*
Y114851D01*
X455949Y125900D02*
X459251D01*
X457600Y124249D02*
Y127551D01*
X443249Y138600D02*
X446551D01*
X444900Y136949D02*
Y140251D01*
X443249Y151300D02*
X446551D01*
X444900Y149649D02*
Y152951D01*
X443249Y113200D02*
X446551D01*
X444900Y111549D02*
Y114851D01*
X443249Y125900D02*
X446551D01*
X444900Y124249D02*
Y127551D01*
X481349Y87800D02*
X484651D01*
X483000Y86149D02*
Y89451D01*
X481349Y75100D02*
X484651D01*
X483000Y73449D02*
Y76751D01*
X481349Y100500D02*
X484651D01*
X483000Y98849D02*
Y102151D01*
X481349Y62400D02*
X484651D01*
X483000Y60749D02*
Y64051D01*
X468649Y62400D02*
X471951D01*
X470300Y60749D02*
Y64051D01*
X468649Y100500D02*
X471951D01*
X470300Y98849D02*
Y102151D01*
X468649Y113200D02*
X471951D01*
X470300Y111549D02*
Y114851D01*
X468649Y75100D02*
X471951D01*
X470300Y73449D02*
Y76751D01*
X468649Y87800D02*
X471951D01*
X470300Y86149D02*
Y89451D01*
X455949Y87800D02*
X459251D01*
X457600Y86149D02*
Y89451D01*
X455949Y100500D02*
X459251D01*
X457600Y98849D02*
Y102151D01*
X455949Y62400D02*
X459251D01*
X457600Y60749D02*
Y64051D01*
X455949Y75100D02*
X459251D01*
X457600Y73449D02*
Y76751D01*
X443249Y87800D02*
X446551D01*
X444900Y86149D02*
Y89451D01*
X443249Y100500D02*
X446551D01*
X444900Y98849D02*
Y102151D01*
X443249Y75100D02*
X446551D01*
X444900Y73449D02*
Y76751D01*
X405149Y222500D02*
X408451D01*
X406800Y220849D02*
Y224151D01*
X392699Y204250D02*
X396001D01*
X394350Y202599D02*
Y205901D01*
X392449Y222500D02*
X395751D01*
X394100Y220849D02*
Y224151D01*
X418099Y204250D02*
X421401D01*
X419750Y202599D02*
Y205901D01*
X405399Y204250D02*
X408701D01*
X407050Y202599D02*
Y205901D01*
X379749Y222500D02*
X383051D01*
X381400Y220849D02*
Y224151D01*
X367299Y204250D02*
X370601D01*
X368950Y202599D02*
Y205901D01*
X379749Y189400D02*
X383051D01*
X381400Y187749D02*
Y191051D01*
X379999Y204250D02*
X383301D01*
X381650Y202599D02*
Y205901D01*
X405149Y189400D02*
X408451D01*
X406800Y187749D02*
Y191051D01*
X392449Y189400D02*
X395751D01*
X394100Y187749D02*
Y191051D01*
X430549Y189400D02*
X433851D01*
X432200Y187749D02*
Y191051D01*
X417849Y189400D02*
X421151D01*
X419500Y187749D02*
Y191051D01*
X377726Y172000D02*
X380774D01*
X379250Y170476D02*
Y173524D01*
X354349Y222500D02*
X357651D01*
X356000Y220849D02*
Y224151D01*
X367049Y222500D02*
X370351D01*
X368700Y220849D02*
Y224151D01*
X341649Y222500D02*
X344951D01*
X343300Y220849D02*
Y224151D01*
X354599Y204250D02*
X357901D01*
X356250Y202599D02*
Y205901D01*
X341899Y204250D02*
X345201D01*
X343550Y202599D02*
Y205901D01*
X354349Y189400D02*
X357651D01*
X356000Y187749D02*
Y191051D01*
X341649Y189400D02*
X344951D01*
X343300Y187749D02*
Y191051D01*
X367049Y189400D02*
X370351D01*
X368700Y187749D02*
Y191051D01*
X378476Y153750D02*
X381524D01*
X380000Y152226D02*
Y155274D01*
X377976Y119750D02*
X381024D01*
X379500Y118226D02*
Y121274D01*
X371226Y79750D02*
X374274D01*
X372750Y78226D02*
Y81274D01*
X327476Y153250D02*
X330524D01*
X329000Y151726D02*
Y154774D01*
X341976Y106000D02*
X345024D01*
X343500Y104476D02*
Y107524D01*
X334226Y75500D02*
X337274D01*
X335750Y73976D02*
Y77024D01*
X294976Y562750D02*
X298024D01*
X296500Y561226D02*
Y564274D01*
X248976Y462250D02*
X252024D01*
X250500Y460726D02*
Y463774D01*
X222726Y519500D02*
X225774D01*
X224250Y517976D02*
Y521024D01*
X219476Y478500D02*
X222524D01*
X221000Y476976D02*
Y480024D01*
X182476Y476750D02*
X185524D01*
X184000Y475226D02*
Y478274D01*
X284100Y241980D02*
X286100D01*
X285100Y240980D02*
Y242980D01*
X248226Y253750D02*
X251274D01*
X249750Y252226D02*
Y255274D01*
X245226Y378750D02*
X248274D01*
X246750Y377226D02*
Y380274D01*
X186226Y413500D02*
X189274D01*
X187750Y411976D02*
Y415024D01*
X197476Y373750D02*
X200524D01*
X199000Y372226D02*
Y375274D01*
X115976Y573250D02*
X119024D01*
X117500Y571726D02*
Y574774D01*
X122476Y545000D02*
X125524D01*
X124000Y543476D02*
Y546524D01*
X115476Y561000D02*
X118524D01*
X117000Y559476D02*
Y562524D01*
X159226Y400500D02*
X162274D01*
X160750Y398976D02*
Y402024D01*
X75476Y576000D02*
X78524D01*
X77000Y574476D02*
Y577524D01*
X181726Y306000D02*
X184774D01*
X183250Y304476D02*
Y307524D01*
X168226Y280250D02*
X171274D01*
X169750Y278726D02*
Y281774D01*
X169226Y260500D02*
X172274D01*
X170750Y258976D02*
Y262024D01*
X66976Y276750D02*
X70024D01*
X68500Y275226D02*
Y278274D01*
X312100Y241980D02*
X314100D01*
X313100Y240980D02*
Y242980D01*
X298100Y227980D02*
X300100D01*
X299100Y226980D02*
Y228980D01*
X298100Y241980D02*
X300100D01*
X299100Y240980D02*
Y242980D01*
X312100Y227980D02*
X314100D01*
X313100Y226980D02*
Y228980D01*
X284100Y213980D02*
X286100D01*
X285100Y212980D02*
Y214980D01*
X270100Y227980D02*
X272100D01*
X271100Y226980D02*
Y228980D01*
X270100Y241980D02*
X272100D01*
X271100Y240980D02*
Y242980D01*
X284100Y227980D02*
X286100D01*
X285100Y226980D02*
Y228980D01*
X270100Y213980D02*
X272100D01*
X271100Y212980D02*
Y214980D01*
X312100Y199980D02*
X314100D01*
X313100Y198980D02*
Y200980D01*
X312100Y213980D02*
X314100D01*
X313100Y212980D02*
Y214980D01*
X306226Y170750D02*
X309274D01*
X307750Y169226D02*
Y172274D01*
X298100Y213980D02*
X300100D01*
X299100Y212980D02*
Y214980D01*
X270100Y199980D02*
X272100D01*
X271100Y198980D02*
Y200980D01*
X298100Y199980D02*
X300100D01*
X299100Y198980D02*
Y200980D01*
X284100Y199980D02*
X286100D01*
X285100Y198980D02*
Y200980D01*
X168726Y223250D02*
X171774D01*
X170250Y221726D02*
Y224774D01*
X168726Y241500D02*
X171774D01*
X170250Y239976D02*
Y243024D01*
X169476Y205750D02*
X172524D01*
X171000Y204226D02*
Y207274D01*
X147726Y95000D02*
X150774D01*
X149250Y93476D02*
Y96524D01*
X211976Y89250D02*
X215024D01*
X213500Y87726D02*
Y90774D01*
X196976Y71000D02*
X200024D01*
X198500Y69476D02*
Y72524D01*
X142476Y53750D02*
X145524D01*
X144000Y52226D02*
Y55274D01*
X120726Y53500D02*
X123774D01*
X122250Y51976D02*
Y55024D01*
X104476Y213750D02*
X107524D01*
X106000Y212226D02*
Y215274D01*
X75821Y184405D02*
X78869D01*
X77345Y182881D02*
Y185929D01*
X82726Y121500D02*
X85774D01*
X84250Y119976D02*
Y123024D01*
X65476Y122000D02*
X68524D01*
X67000Y120476D02*
Y123524D01*
X45226Y88500D02*
X48274D01*
X46750Y86976D02*
Y90024D01*
X130476Y227000D02*
X133524D01*
X132000Y225476D02*
Y228524D01*
X109226Y184000D02*
X112274D01*
X110750Y182476D02*
Y185524D01*
X130476Y215750D02*
X133524D01*
X132000Y214226D02*
Y217274D01*
X89476Y155500D02*
X92524D01*
X91000Y153976D02*
Y157024D01*
X89476Y166500D02*
X92524D01*
X91000Y164976D02*
Y168024D01*
X220304Y142308D02*
X223352D01*
X221828Y140784D02*
Y143832D01*
X394594Y104000D02*
X397642D01*
X396118Y102476D02*
Y105524D01*
X394976Y118500D02*
X398024D01*
X396500Y116976D02*
Y120024D01*
X230476Y142750D02*
X233524D01*
X232000Y141226D02*
Y144274D01*
X250476Y180500D02*
X253524D01*
X252000Y178976D02*
Y182024D01*
X233726Y181000D02*
X236774D01*
X235250Y179476D02*
Y182524D01*
X178226Y111000D02*
X181274D01*
X179750Y109476D02*
Y112524D01*
M02*
