G04*
G04 #@! TF.GenerationSoftware,Altium Limited,Altium Designer,25.8.1 (18)*
G04*
G04 Layer_Color=16711935*
%FSLAX44Y44*%
%MOMM*%
G71*
G04*
G04 #@! TF.SameCoordinates,16AD229D-0A12-456A-95A7-24712EE817D5*
G04*
G04*
G04 #@! TF.FilePolarity,Negative*
G04*
G01*
G75*
%ADD99C,4.7752*%
%ADD100C,1.5500*%
%ADD101R,1.5500X1.5500*%
%ADD102C,0.8382*%
%ADD119C,0.5000*%
G36*
X31970Y505100D02*
X31940Y504760D01*
X31900Y504420D01*
X31840Y504090D01*
X31760Y503760D01*
X31660Y503430D01*
X31550Y503110D01*
X31420Y502800D01*
X31270Y502490D01*
X31110Y502190D01*
X30930Y501900D01*
X30740Y501620D01*
X30530Y501350D01*
X30310Y501090D01*
X30080Y500840D01*
X29830Y500610D01*
X29570Y500390D01*
X29300Y500180D01*
X29020Y499990D01*
X28730Y499810D01*
X28430Y499650D01*
X28120Y499500D01*
X27810Y499370D01*
X27490Y499260D01*
X27160Y499160D01*
X26830Y499080D01*
X26500Y499020D01*
X26160Y498980D01*
X25820Y498950D01*
X25480Y498940D01*
X19480D01*
X19140Y498950D01*
X18800Y498980D01*
X18460Y499020D01*
X18130Y499080D01*
X17800Y499160D01*
X17470Y499260D01*
X17150Y499370D01*
X16840Y499500D01*
X16530Y499650D01*
X16230Y499810D01*
X15940Y499990D01*
X15660Y500180D01*
X15390Y500390D01*
X15130Y500610D01*
X14880Y500840D01*
X14650Y501090D01*
X14430Y501350D01*
X14220Y501620D01*
X14030Y501900D01*
X13850Y502190D01*
X13690Y502490D01*
X13540Y502800D01*
X13410Y503110D01*
X13300Y503430D01*
X13200Y503760D01*
X13120Y504090D01*
X13060Y504420D01*
X13020Y504760D01*
X12990Y505100D01*
X12980Y505440D01*
X12990Y505780D01*
X13020Y506120D01*
X13060Y506460D01*
X13120Y506790D01*
X13200Y507120D01*
X13300Y507450D01*
X13410Y507770D01*
X13540Y508080D01*
X13690Y508390D01*
X13850Y508690D01*
X14030Y508980D01*
X14220Y509260D01*
X14430Y509530D01*
X14650Y509790D01*
X14880Y510040D01*
X15130Y510270D01*
X15390Y510490D01*
X15660Y510700D01*
X15940Y510890D01*
X16230Y511070D01*
X16530Y511230D01*
X16840Y511380D01*
X17150Y511510D01*
X17470Y511620D01*
X17800Y511720D01*
X18130Y511800D01*
X18460Y511860D01*
X18800Y511900D01*
X19140Y511930D01*
X19480Y511940D01*
X25480D01*
X25820Y511930D01*
X26160Y511900D01*
X26500Y511860D01*
X26830Y511800D01*
X27160Y511720D01*
X27490Y511620D01*
X27810Y511510D01*
X28120Y511380D01*
X28430Y511230D01*
X28730Y511070D01*
X29020Y510890D01*
X29300Y510700D01*
X29570Y510490D01*
X29830Y510270D01*
X30080Y510040D01*
X30310Y509790D01*
X30530Y509530D01*
X30740Y509260D01*
X30930Y508980D01*
X31110Y508690D01*
X31270Y508390D01*
X31420Y508080D01*
X31550Y507770D01*
X31660Y507450D01*
X31760Y507120D01*
X31840Y506790D01*
X31900Y506460D01*
X31940Y506120D01*
X31970Y505780D01*
X31980Y505440D01*
X31970Y505100D01*
D02*
G37*
G36*
X69970D02*
X69940Y504760D01*
X69900Y504420D01*
X69840Y504090D01*
X69760Y503760D01*
X69660Y503430D01*
X69550Y503110D01*
X69420Y502800D01*
X69270Y502490D01*
X69110Y502190D01*
X68930Y501900D01*
X68740Y501620D01*
X68530Y501350D01*
X68310Y501090D01*
X68080Y500840D01*
X67830Y500610D01*
X67570Y500390D01*
X67300Y500180D01*
X67020Y499990D01*
X66730Y499810D01*
X66430Y499650D01*
X66120Y499500D01*
X65810Y499370D01*
X65490Y499260D01*
X65160Y499160D01*
X64830Y499080D01*
X64500Y499020D01*
X64160Y498980D01*
X63820Y498950D01*
X63480Y498940D01*
X57480D01*
X57140Y498950D01*
X56800Y498980D01*
X56460Y499020D01*
X56130Y499080D01*
X55800Y499160D01*
X55470Y499260D01*
X55150Y499370D01*
X54840Y499500D01*
X54530Y499650D01*
X54230Y499810D01*
X53940Y499990D01*
X53660Y500180D01*
X53390Y500390D01*
X53130Y500610D01*
X52880Y500840D01*
X52650Y501090D01*
X52430Y501350D01*
X52220Y501620D01*
X52030Y501900D01*
X51850Y502190D01*
X51690Y502490D01*
X51540Y502800D01*
X51410Y503110D01*
X51300Y503430D01*
X51200Y503760D01*
X51120Y504090D01*
X51060Y504420D01*
X51020Y504760D01*
X50990Y505100D01*
X50980Y505440D01*
X50990Y505780D01*
X51020Y506120D01*
X51060Y506460D01*
X51120Y506790D01*
X51200Y507120D01*
X51300Y507450D01*
X51410Y507770D01*
X51540Y508080D01*
X51690Y508390D01*
X51850Y508690D01*
X52030Y508980D01*
X52220Y509260D01*
X52430Y509530D01*
X52650Y509790D01*
X52880Y510040D01*
X53130Y510270D01*
X53390Y510490D01*
X53660Y510700D01*
X53940Y510890D01*
X54230Y511070D01*
X54530Y511230D01*
X54840Y511380D01*
X55150Y511510D01*
X55470Y511620D01*
X55800Y511720D01*
X56130Y511800D01*
X56460Y511860D01*
X56800Y511900D01*
X57140Y511930D01*
X57480Y511940D01*
X63480D01*
X63820Y511930D01*
X64160Y511900D01*
X64500Y511860D01*
X64830Y511800D01*
X65160Y511720D01*
X65490Y511620D01*
X65810Y511510D01*
X66120Y511380D01*
X66430Y511230D01*
X66730Y511070D01*
X67020Y510890D01*
X67300Y510700D01*
X67570Y510490D01*
X67830Y510270D01*
X68080Y510040D01*
X68310Y509790D01*
X68530Y509530D01*
X68740Y509260D01*
X68930Y508980D01*
X69110Y508690D01*
X69270Y508390D01*
X69420Y508080D01*
X69550Y507770D01*
X69660Y507450D01*
X69760Y507120D01*
X69840Y506790D01*
X69900Y506460D01*
X69940Y506120D01*
X69970Y505780D01*
X69980Y505440D01*
X69970Y505100D01*
D02*
G37*
G36*
X31970Y591500D02*
X31940Y591160D01*
X31900Y590820D01*
X31840Y590490D01*
X31760Y590160D01*
X31660Y589830D01*
X31550Y589510D01*
X31420Y589200D01*
X31270Y588890D01*
X31110Y588590D01*
X30930Y588300D01*
X30740Y588020D01*
X30530Y587750D01*
X30310Y587490D01*
X30080Y587240D01*
X29830Y587010D01*
X29570Y586790D01*
X29300Y586580D01*
X29020Y586390D01*
X28730Y586210D01*
X28430Y586050D01*
X28120Y585900D01*
X27810Y585770D01*
X27490Y585660D01*
X27160Y585560D01*
X26830Y585480D01*
X26500Y585420D01*
X26160Y585380D01*
X25820Y585350D01*
X25480Y585340D01*
X19480D01*
X19140Y585350D01*
X18800Y585380D01*
X18460Y585420D01*
X18130Y585480D01*
X17800Y585560D01*
X17470Y585660D01*
X17150Y585770D01*
X16840Y585900D01*
X16530Y586050D01*
X16230Y586210D01*
X15940Y586390D01*
X15660Y586580D01*
X15390Y586790D01*
X15130Y587010D01*
X14880Y587240D01*
X14650Y587490D01*
X14430Y587750D01*
X14220Y588020D01*
X14030Y588300D01*
X13850Y588590D01*
X13690Y588890D01*
X13540Y589200D01*
X13410Y589510D01*
X13300Y589830D01*
X13200Y590160D01*
X13120Y590490D01*
X13060Y590820D01*
X13020Y591160D01*
X12990Y591500D01*
X12980Y591840D01*
X12990Y592180D01*
X13020Y592520D01*
X13060Y592860D01*
X13120Y593190D01*
X13200Y593520D01*
X13300Y593850D01*
X13410Y594170D01*
X13540Y594480D01*
X13690Y594790D01*
X13850Y595090D01*
X14030Y595380D01*
X14220Y595660D01*
X14430Y595930D01*
X14650Y596190D01*
X14880Y596440D01*
X15130Y596670D01*
X15390Y596890D01*
X15660Y597100D01*
X15940Y597290D01*
X16230Y597470D01*
X16530Y597630D01*
X16840Y597780D01*
X17150Y597910D01*
X17470Y598020D01*
X17800Y598120D01*
X18130Y598200D01*
X18460Y598260D01*
X18800Y598300D01*
X19140Y598330D01*
X19480Y598340D01*
X25480D01*
X25820Y598330D01*
X26160Y598300D01*
X26500Y598260D01*
X26830Y598200D01*
X27160Y598120D01*
X27490Y598020D01*
X27810Y597910D01*
X28120Y597780D01*
X28430Y597630D01*
X28730Y597470D01*
X29020Y597290D01*
X29300Y597100D01*
X29570Y596890D01*
X29830Y596670D01*
X30080Y596440D01*
X30310Y596190D01*
X30530Y595930D01*
X30740Y595660D01*
X30930Y595380D01*
X31110Y595090D01*
X31270Y594790D01*
X31420Y594480D01*
X31550Y594170D01*
X31660Y593850D01*
X31760Y593520D01*
X31840Y593190D01*
X31900Y592860D01*
X31940Y592520D01*
X31970Y592180D01*
X31980Y591840D01*
X31970Y591500D01*
D02*
G37*
G36*
X69970D02*
X69940Y591160D01*
X69900Y590820D01*
X69840Y590490D01*
X69760Y590160D01*
X69660Y589830D01*
X69550Y589510D01*
X69420Y589200D01*
X69270Y588890D01*
X69110Y588590D01*
X68930Y588300D01*
X68740Y588020D01*
X68530Y587750D01*
X68310Y587490D01*
X68080Y587240D01*
X67830Y587010D01*
X67570Y586790D01*
X67300Y586580D01*
X67020Y586390D01*
X66730Y586210D01*
X66430Y586050D01*
X66120Y585900D01*
X65810Y585770D01*
X65490Y585660D01*
X65160Y585560D01*
X64830Y585480D01*
X64500Y585420D01*
X64160Y585380D01*
X63820Y585350D01*
X63480Y585340D01*
X57480D01*
X57140Y585350D01*
X56800Y585380D01*
X56460Y585420D01*
X56130Y585480D01*
X55800Y585560D01*
X55470Y585660D01*
X55150Y585770D01*
X54840Y585900D01*
X54530Y586050D01*
X54230Y586210D01*
X53940Y586390D01*
X53660Y586580D01*
X53390Y586790D01*
X53130Y587010D01*
X52880Y587240D01*
X52650Y587490D01*
X52430Y587750D01*
X52220Y588020D01*
X52030Y588300D01*
X51850Y588590D01*
X51690Y588890D01*
X51540Y589200D01*
X51410Y589510D01*
X51300Y589830D01*
X51200Y590160D01*
X51120Y590490D01*
X51060Y590820D01*
X51020Y591160D01*
X50990Y591500D01*
X50980Y591840D01*
X50990Y592180D01*
X51020Y592520D01*
X51060Y592860D01*
X51120Y593190D01*
X51200Y593520D01*
X51300Y593850D01*
X51410Y594170D01*
X51540Y594480D01*
X51690Y594790D01*
X51850Y595090D01*
X52030Y595380D01*
X52220Y595660D01*
X52430Y595930D01*
X52650Y596190D01*
X52880Y596440D01*
X53130Y596670D01*
X53390Y596890D01*
X53660Y597100D01*
X53940Y597290D01*
X54230Y597470D01*
X54530Y597630D01*
X54840Y597780D01*
X55150Y597910D01*
X55470Y598020D01*
X55800Y598120D01*
X56130Y598200D01*
X56460Y598260D01*
X56800Y598300D01*
X57140Y598330D01*
X57480Y598340D01*
X63480D01*
X63820Y598330D01*
X64160Y598300D01*
X64500Y598260D01*
X64830Y598200D01*
X65160Y598120D01*
X65490Y598020D01*
X65810Y597910D01*
X66120Y597780D01*
X66430Y597630D01*
X66730Y597470D01*
X67020Y597290D01*
X67300Y597100D01*
X67570Y596890D01*
X67830Y596670D01*
X68080Y596440D01*
X68310Y596190D01*
X68530Y595930D01*
X68740Y595660D01*
X68930Y595380D01*
X69110Y595090D01*
X69270Y594790D01*
X69420Y594480D01*
X69550Y594170D01*
X69660Y593850D01*
X69760Y593520D01*
X69840Y593190D01*
X69900Y592860D01*
X69940Y592520D01*
X69970Y592180D01*
X69980Y591840D01*
X69970Y591500D01*
D02*
G37*
D99*
X409250Y28500D02*
D03*
D100*
X209228Y562546D02*
D03*
D101*
X234228D02*
D03*
D102*
X454500Y570000D02*
D03*
D119*
X285100Y241980D02*
D03*
X313100D02*
D03*
X299100Y227980D02*
D03*
Y241980D02*
D03*
X313100Y227980D02*
D03*
X285100Y213980D02*
D03*
X271100Y227980D02*
D03*
Y241980D02*
D03*
X285100Y227980D02*
D03*
X271100Y213980D02*
D03*
X313100Y199980D02*
D03*
Y213980D02*
D03*
X299100D02*
D03*
X271100Y199980D02*
D03*
X299100D02*
D03*
X285100D02*
D03*
M02*
