G04*
G04 #@! TF.GenerationSoftware,Altium Limited,Altium Designer,25.8.1 (18)*
G04*
G04 Layer_Color=32768*
%FSLAX44Y44*%
%MOMM*%
G71*
G04*
G04 #@! TF.SameCoordinates,16AD229D-0A12-456A-95A7-24712EE817D5*
G04*
G04*
G04 #@! TF.FilePolarity,Positive*
G04*
G01*
G75*
%ADD10C,0.1000*%
%ADD13C,0.1524*%
%ADD120C,0.0500*%
G36*
X101380Y80256D02*
Y111368D01*
X96340Y116408D01*
X65228D01*
X60188Y111368D01*
Y80256D01*
X65228Y75216D01*
X96340D01*
X101380Y80256D01*
D02*
G37*
D10*
X438770Y205717D02*
Y211717D01*
X435770Y208717D02*
X441770D01*
X104920Y521034D02*
Y531034D01*
X99920Y526034D02*
X109920D01*
X300308Y273324D02*
X310308D01*
X305308Y268324D02*
Y278324D01*
X171728Y405542D02*
Y415542D01*
X166728Y410542D02*
X176728D01*
X211154Y488950D02*
X221154D01*
X216154Y483950D02*
Y493950D01*
X264494Y472440D02*
X274494D01*
X269494Y467440D02*
Y477440D01*
X461376Y210797D02*
Y216797D01*
X458376Y213797D02*
X464376D01*
X104800Y495854D02*
Y505854D01*
X99800Y500854D02*
X109800D01*
X290576Y35632D02*
Y44632D01*
X286076Y40132D02*
X295076D01*
X380250Y92000D02*
X390250D01*
X385250Y87000D02*
Y97000D01*
X333250Y96500D02*
Y106500D01*
X328250Y101500D02*
X338250D01*
X414100Y213797D02*
X420100D01*
X417100Y210797D02*
Y216797D01*
X384882Y354330D02*
X393882D01*
X389382Y349830D02*
Y358830D01*
X372246Y286250D02*
Y296250D01*
X367246Y291250D02*
X377246D01*
X305308Y286866D02*
Y296866D01*
X300308Y291866D02*
X310308D01*
X228746Y248250D02*
Y258250D01*
X223746Y253250D02*
X233746D01*
X178826Y326824D02*
X187826D01*
X183326Y322324D02*
Y331324D01*
X190860Y254948D02*
Y264948D01*
X185860Y259948D02*
X195860D01*
X190864Y274948D02*
Y284948D01*
X185864Y279948D02*
X195864D01*
X194576Y324324D02*
X204576D01*
X199576Y319324D02*
Y329324D01*
X186348Y241492D02*
X196348D01*
X191348Y236492D02*
Y246492D01*
X191094Y218742D02*
Y228742D01*
X186094Y223742D02*
X196094D01*
X190969Y201117D02*
Y211117D01*
X185969Y206117D02*
X195969D01*
X303530Y303876D02*
Y312876D01*
X299030Y308376D02*
X308030D01*
X287100Y220980D02*
X297100D01*
X292100Y215980D02*
Y225980D01*
X359906Y131042D02*
Y141042D01*
X354906Y136042D02*
X364906D01*
X366504Y255250D02*
X376504D01*
X371504Y250250D02*
Y260250D01*
X367004Y273500D02*
X377004D01*
X372004Y268500D02*
Y278500D01*
X359652Y167618D02*
Y177618D01*
X354652Y172618D02*
X364652D01*
X354652Y154076D02*
X364652D01*
X359652Y149076D02*
Y159076D01*
X414528Y368380D02*
Y378380D01*
X409528Y373380D02*
X419528D01*
X319532Y401138D02*
Y410138D01*
X315032Y405638D02*
X324032D01*
X117500Y71996D02*
X127500D01*
X122500Y66996D02*
Y76996D01*
X224750Y166500D02*
Y175500D01*
X220250Y171000D02*
X229250D01*
X219782Y155956D02*
X228782D01*
X224282Y151456D02*
Y160456D01*
X194228Y396296D02*
X203228D01*
X198728Y391796D02*
Y400796D01*
X230478Y391796D02*
Y400796D01*
X225978Y396296D02*
X234978D01*
X276352Y427046D02*
Y436046D01*
X271852Y431546D02*
X280852D01*
X350520Y473020D02*
Y482020D01*
X346020Y477520D02*
X355020D01*
X335280Y473020D02*
Y482020D01*
X330780Y477520D02*
X339780D01*
X96008Y573532D02*
X105008D01*
X100508Y569032D02*
Y578032D01*
X96008Y560832D02*
X105008D01*
X100508Y556332D02*
Y565332D01*
X214478Y391796D02*
Y400796D01*
X209978Y396296D02*
X218978D01*
X261112Y427300D02*
Y436300D01*
X256612Y431800D02*
X265612D01*
X246478Y391796D02*
Y400796D01*
X241978Y396296D02*
X250978D01*
X98750Y38750D02*
Y47750D01*
X94250Y43250D02*
X103250D01*
X68250Y40000D02*
Y49000D01*
X63750Y44500D02*
X72750D01*
X262478Y392046D02*
Y401046D01*
X257978Y396546D02*
X266978D01*
X191478Y421546D02*
X200478D01*
X195978Y417046D02*
Y426046D01*
X210646Y505968D02*
X220646D01*
X215646Y500968D02*
Y510968D01*
X182880Y454232D02*
Y464232D01*
X177880Y459232D02*
X187880D01*
X210820Y66374D02*
Y76374D01*
X205820Y71374D02*
X215820D01*
X215900Y27766D02*
Y37766D01*
X210900Y32766D02*
X220900D01*
X143452Y67465D02*
Y77465D01*
X138452Y72465D02*
X148452D01*
X49000Y49496D02*
Y59496D01*
X44000Y54496D02*
X54000D01*
X352778Y539046D02*
Y549046D01*
X347778Y544046D02*
X357778D01*
X375750Y465500D02*
Y475500D01*
X370750Y470500D02*
X380750D01*
X332528Y508546D02*
Y518546D01*
X327528Y513546D02*
X337528D01*
D13*
X89228Y116408D02*
X96340D01*
X101380Y111368D01*
Y80256D02*
Y87368D01*
X96340Y75216D02*
X101380Y80256D01*
X65228Y75216D02*
X72340D01*
X60188Y80256D02*
X65228Y75216D01*
X60188Y104256D02*
Y111368D01*
X65228Y116408D01*
X89228D01*
X60188Y80256D02*
Y104321D01*
X72340Y75216D02*
X96340D01*
X101380Y87368D02*
Y111368D01*
X310236Y177673D02*
X334924D01*
X310236Y155575D02*
X334924D01*
X309499Y177673D02*
X310236D01*
X334924D02*
X335661D01*
Y155575D02*
Y177673D01*
X334924Y155575D02*
X335661D01*
X309499D02*
X310236D01*
X309499D02*
Y177673D01*
D120*
X433770Y218217D02*
X443770D01*
X433770Y199217D02*
X443770D01*
Y218217D01*
X433770Y199217D02*
Y218217D01*
X126820Y516784D02*
Y535284D01*
X83020Y516784D02*
X126820D01*
X83020D02*
Y535284D01*
X126820D01*
X287528Y264824D02*
Y281824D01*
X323088Y264824D02*
Y281824D01*
X287528D02*
X323088D01*
X287528Y264824D02*
X323088D01*
X163228Y428322D02*
X180228D01*
X163228Y392762D02*
X180228D01*
Y428322D01*
X163228Y392762D02*
Y428322D01*
X198374Y480450D02*
Y497450D01*
X233934Y480450D02*
Y497450D01*
X198374D02*
X233934D01*
X198374Y480450D02*
X233934D01*
X251714Y463940D02*
Y480940D01*
X287274Y463940D02*
Y480940D01*
X251714D02*
X287274D01*
X251714Y463940D02*
X287274D01*
X451876Y208797D02*
X470876D01*
X451876Y218797D02*
X470876D01*
Y208797D02*
Y218797D01*
X451876Y208797D02*
Y218797D01*
X255970Y306504D02*
X279970D01*
X255970Y265504D02*
Y306504D01*
Y265504D02*
X279970D01*
Y306504D01*
X126700Y491604D02*
Y510104D01*
X82900Y491604D02*
X126700D01*
X82900D02*
Y510104D01*
X126700D01*
X345512Y125454D02*
X375512D01*
X345512Y90454D02*
Y125454D01*
Y90454D02*
X375512D01*
Y125454D01*
X275576Y33132D02*
X305576D01*
X275576D02*
Y47132D01*
X305576Y33132D02*
Y47132D01*
X275576D02*
X305576D01*
X376750Y74220D02*
Y109780D01*
X393750Y74220D02*
Y109780D01*
X376750Y74220D02*
X393750D01*
X376750Y109780D02*
X393750D01*
X324750Y119280D02*
X341750D01*
X324750Y83720D02*
X341750D01*
Y119280D01*
X324750Y83720D02*
Y119280D01*
X407600Y208797D02*
Y218797D01*
X426600Y208797D02*
Y218797D01*
X407600D02*
X426600D01*
X407600Y208797D02*
X426600D01*
X30926Y231906D02*
X68926D01*
X30926Y168906D02*
Y231906D01*
Y168906D02*
X68926D01*
Y231906D01*
X374382Y347330D02*
X404382D01*
X374382D02*
Y361330D01*
X404382Y347330D02*
Y361330D01*
X374382D02*
X404382D01*
X354466Y299750D02*
X390026D01*
X354466Y282750D02*
X390026D01*
X354466D02*
Y299750D01*
X390026Y282750D02*
Y299750D01*
X287528Y283366D02*
X323088D01*
X287528Y300366D02*
X323088D01*
Y283366D02*
Y300366D01*
X287528Y283366D02*
Y300366D01*
X249092Y264630D02*
Y278930D01*
X219792Y264630D02*
Y278930D01*
X249092D01*
X219792Y264630D02*
X249092D01*
X210966Y261750D02*
X246526D01*
X210966Y244750D02*
X246526D01*
X210966D02*
Y261750D01*
X246526Y244750D02*
Y261750D01*
X190326Y311824D02*
Y341824D01*
X176326Y311824D02*
X190326D01*
X176326Y341824D02*
X190326D01*
X176326Y311824D02*
Y341824D01*
X173080Y268448D02*
X208640D01*
X173080Y251448D02*
X208640D01*
X173080D02*
Y268448D01*
X208640Y251448D02*
Y268448D01*
X173084Y288448D02*
X208644D01*
X173084Y271448D02*
X208644D01*
X173084D02*
Y288448D01*
X208644Y271448D02*
Y288448D01*
X208076Y306544D02*
Y342104D01*
X191076Y306544D02*
Y342104D01*
X208076D01*
X191076Y306544D02*
X208076D01*
X209128Y232992D02*
Y249992D01*
X173568Y232992D02*
Y249992D01*
Y232992D02*
X209128D01*
X173568Y249992D02*
X209128D01*
X173314Y232242D02*
X208874D01*
X173314Y215242D02*
X208874D01*
X173314D02*
Y232242D01*
X208874Y215242D02*
Y232242D01*
X173189Y214617D02*
X208749D01*
X173189Y197617D02*
X208749D01*
X173189D02*
Y214617D01*
X208749Y197617D02*
Y214617D01*
X288530Y315376D02*
X318530D01*
Y301376D02*
Y315376D01*
X288530Y301376D02*
Y315376D01*
Y301376D02*
X318530D01*
X333100Y179980D02*
Y261980D01*
X251100Y179980D02*
Y261980D01*
X333100D01*
X251100Y179980D02*
X333100D01*
X342126Y144542D02*
X377686D01*
X342126Y127542D02*
X377686D01*
X342126D02*
Y144542D01*
X377686Y127542D02*
Y144542D01*
X353724Y246750D02*
Y263750D01*
X389284Y246750D02*
Y263750D01*
X353724D02*
X389284D01*
X353724Y246750D02*
X389284D01*
X354224Y265000D02*
Y282000D01*
X389784Y265000D02*
Y282000D01*
X354224D02*
X389784D01*
X354224Y265000D02*
X389784D01*
X341872Y164118D02*
X377432D01*
X341872Y181118D02*
X377432D01*
Y164118D02*
Y181118D01*
X341872Y164118D02*
Y181118D01*
Y145576D02*
Y162576D01*
X377432Y145576D02*
Y162576D01*
X341872D02*
X377432D01*
X341872Y145576D02*
X377432D01*
X406028Y391160D02*
X423028D01*
X406028Y355600D02*
X423028D01*
Y391160D01*
X406028Y355600D02*
Y391160D01*
X326532Y390638D02*
Y420638D01*
X312532Y390638D02*
X326532D01*
X312532Y420638D02*
X326532D01*
X312532Y390638D02*
Y420638D01*
X114000Y54216D02*
Y89776D01*
X131000Y54216D02*
Y89776D01*
X114000Y54216D02*
X131000D01*
X114000Y89776D02*
X131000D01*
X209750Y178000D02*
X239750D01*
Y164000D02*
Y178000D01*
X209750Y164000D02*
Y178000D01*
Y164000D02*
X239750D01*
X209282Y148956D02*
X239282D01*
X209282D02*
Y162956D01*
X239282Y148956D02*
Y162956D01*
X209282D02*
X239282D01*
X205728Y381296D02*
Y411296D01*
X191728Y381296D02*
X205728D01*
X191728Y411296D02*
X205728D01*
X191728Y381296D02*
Y411296D01*
X73980Y497140D02*
Y600140D01*
X-6020Y497140D02*
X73980D01*
X-6020D02*
Y600140D01*
X73980D01*
X201978Y426296D02*
Y470296D01*
Y426296D02*
X245978D01*
Y470296D01*
X201978D02*
X245978D01*
X28950Y89700D02*
Y111300D01*
Y89700D02*
X54550D01*
Y111300D01*
X28950D02*
X54550D01*
X346778Y520446D02*
X349978D01*
Y521846D01*
X375578D01*
Y520446D02*
Y521846D01*
Y520446D02*
X378778D01*
X375578Y497646D02*
X378778D01*
X375578Y496246D02*
Y497646D01*
X349978Y496246D02*
X375578D01*
X349978D02*
Y497646D01*
X346778D02*
X349978D01*
X346778D02*
Y520446D01*
X378778Y497646D02*
Y520446D01*
X346778Y497646D02*
Y520446D01*
X151484Y94086D02*
Y113686D01*
Y94086D02*
X173484D01*
Y113686D01*
X151484D02*
X173484D01*
X156250Y32000D02*
X195250D01*
Y94000D01*
X156250D02*
X195250D01*
X156250Y32000D02*
Y94000D01*
X237478Y381296D02*
Y411296D01*
X223478Y381296D02*
X237478D01*
X223478Y411296D02*
X237478D01*
X223478Y381296D02*
Y411296D01*
X283352Y416546D02*
Y446546D01*
X269352Y416546D02*
X283352D01*
X269352Y446546D02*
X283352D01*
X269352Y416546D02*
Y446546D01*
X343520Y462520D02*
Y492520D01*
X357520D01*
X343520Y462520D02*
X357520D01*
Y492520D01*
X328280Y462520D02*
Y492520D01*
X342280D01*
X328280Y462520D02*
X342280D01*
Y492520D01*
X85508Y580532D02*
X115508D01*
Y566532D02*
Y580532D01*
X85508Y566532D02*
Y580532D01*
Y566532D02*
X115508D01*
X85508Y567832D02*
X115508D01*
Y553832D02*
Y567832D01*
X85508Y553832D02*
Y567832D01*
Y553832D02*
X115508D01*
X221478Y381296D02*
Y411296D01*
X207478Y381296D02*
X221478D01*
X207478Y411296D02*
X221478D01*
X207478Y381296D02*
Y411296D01*
X254112Y416800D02*
Y446800D01*
X268112D01*
X254112Y416800D02*
X268112D01*
Y446800D01*
X239478Y381296D02*
Y411296D01*
X253478D01*
X239478Y381296D02*
X253478D01*
Y411296D01*
X105750Y28250D02*
Y58250D01*
X91750Y28250D02*
X105750D01*
X91750Y58250D02*
X105750D01*
X91750Y28250D02*
Y58250D01*
X75250Y29500D02*
Y59500D01*
X61250Y29500D02*
X75250D01*
X61250Y59500D02*
X75250D01*
X61250Y29500D02*
Y59500D01*
X255478Y381546D02*
Y411546D01*
X269478D01*
X255478Y381546D02*
X269478D01*
Y411546D01*
X180978Y428546D02*
X210978D01*
Y414546D02*
Y428546D01*
X180978Y414546D02*
Y428546D01*
Y414546D02*
X210978D01*
X197866Y497468D02*
Y514468D01*
X233426Y497468D02*
Y514468D01*
X197866D02*
X233426D01*
X197866Y497468D02*
X233426D01*
X174380Y441452D02*
X191380D01*
X174380Y477012D02*
X191380D01*
X174380Y441452D02*
Y477012D01*
X191380Y441452D02*
Y477012D01*
X202320Y53594D02*
X219320D01*
X202320Y89154D02*
X219320D01*
X202320Y53594D02*
Y89154D01*
X219320Y53594D02*
Y89154D01*
X207400Y50546D02*
X224400D01*
X207400Y14986D02*
X224400D01*
Y50546D01*
X207400Y14986D02*
Y50546D01*
X134952Y90245D02*
X151952D01*
X134952Y54685D02*
X151952D01*
Y90245D01*
X134952Y54685D02*
Y90245D01*
X40500Y72276D02*
X57500D01*
X40500Y36716D02*
X57500D01*
Y72276D01*
X40500Y36716D02*
Y72276D01*
X344278Y526266D02*
X361278D01*
X344278Y561826D02*
X361278D01*
X344278Y526266D02*
Y561826D01*
X361278Y526266D02*
Y561826D01*
X367250Y452720D02*
X384250D01*
X367250Y488280D02*
X384250D01*
X367250Y452720D02*
Y488280D01*
X384250Y452720D02*
Y488280D01*
X324028Y495766D02*
X341028D01*
X324028Y531326D02*
X341028D01*
X324028Y495766D02*
Y531326D01*
X341028Y495766D02*
Y531326D01*
M02*
