G04*
G04 #@! TF.GenerationSoftware,Altium Limited,Altium Designer,25.8.1 (18)*
G04*
G04 Layer_Physical_Order=2*
G04 Layer_Color=16711680*
%FSLAX44Y44*%
%MOMM*%
G71*
G04*
G04 #@! TF.SameCoordinates,16AD229D-0A12-456A-95A7-24712EE817D5*
G04*
G04*
G04 #@! TF.FilePolarity,Positive*
G04*
G01*
G75*
%ADD11C,0.2540*%
%ADD13C,0.1524*%
%ADD100C,1.5500*%
%ADD101R,1.5500X1.5500*%
%ADD113C,4.5720*%
%ADD114C,0.3000*%
%ADD115O,1.6000X1.0000*%
%ADD116C,0.4064*%
%ADD117C,0.6350*%
%ADD118C,0.2540*%
%ADD119C,0.5000*%
G36*
X607151Y267250D02*
X486750D01*
Y2849D01*
X2849D01*
Y597151D01*
X16600D01*
X16909Y596135D01*
X15875Y595445D01*
X14770Y593791D01*
X14635Y593110D01*
X30325D01*
X30190Y593791D01*
X29085Y595445D01*
X28051Y596135D01*
X28360Y597151D01*
X54600D01*
X54909Y596135D01*
X53875Y595445D01*
X52770Y593791D01*
X52635Y593110D01*
X68325D01*
X68190Y593791D01*
X67085Y595445D01*
X66051Y596135D01*
X66360Y597151D01*
X607151D01*
Y267250D01*
D02*
G37*
%LPC*%
G36*
X68325Y590570D02*
X61750D01*
Y586742D01*
X63480D01*
X65431Y587130D01*
X67085Y588235D01*
X68190Y589889D01*
X68325Y590570D01*
D02*
G37*
G36*
X59210D02*
X52635D01*
X52770Y589889D01*
X53875Y588235D01*
X55529Y587130D01*
X57480Y586742D01*
X59210D01*
Y590570D01*
D02*
G37*
G36*
X30325D02*
X23750D01*
Y586742D01*
X25480D01*
X27431Y587130D01*
X29085Y588235D01*
X30190Y589889D01*
X30325Y590570D01*
D02*
G37*
G36*
X21210D02*
X14635D01*
X14770Y589889D01*
X15875Y588235D01*
X17529Y587130D01*
X19480Y586742D01*
X21210D01*
Y590570D01*
D02*
G37*
G36*
X210498Y570229D02*
Y563816D01*
X216911D01*
X216450Y565537D01*
X215429Y567305D01*
X213987Y568747D01*
X212219Y569768D01*
X210498Y570229D01*
D02*
G37*
G36*
X207958D02*
X206237Y569768D01*
X204469Y568747D01*
X203027Y567305D01*
X202006Y565537D01*
X201545Y563816D01*
X207958D01*
Y570229D01*
D02*
G37*
G36*
X216911Y561276D02*
X210498D01*
Y554863D01*
X212219Y555324D01*
X213987Y556344D01*
X215429Y557787D01*
X216450Y559555D01*
X216911Y561276D01*
D02*
G37*
G36*
X207958D02*
X201545D01*
X202006Y559555D01*
X203027Y557787D01*
X204469Y556344D01*
X206237Y555324D01*
X207958Y554863D01*
Y561276D01*
D02*
G37*
G36*
X243502Y571820D02*
X224954D01*
Y553272D01*
X243502D01*
Y571820D01*
D02*
G37*
G36*
X63480Y510538D02*
X61750D01*
Y506710D01*
X68325D01*
X68190Y507391D01*
X67085Y509045D01*
X65431Y510150D01*
X63480Y510538D01*
D02*
G37*
G36*
X59210D02*
X57480D01*
X55529Y510150D01*
X53875Y509045D01*
X52770Y507391D01*
X52635Y506710D01*
X59210D01*
Y510538D01*
D02*
G37*
G36*
X25480D02*
X23750D01*
Y506710D01*
X30325D01*
X30190Y507391D01*
X29085Y509045D01*
X27431Y510150D01*
X25480Y510538D01*
D02*
G37*
G36*
X21210D02*
X19480D01*
X17529Y510150D01*
X15875Y509045D01*
X14770Y507391D01*
X14635Y506710D01*
X21210D01*
Y510538D01*
D02*
G37*
G36*
X68325Y504170D02*
X61750D01*
Y500342D01*
X63480D01*
X65431Y500730D01*
X67085Y501835D01*
X68190Y503489D01*
X68325Y504170D01*
D02*
G37*
G36*
X59210D02*
X52635D01*
X52770Y503489D01*
X53875Y501835D01*
X55529Y500730D01*
X57480Y500342D01*
X59210D01*
Y504170D01*
D02*
G37*
G36*
X30325D02*
X23750D01*
Y500342D01*
X25480D01*
X27431Y500730D01*
X29085Y501835D01*
X30190Y503489D01*
X30325Y504170D01*
D02*
G37*
G36*
X21210D02*
X14635D01*
X14770Y503489D01*
X15875Y501835D01*
X17529Y500730D01*
X19480Y500342D01*
X21210D01*
Y504170D01*
D02*
G37*
G36*
X121067Y290306D02*
X119653D01*
X118346Y289765D01*
X117345Y288764D01*
X116804Y287457D01*
Y286043D01*
X117345Y284736D01*
X118346Y283735D01*
X119653Y283194D01*
X121067D01*
X122171Y283651D01*
X147742D01*
X148158Y283235D01*
X149465Y282694D01*
X150879D01*
X152186Y283235D01*
X153187Y284236D01*
X153728Y285543D01*
Y286957D01*
X153187Y288264D01*
X152186Y289265D01*
X150879Y289806D01*
X149465D01*
X148361Y289349D01*
X122790D01*
X122374Y289765D01*
X121067Y290306D01*
D02*
G37*
G36*
X284957Y280556D02*
X283543D01*
X282236Y280015D01*
X281235Y279014D01*
X280694Y277707D01*
Y276293D01*
X281235Y274986D01*
X281919Y274302D01*
Y267187D01*
X281978Y266893D01*
X281694Y266207D01*
Y264793D01*
X282235Y263486D01*
X283236Y262485D01*
X284543Y261944D01*
X285957D01*
X287264Y262485D01*
X288265Y263486D01*
X288806Y264793D01*
Y266207D01*
X288265Y267514D01*
X287264Y268515D01*
X286581Y268798D01*
Y274302D01*
X287265Y274986D01*
X287806Y276293D01*
Y277707D01*
X287265Y279014D01*
X286264Y280015D01*
X284957Y280556D01*
D02*
G37*
G36*
X314370Y244160D02*
Y243250D01*
X315280D01*
X315219Y243396D01*
X314516Y244099D01*
X314370Y244160D01*
D02*
G37*
G36*
X311830D02*
X311684Y244099D01*
X310981Y243396D01*
X310920Y243250D01*
X311830D01*
Y244160D01*
D02*
G37*
G36*
X300370D02*
Y243250D01*
X301280D01*
X301219Y243396D01*
X300516Y244099D01*
X300370Y244160D01*
D02*
G37*
G36*
X297830D02*
X297684Y244099D01*
X296981Y243396D01*
X296920Y243250D01*
X297830D01*
Y244160D01*
D02*
G37*
G36*
X286370D02*
Y243250D01*
X287280D01*
X287219Y243396D01*
X286516Y244099D01*
X286370Y244160D01*
D02*
G37*
G36*
X283830D02*
X283684Y244099D01*
X282981Y243396D01*
X282920Y243250D01*
X283830D01*
Y244160D01*
D02*
G37*
G36*
X272370D02*
Y243250D01*
X273280D01*
X273219Y243396D01*
X272516Y244099D01*
X272370Y244160D01*
D02*
G37*
G36*
X269830D02*
X269684Y244099D01*
X268981Y243396D01*
X268920Y243250D01*
X269830D01*
Y244160D01*
D02*
G37*
G36*
X315280Y240710D02*
X314370D01*
Y239800D01*
X314516Y239861D01*
X315219Y240564D01*
X315280Y240710D01*
D02*
G37*
G36*
X311830D02*
X310920D01*
X310981Y240564D01*
X311684Y239861D01*
X311830Y239800D01*
Y240710D01*
D02*
G37*
G36*
X301280D02*
X300370D01*
Y239800D01*
X300516Y239861D01*
X301219Y240564D01*
X301280Y240710D01*
D02*
G37*
G36*
X297830D02*
X296920D01*
X296981Y240564D01*
X297684Y239861D01*
X297830Y239800D01*
Y240710D01*
D02*
G37*
G36*
X287280D02*
X286370D01*
Y239800D01*
X286516Y239861D01*
X287219Y240564D01*
X287280Y240710D01*
D02*
G37*
G36*
X283830D02*
X282920D01*
X282981Y240564D01*
X283684Y239861D01*
X283830Y239800D01*
Y240710D01*
D02*
G37*
G36*
X273280D02*
X272370D01*
Y239800D01*
X272516Y239861D01*
X273219Y240564D01*
X273280Y240710D01*
D02*
G37*
G36*
X269830D02*
X268920D01*
X268981Y240564D01*
X269684Y239861D01*
X269830Y239800D01*
Y240710D01*
D02*
G37*
G36*
X314370Y230160D02*
Y229250D01*
X315280D01*
X315219Y229396D01*
X314516Y230099D01*
X314370Y230160D01*
D02*
G37*
G36*
X311830D02*
X311684Y230099D01*
X310981Y229396D01*
X310920Y229250D01*
X311830D01*
Y230160D01*
D02*
G37*
G36*
X300370D02*
Y229250D01*
X301280D01*
X301219Y229396D01*
X300516Y230099D01*
X300370Y230160D01*
D02*
G37*
G36*
X297830D02*
X297684Y230099D01*
X296981Y229396D01*
X296920Y229250D01*
X297830D01*
Y230160D01*
D02*
G37*
G36*
X286370D02*
Y229250D01*
X287280D01*
X287219Y229396D01*
X286516Y230099D01*
X286370Y230160D01*
D02*
G37*
G36*
X283830D02*
X283684Y230099D01*
X282981Y229396D01*
X282920Y229250D01*
X283830D01*
Y230160D01*
D02*
G37*
G36*
X272370D02*
Y229250D01*
X273280D01*
X273219Y229396D01*
X272516Y230099D01*
X272370Y230160D01*
D02*
G37*
G36*
X269830D02*
X269684Y230099D01*
X268981Y229396D01*
X268920Y229250D01*
X269830D01*
Y230160D01*
D02*
G37*
G36*
X315280Y226710D02*
X314370D01*
Y225800D01*
X314516Y225861D01*
X315219Y226564D01*
X315280Y226710D01*
D02*
G37*
G36*
X311830D02*
X310920D01*
X310981Y226564D01*
X311684Y225861D01*
X311830Y225800D01*
Y226710D01*
D02*
G37*
G36*
X301280D02*
X300370D01*
Y225800D01*
X300516Y225861D01*
X301219Y226564D01*
X301280Y226710D01*
D02*
G37*
G36*
X297830D02*
X296920D01*
X296981Y226564D01*
X297684Y225861D01*
X297830Y225800D01*
Y226710D01*
D02*
G37*
G36*
X287280D02*
X286370D01*
Y225800D01*
X286516Y225861D01*
X287219Y226564D01*
X287280Y226710D01*
D02*
G37*
G36*
X283830D02*
X282920D01*
X282981Y226564D01*
X283684Y225861D01*
X283830Y225800D01*
Y226710D01*
D02*
G37*
G36*
X273280D02*
X272370D01*
Y225800D01*
X272516Y225861D01*
X273219Y226564D01*
X273280Y226710D01*
D02*
G37*
G36*
X269830D02*
X268920D01*
X268981Y226564D01*
X269684Y225861D01*
X269830Y225800D01*
Y226710D01*
D02*
G37*
G36*
X314370Y216160D02*
Y215250D01*
X315280D01*
X315219Y215396D01*
X314516Y216099D01*
X314370Y216160D01*
D02*
G37*
G36*
X311830D02*
X311684Y216099D01*
X310981Y215396D01*
X310920Y215250D01*
X311830D01*
Y216160D01*
D02*
G37*
G36*
X300370D02*
Y215250D01*
X301280D01*
X301219Y215396D01*
X300516Y216099D01*
X300370Y216160D01*
D02*
G37*
G36*
X297830D02*
X297684Y216099D01*
X296981Y215396D01*
X296920Y215250D01*
X297830D01*
Y216160D01*
D02*
G37*
G36*
X286370D02*
Y215250D01*
X287280D01*
X287219Y215396D01*
X286516Y216099D01*
X286370Y216160D01*
D02*
G37*
G36*
X283830D02*
X283684Y216099D01*
X282981Y215396D01*
X282920Y215250D01*
X283830D01*
Y216160D01*
D02*
G37*
G36*
X272370D02*
Y215250D01*
X273280D01*
X273219Y215396D01*
X272516Y216099D01*
X272370Y216160D01*
D02*
G37*
G36*
X269830D02*
X269684Y216099D01*
X268981Y215396D01*
X268920Y215250D01*
X269830D01*
Y216160D01*
D02*
G37*
G36*
X132707Y230556D02*
X131293D01*
X129986Y230015D01*
X128985Y229014D01*
X128444Y227707D01*
Y226293D01*
X128985Y224986D01*
X129669Y224302D01*
Y218448D01*
X128985Y217764D01*
X128444Y216457D01*
Y215043D01*
X128985Y213736D01*
X129986Y212735D01*
X131293Y212194D01*
X132707D01*
X134014Y212735D01*
X135015Y213736D01*
X135556Y215043D01*
Y216457D01*
X135015Y217764D01*
X134331Y218448D01*
Y224302D01*
X135015Y224986D01*
X135556Y226293D01*
Y227707D01*
X135015Y229014D01*
X134014Y230015D01*
X132707Y230556D01*
D02*
G37*
G36*
X315280Y212710D02*
X314370D01*
Y211800D01*
X314516Y211861D01*
X315219Y212564D01*
X315280Y212710D01*
D02*
G37*
G36*
X311830D02*
X310920D01*
X310981Y212564D01*
X311684Y211861D01*
X311830Y211800D01*
Y212710D01*
D02*
G37*
G36*
X301280D02*
X300370D01*
Y211800D01*
X300516Y211861D01*
X301219Y212564D01*
X301280Y212710D01*
D02*
G37*
G36*
X297830D02*
X296920D01*
X296981Y212564D01*
X297684Y211861D01*
X297830Y211800D01*
Y212710D01*
D02*
G37*
G36*
X287280D02*
X286370D01*
Y211800D01*
X286516Y211861D01*
X287219Y212564D01*
X287280Y212710D01*
D02*
G37*
G36*
X283830D02*
X282920D01*
X282981Y212564D01*
X283684Y211861D01*
X283830Y211800D01*
Y212710D01*
D02*
G37*
G36*
X273280D02*
X272370D01*
Y211800D01*
X272516Y211861D01*
X273219Y212564D01*
X273280Y212710D01*
D02*
G37*
G36*
X269830D02*
X268920D01*
X268981Y212564D01*
X269684Y211861D01*
X269830Y211800D01*
Y212710D01*
D02*
G37*
G36*
X314370Y202160D02*
Y201250D01*
X315280D01*
X315219Y201396D01*
X314516Y202099D01*
X314370Y202160D01*
D02*
G37*
G36*
X311830D02*
X311684Y202099D01*
X310981Y201396D01*
X310920Y201250D01*
X311830D01*
Y202160D01*
D02*
G37*
G36*
X300370D02*
Y201250D01*
X301280D01*
X301219Y201396D01*
X300516Y202099D01*
X300370Y202160D01*
D02*
G37*
G36*
X297830D02*
X297684Y202099D01*
X296981Y201396D01*
X296920Y201250D01*
X297830D01*
Y202160D01*
D02*
G37*
G36*
X286370D02*
Y201250D01*
X287280D01*
X287219Y201396D01*
X286516Y202099D01*
X286370Y202160D01*
D02*
G37*
G36*
X283830D02*
X283684Y202099D01*
X282981Y201396D01*
X282920Y201250D01*
X283830D01*
Y202160D01*
D02*
G37*
G36*
X272370D02*
Y201250D01*
X273280D01*
X273219Y201396D01*
X272516Y202099D01*
X272370Y202160D01*
D02*
G37*
G36*
X269830D02*
X269684Y202099D01*
X268981Y201396D01*
X268920Y201250D01*
X269830D01*
Y202160D01*
D02*
G37*
G36*
X315280Y198710D02*
X314370D01*
Y197800D01*
X314516Y197861D01*
X315219Y198564D01*
X315280Y198710D01*
D02*
G37*
G36*
X311830D02*
X310920D01*
X310981Y198564D01*
X311684Y197861D01*
X311830Y197800D01*
Y198710D01*
D02*
G37*
G36*
X301280D02*
X300370D01*
Y197800D01*
X300516Y197861D01*
X301219Y198564D01*
X301280Y198710D01*
D02*
G37*
G36*
X297830D02*
X296920D01*
X296981Y198564D01*
X297684Y197861D01*
X297830Y197800D01*
Y198710D01*
D02*
G37*
G36*
X287280D02*
X286370D01*
Y197800D01*
X286516Y197861D01*
X287219Y198564D01*
X287280Y198710D01*
D02*
G37*
G36*
X283830D02*
X282920D01*
X282981Y198564D01*
X283684Y197861D01*
X283830Y197800D01*
Y198710D01*
D02*
G37*
G36*
X273280D02*
X272370D01*
Y197800D01*
X272516Y197861D01*
X273219Y198564D01*
X273280Y198710D01*
D02*
G37*
G36*
X269830D02*
X268920D01*
X268981Y198564D01*
X269684Y197861D01*
X269830Y197800D01*
Y198710D01*
D02*
G37*
G36*
X111207Y205741D02*
X109793D01*
X108486Y205200D01*
X107485Y204200D01*
X106944Y202892D01*
Y201478D01*
X107485Y200171D01*
X108294Y199362D01*
Y186573D01*
X107735Y186014D01*
X107194Y184707D01*
Y183293D01*
X107735Y181986D01*
X108736Y180985D01*
X110043Y180444D01*
X111457D01*
X112764Y180985D01*
X113765Y181986D01*
X114306Y183293D01*
Y184707D01*
X113765Y186014D01*
X112956Y186823D01*
Y199612D01*
X113515Y200171D01*
X114056Y201478D01*
Y202892D01*
X113515Y204200D01*
X112514Y205200D01*
X111207Y205741D01*
D02*
G37*
G36*
X235957Y184556D02*
X234543D01*
X233236Y184015D01*
X232235Y183014D01*
X231694Y181707D01*
Y180293D01*
X232235Y178986D01*
X233236Y177985D01*
X234543Y177444D01*
X235957D01*
X236458Y177651D01*
X249820D01*
X249986Y177485D01*
X251293Y176944D01*
X252707D01*
X254014Y177485D01*
X255015Y178486D01*
X255556Y179793D01*
Y181207D01*
X255015Y182514D01*
X254014Y183515D01*
X252707Y184056D01*
X251293D01*
X249986Y183515D01*
X249820Y183349D01*
X237930D01*
X237264Y184015D01*
X235957Y184556D01*
D02*
G37*
G36*
X91707Y170056D02*
X90293D01*
X88986Y169515D01*
X87985Y168514D01*
X87444Y167207D01*
Y165793D01*
X87985Y164486D01*
X88669Y163802D01*
Y158198D01*
X87985Y157514D01*
X87444Y156207D01*
Y154793D01*
X87985Y153486D01*
X88986Y152485D01*
X90293Y151944D01*
X91707D01*
X93014Y152485D01*
X94015Y153486D01*
X94556Y154793D01*
Y156207D01*
X94015Y157514D01*
X93331Y158198D01*
Y163802D01*
X94015Y164486D01*
X94556Y165793D01*
Y167207D01*
X94015Y168514D01*
X93014Y169515D01*
X91707Y170056D01*
D02*
G37*
G36*
X232707Y146306D02*
X231293D01*
X229986Y145765D01*
X229081Y144860D01*
X224305D01*
X223842Y145323D01*
X222535Y145864D01*
X221121D01*
X219814Y145323D01*
X218813Y144322D01*
X218272Y143015D01*
Y141601D01*
X218813Y140294D01*
X219814Y139293D01*
X221121Y138752D01*
X222535D01*
X223842Y139293D01*
X224747Y140198D01*
X229523D01*
X229986Y139735D01*
X231293Y139194D01*
X232707D01*
X234014Y139735D01*
X235015Y140736D01*
X235556Y142043D01*
Y143457D01*
X235015Y144764D01*
X234014Y145765D01*
X232707Y146306D01*
D02*
G37*
G36*
X76457Y140132D02*
X75043D01*
X73736Y139591D01*
X72735Y138590D01*
X72194Y137283D01*
Y135869D01*
X72735Y134562D01*
X73419Y133878D01*
Y128552D01*
X72735Y127868D01*
X72194Y126561D01*
Y125146D01*
X72735Y123839D01*
X73736Y122839D01*
X75043Y122297D01*
X76457D01*
X77764Y122839D01*
X78765Y123839D01*
X79306Y125146D01*
Y126561D01*
X78765Y127868D01*
X78081Y128552D01*
Y133878D01*
X78765Y134562D01*
X79306Y135869D01*
Y137283D01*
X78765Y138590D01*
X77764Y139591D01*
X76457Y140132D01*
D02*
G37*
G36*
X238283Y118306D02*
X236869D01*
X235562Y117765D01*
X234753Y116956D01*
X224401D01*
X223842Y117515D01*
X222535Y118056D01*
X221121D01*
X219814Y117515D01*
X218813Y116514D01*
X218272Y115207D01*
Y113793D01*
X218813Y112486D01*
X219814Y111485D01*
X221121Y110944D01*
X222535D01*
X223842Y111485D01*
X224651Y112294D01*
X235003D01*
X235562Y111735D01*
X236869Y111194D01*
X238283D01*
X239590Y111735D01*
X240591Y112736D01*
X241132Y114043D01*
Y115457D01*
X240591Y116764D01*
X239590Y117765D01*
X238283Y118306D01*
D02*
G37*
G36*
X111429Y131806D02*
X110015D01*
X108708Y131265D01*
X107707Y130264D01*
X107166Y128957D01*
Y127851D01*
X102371Y123056D01*
X101543D01*
X100236Y122515D01*
X99235Y121514D01*
X98694Y120207D01*
Y118793D01*
X99235Y117486D01*
X100236Y116485D01*
X101543Y115944D01*
X102957D01*
X104264Y116485D01*
X105265Y117486D01*
X105806Y118793D01*
Y119899D01*
X110601Y124694D01*
X111429D01*
X112736Y125235D01*
X113737Y126236D01*
X114278Y127543D01*
Y128957D01*
X113737Y130264D01*
X112736Y131265D01*
X111429Y131806D01*
D02*
G37*
G36*
X202420Y124094D02*
X201005D01*
X199698Y123552D01*
X198698Y122552D01*
X198157Y121245D01*
Y119830D01*
X198698Y118523D01*
X199698Y117523D01*
X201005Y116981D01*
X202097D01*
X209694Y109385D01*
Y108543D01*
X210235Y107236D01*
X211236Y106235D01*
X212543Y105694D01*
X213957D01*
X215264Y106235D01*
X216265Y107236D01*
X216806Y108543D01*
Y109957D01*
X216265Y111264D01*
X215264Y112265D01*
X213957Y112806D01*
X212865D01*
X205268Y120403D01*
Y121245D01*
X204727Y122552D01*
X203727Y123552D01*
X202420Y124094D01*
D02*
G37*
G36*
X397207Y122056D02*
X395793D01*
X394486Y121515D01*
X393485Y120514D01*
X392944Y119207D01*
Y117793D01*
X393485Y116486D01*
X393978Y115993D01*
Y106889D01*
X393103Y106014D01*
X392562Y104707D01*
Y103293D01*
X393103Y101986D01*
X394104Y100985D01*
X395411Y100444D01*
X396825D01*
X398132Y100985D01*
X399133Y101986D01*
X399674Y103293D01*
Y104707D01*
X399133Y106014D01*
X398640Y106507D01*
Y115611D01*
X399515Y116486D01*
X400056Y117793D01*
Y119207D01*
X399515Y120514D01*
X398514Y121515D01*
X397207Y122056D01*
D02*
G37*
G36*
X180457Y114556D02*
X179043D01*
X177736Y114015D01*
X176735Y113014D01*
X176194Y111707D01*
Y110293D01*
X176735Y108986D01*
X177151Y108570D01*
Y99561D01*
X176694Y98457D01*
Y97043D01*
X177235Y95736D01*
X178236Y94735D01*
X179543Y94194D01*
X180957D01*
X182264Y94735D01*
X183265Y95736D01*
X183806Y97043D01*
Y98457D01*
X183265Y99764D01*
X182849Y100180D01*
Y109189D01*
X183306Y110293D01*
Y111707D01*
X182765Y113014D01*
X181764Y114015D01*
X180457Y114556D01*
D02*
G37*
G36*
X112457Y62556D02*
X111043D01*
X109736Y62015D01*
X108735Y61014D01*
X108194Y59707D01*
Y58293D01*
X108735Y56986D01*
X108776Y56945D01*
Y43305D01*
X108485Y43014D01*
X107944Y41707D01*
Y40293D01*
X108485Y38986D01*
X109486Y37985D01*
X110793Y37444D01*
X112207D01*
X113514Y37985D01*
X114515Y38986D01*
X115056Y40293D01*
Y41707D01*
X114515Y43014D01*
X114474Y43055D01*
Y56695D01*
X114765Y56986D01*
X115306Y58293D01*
Y59707D01*
X114765Y61014D01*
X113764Y62015D01*
X112457Y62556D01*
D02*
G37*
G36*
X411502Y51360D02*
X410520D01*
Y29770D01*
X432110D01*
Y30752D01*
X431231Y35168D01*
X429508Y39328D01*
X427006Y43072D01*
X423822Y46256D01*
X420078Y48758D01*
X415918Y50482D01*
X411502Y51360D01*
D02*
G37*
G36*
X407980D02*
X406998D01*
X402582Y50482D01*
X398422Y48758D01*
X394678Y46256D01*
X391493Y43072D01*
X388992Y39328D01*
X387268Y35168D01*
X386390Y30752D01*
Y29770D01*
X407980D01*
Y51360D01*
D02*
G37*
G36*
X270207Y40374D02*
X268793D01*
X267486Y39833D01*
X266485Y38832D01*
X265944Y37525D01*
Y36111D01*
X266485Y34804D01*
X267169Y34120D01*
Y12198D01*
X266485Y11514D01*
X265944Y10207D01*
Y8793D01*
X266485Y7486D01*
X267486Y6485D01*
X268793Y5944D01*
X270207D01*
X271514Y6485D01*
X272515Y7486D01*
X273056Y8793D01*
Y10207D01*
X272515Y11514D01*
X271831Y12198D01*
Y34120D01*
X272515Y34804D01*
X273056Y36111D01*
Y37525D01*
X272515Y38832D01*
X271514Y39833D01*
X270207Y40374D01*
D02*
G37*
G36*
X432110Y27230D02*
X410520D01*
Y5640D01*
X411502D01*
X415918Y6518D01*
X420078Y8242D01*
X423822Y10743D01*
X427006Y13928D01*
X429508Y17672D01*
X431231Y21832D01*
X432110Y26249D01*
Y27230D01*
D02*
G37*
G36*
X407980D02*
X386390D01*
Y26249D01*
X387268Y21832D01*
X388992Y17672D01*
X391493Y13928D01*
X394678Y10743D01*
X398422Y8242D01*
X402582Y6518D01*
X406998Y5640D01*
X407980D01*
Y27230D01*
D02*
G37*
%LPD*%
D11*
X111625Y58875D02*
X111750Y59000D01*
X120360Y286750D02*
X120610Y286500D01*
X149922D01*
X150172Y286250D01*
X179750Y111000D02*
X180000Y110750D01*
Y98000D02*
X180250Y97750D01*
X180000Y98000D02*
Y110750D01*
X111625Y41125D02*
Y58875D01*
X111500Y41000D02*
X111625Y41125D01*
X235662Y181000D02*
X236162Y180500D01*
X252000D01*
X235250Y181000D02*
X235662D01*
D13*
X110625Y184125D02*
Y202060D01*
X110500Y202185D02*
X110625Y202060D01*
Y184125D02*
X110750Y184000D01*
X75750Y125854D02*
Y136576D01*
X269500Y9500D02*
Y36818D01*
X285250Y265500D02*
Y266187D01*
X284250Y267187D02*
X285250Y266187D01*
X284250Y267187D02*
Y277000D01*
X201712Y120538D02*
X201838D01*
X213125Y109250D02*
X213250D01*
X201838Y120538D02*
X213125Y109250D01*
X221953Y114625D02*
X237451D01*
X237576Y114750D01*
X221828Y114500D02*
X221953Y114625D01*
X110722Y128111D02*
Y128250D01*
X102250Y119639D02*
X110722Y128111D01*
X102250Y119500D02*
Y119639D01*
X132000Y215750D02*
Y227000D01*
X91000Y155500D02*
Y166500D01*
X221828Y142308D02*
X222049Y142529D01*
X231779D01*
X396309Y104191D02*
Y118309D01*
X396118Y104000D02*
X396309Y104191D01*
Y118309D02*
X396500Y118500D01*
X231779Y142529D02*
X232000Y142750D01*
D100*
X209228Y562546D02*
D03*
D101*
X234228D02*
D03*
D113*
X409250Y28500D02*
D03*
D114*
X223978Y448296D02*
D03*
X231728D02*
D03*
X223978Y440546D02*
D03*
Y456046D02*
D03*
X216228Y448296D02*
D03*
D115*
X60480Y591840D02*
D03*
X22480D02*
D03*
X60480Y505440D02*
D03*
X22480D02*
D03*
D116*
X204750Y18022D02*
D03*
X110500Y202185D02*
D03*
X414750Y345750D02*
D03*
X111750Y59000D02*
D03*
X58000Y46250D02*
D03*
X312000Y57500D02*
D03*
X75750Y136576D02*
D03*
Y125854D02*
D03*
X269500Y9500D02*
D03*
X277285Y21067D02*
D03*
X269500Y36818D02*
D03*
X260500Y21070D02*
D03*
X120360Y286750D02*
D03*
X134250Y278500D02*
D03*
Y295000D02*
D03*
X150172Y286250D02*
D03*
X285250Y265500D02*
D03*
X284250Y277000D02*
D03*
X180250Y97750D02*
D03*
X213250Y109250D02*
D03*
X221828Y114500D02*
D03*
X201712Y120538D02*
D03*
X251000Y423750D02*
D03*
X111500Y41000D02*
D03*
X110722Y128250D02*
D03*
X237576Y114750D02*
D03*
X102250Y119500D02*
D03*
X46250Y276000D02*
D03*
X58250Y276750D02*
D03*
X94000Y277250D02*
D03*
X80250Y277000D02*
D03*
X388330Y480520D02*
D03*
X369000Y551500D02*
D03*
X387750Y397250D02*
D03*
X362000Y523000D02*
D03*
X395668Y274296D02*
D03*
X396962Y254972D02*
D03*
X381500Y343000D02*
D03*
X329000Y292250D02*
D03*
Y273000D02*
D03*
X379250Y172000D02*
D03*
X380000Y153750D02*
D03*
X379500Y119750D02*
D03*
X372750Y79750D02*
D03*
X329000Y153250D02*
D03*
X343500Y106000D02*
D03*
X335750Y75500D02*
D03*
X296500Y562750D02*
D03*
X250500Y462250D02*
D03*
X224250Y519500D02*
D03*
X221000Y478500D02*
D03*
X184000Y476750D02*
D03*
X249750Y253750D02*
D03*
X246750Y378750D02*
D03*
X187750Y413500D02*
D03*
X199000Y373750D02*
D03*
X117500Y573250D02*
D03*
X124000Y545000D02*
D03*
X117000Y561000D02*
D03*
X160750Y400500D02*
D03*
X77000Y576000D02*
D03*
X183250Y306000D02*
D03*
X169750Y280250D02*
D03*
X170750Y260500D02*
D03*
X68500Y276750D02*
D03*
X307750Y170750D02*
D03*
X170250Y223250D02*
D03*
Y241500D02*
D03*
X171000Y205750D02*
D03*
X149250Y95000D02*
D03*
X213500Y89250D02*
D03*
X198500Y71000D02*
D03*
X144000Y53750D02*
D03*
X122250Y53500D02*
D03*
X106000Y213750D02*
D03*
X77345Y184405D02*
D03*
X84250Y121500D02*
D03*
X67000Y122000D02*
D03*
X46750Y88500D02*
D03*
X132000Y227000D02*
D03*
X110750Y184000D02*
D03*
X132000Y215750D02*
D03*
X91000Y155500D02*
D03*
Y166500D02*
D03*
X221828Y142308D02*
D03*
X396118Y104000D02*
D03*
X396500Y118500D02*
D03*
X232000Y142750D02*
D03*
X252000Y180500D02*
D03*
X235250Y181000D02*
D03*
X179750Y111000D02*
D03*
D117*
X444900Y37000D02*
D03*
Y24300D02*
D03*
Y11600D02*
D03*
Y49700D02*
D03*
X470300Y37000D02*
D03*
X444900Y62400D02*
D03*
X457600Y24300D02*
D03*
Y49700D02*
D03*
Y37000D02*
D03*
X470300Y49700D02*
D03*
Y11600D02*
D03*
Y24300D02*
D03*
X457600Y11600D02*
D03*
X483000D02*
D03*
Y37000D02*
D03*
Y49700D02*
D03*
Y24300D02*
D03*
X454500Y570000D02*
D03*
X597300Y312750D02*
D03*
X584600D02*
D03*
X597300Y300050D02*
D03*
X584600D02*
D03*
X559200Y312750D02*
D03*
X571900Y300050D02*
D03*
Y312750D02*
D03*
X584600Y274650D02*
D03*
X597300D02*
D03*
X584600Y287350D02*
D03*
X597300D02*
D03*
X343896Y235954D02*
D03*
X546500Y312750D02*
D03*
X533800D02*
D03*
X521100D02*
D03*
X533800Y300050D02*
D03*
X521100D02*
D03*
X559200D02*
D03*
X546500D02*
D03*
Y287350D02*
D03*
X521100D02*
D03*
X483000Y312750D02*
D03*
X495700D02*
D03*
X470300D02*
D03*
X508400D02*
D03*
X470300Y300050D02*
D03*
X457600Y312750D02*
D03*
X444900D02*
D03*
X457600Y300050D02*
D03*
X444900D02*
D03*
X508400D02*
D03*
X495700D02*
D03*
Y287350D02*
D03*
X483000D02*
D03*
Y300050D02*
D03*
X444900Y287350D02*
D03*
X470300D02*
D03*
X457600D02*
D03*
X559200D02*
D03*
X571900D02*
D03*
X533800D02*
D03*
Y274650D02*
D03*
X508400Y287350D02*
D03*
X495700Y274650D02*
D03*
X521100D02*
D03*
X508400D02*
D03*
X571900D02*
D03*
X559200D02*
D03*
X546500D02*
D03*
X483500Y255750D02*
D03*
Y247000D02*
D03*
X483000Y274650D02*
D03*
X470300Y261950D02*
D03*
Y274650D02*
D03*
X457600D02*
D03*
X444900D02*
D03*
X457600Y261950D02*
D03*
X444900D02*
D03*
X470300Y236550D02*
D03*
Y249250D02*
D03*
X483000Y236550D02*
D03*
X457600Y222500D02*
D03*
X457600Y249250D02*
D03*
X444900D02*
D03*
X457600Y236550D02*
D03*
X444900D02*
D03*
X432200D02*
D03*
X419500D02*
D03*
X432200Y222500D02*
D03*
X419500D02*
D03*
X406800Y236550D02*
D03*
X394100D02*
D03*
X381400D02*
D03*
X368700D02*
D03*
X356000D02*
D03*
X483250Y204250D02*
D03*
X483000Y189400D02*
D03*
X483000Y222500D02*
D03*
X483000Y176700D02*
D03*
X470300Y164000D02*
D03*
X470550Y204250D02*
D03*
X470300Y222500D02*
D03*
X470300Y176700D02*
D03*
Y189400D02*
D03*
X483000Y138600D02*
D03*
Y151300D02*
D03*
Y113200D02*
D03*
Y125900D02*
D03*
Y164000D02*
D03*
X470300Y151300D02*
D03*
Y125900D02*
D03*
Y138600D02*
D03*
X457600Y189400D02*
D03*
Y176700D02*
D03*
X457850Y204250D02*
D03*
X457600Y164000D02*
D03*
X444900D02*
D03*
X444900Y222500D02*
D03*
X444900Y176700D02*
D03*
Y189400D02*
D03*
X457600Y138600D02*
D03*
Y151300D02*
D03*
Y113200D02*
D03*
Y125900D02*
D03*
X444900Y138600D02*
D03*
Y151300D02*
D03*
Y113200D02*
D03*
Y125900D02*
D03*
X483000Y87800D02*
D03*
Y75100D02*
D03*
Y100500D02*
D03*
Y62400D02*
D03*
X470300D02*
D03*
Y100500D02*
D03*
Y113200D02*
D03*
Y75100D02*
D03*
Y87800D02*
D03*
X457600D02*
D03*
Y100500D02*
D03*
Y62400D02*
D03*
Y75100D02*
D03*
X444900Y87800D02*
D03*
Y100500D02*
D03*
Y75100D02*
D03*
X406800Y222500D02*
D03*
X394350Y204250D02*
D03*
X394100Y222500D02*
D03*
X419750Y204250D02*
D03*
X407050D02*
D03*
X381400Y222500D02*
D03*
X368950Y204250D02*
D03*
X381400Y189400D02*
D03*
X381650Y204250D02*
D03*
X406800Y189400D02*
D03*
X394100D02*
D03*
X432200D02*
D03*
X419500D02*
D03*
X356000Y222500D02*
D03*
X368700D02*
D03*
X343300D02*
D03*
X356250Y204250D02*
D03*
X343550D02*
D03*
X356000Y189400D02*
D03*
X343300D02*
D03*
X368700D02*
D03*
D118*
X103000Y87750D02*
D03*
X85000Y74500D02*
D03*
D119*
X285100Y241980D02*
D03*
X313100D02*
D03*
X299100Y227980D02*
D03*
Y241980D02*
D03*
X313100Y227980D02*
D03*
X285100Y213980D02*
D03*
X271100Y227980D02*
D03*
Y241980D02*
D03*
X285100Y227980D02*
D03*
X271100Y213980D02*
D03*
X313100Y199980D02*
D03*
Y213980D02*
D03*
X299100D02*
D03*
X271100Y199980D02*
D03*
X299100D02*
D03*
X285100D02*
D03*
M02*
