G04*
G04 #@! TF.GenerationSoftware,Altium Limited,Altium Designer,25.8.1 (18)*
G04*
G04 Layer_Color=8388736*
%FSLAX44Y44*%
%MOMM*%
G71*
G04*
G04 #@! TF.SameCoordinates,16AD229D-0A12-456A-95A7-24712EE817D5*
G04*
G04*
G04 #@! TF.FilePolarity,Negative*
G04*
G01*
G75*
%ADD19R,3.0480X1.7780*%
%ADD22R,0.7112X0.2032*%
%ADD23R,0.2032X0.7112*%
%ADD24R,1.7018X1.7018*%
%ADD40R,0.6858X0.5842*%
%ADD51R,1.0000X0.7000*%
%ADD56R,1.4549X1.5562*%
G04:AMPARAMS|DCode=62|XSize=0.8432mm|YSize=0.7032mm|CornerRadius=0.2266mm|HoleSize=0mm|Usage=FLASHONLY|Rotation=0.000|XOffset=0mm|YOffset=0mm|HoleType=Round|Shape=RoundedRectangle|*
%AMROUNDEDRECTD62*
21,1,0.8432,0.2500,0,0,0.0*
21,1,0.3900,0.7032,0,0,0.0*
1,1,0.4532,0.1950,-0.1250*
1,1,0.4532,-0.1950,-0.1250*
1,1,0.4532,-0.1950,0.1250*
1,1,0.4532,0.1950,0.1250*
%
%ADD62ROUNDEDRECTD62*%
%ADD63R,0.8432X0.7032*%
%ADD64C,0.8032*%
G04:AMPARAMS|DCode=65|XSize=1.4032mm|YSize=1.2032mm|CornerRadius=0.3516mm|HoleSize=0mm|Usage=FLASHONLY|Rotation=180.000|XOffset=0mm|YOffset=0mm|HoleType=Round|Shape=RoundedRectangle|*
%AMROUNDEDRECTD65*
21,1,1.4032,0.5000,0,0,180.0*
21,1,0.7000,1.2032,0,0,180.0*
1,1,0.7032,-0.3500,0.2500*
1,1,0.7032,0.3500,0.2500*
1,1,0.7032,0.3500,-0.2500*
1,1,0.7032,-0.3500,-0.2500*
%
%ADD65ROUNDEDRECTD65*%
%ADD66R,1.4032X1.2032*%
G04:AMPARAMS|DCode=67|XSize=1.1032mm|YSize=1.1032mm|CornerRadius=0.3266mm|HoleSize=0mm|Usage=FLASHONLY|Rotation=0.000|XOffset=0mm|YOffset=0mm|HoleType=Round|Shape=RoundedRectangle|*
%AMROUNDEDRECTD67*
21,1,1.1032,0.4500,0,0,0.0*
21,1,0.4500,1.1032,0,0,0.0*
1,1,0.6532,0.2250,-0.2250*
1,1,0.6532,-0.2250,-0.2250*
1,1,0.6532,-0.2250,0.2250*
1,1,0.6532,0.2250,0.2250*
%
%ADD67ROUNDEDRECTD67*%
%ADD68R,0.9532X0.5532*%
%ADD69R,0.9732X0.3932*%
G04:AMPARAMS|DCode=70|XSize=0.9632mm|YSize=0.4732mm|CornerRadius=0.1691mm|HoleSize=0mm|Usage=FLASHONLY|Rotation=0.000|XOffset=0mm|YOffset=0mm|HoleType=Round|Shape=RoundedRectangle|*
%AMROUNDEDRECTD70*
21,1,0.9632,0.1350,0,0,0.0*
21,1,0.6250,0.4732,0,0,0.0*
1,1,0.3382,0.3125,-0.0675*
1,1,0.3382,-0.3125,-0.0675*
1,1,0.3382,-0.3125,0.0675*
1,1,0.3382,0.3125,0.0675*
%
%ADD70ROUNDEDRECTD70*%
%ADD71R,0.8032X0.7032*%
%ADD72R,0.9132X0.3932*%
G04:AMPARAMS|DCode=73|XSize=0.36mm|YSize=0.96mm|CornerRadius=0.115mm|HoleSize=0mm|Usage=FLASHONLY|Rotation=180.000|XOffset=0mm|YOffset=0mm|HoleType=Round|Shape=RoundedRectangle|*
%AMROUNDEDRECTD73*
21,1,0.3600,0.7300,0,0,180.0*
21,1,0.1300,0.9600,0,0,180.0*
1,1,0.2300,-0.0650,0.3650*
1,1,0.2300,0.0650,0.3650*
1,1,0.2300,0.0650,-0.3650*
1,1,0.2300,-0.0650,-0.3650*
%
%ADD73ROUNDEDRECTD73*%
%ADD74R,1.2032X0.8282*%
G04:AMPARAMS|DCode=75|XSize=1.1032mm|YSize=1.1032mm|CornerRadius=0.3266mm|HoleSize=0mm|Usage=FLASHONLY|Rotation=270.000|XOffset=0mm|YOffset=0mm|HoleType=Round|Shape=RoundedRectangle|*
%AMROUNDEDRECTD75*
21,1,1.1032,0.4500,0,0,270.0*
21,1,0.4500,1.1032,0,0,270.0*
1,1,0.6532,-0.2250,-0.2250*
1,1,0.6532,-0.2250,0.2250*
1,1,0.6532,0.2250,0.2250*
1,1,0.6532,0.2250,-0.2250*
%
%ADD75ROUNDEDRECTD75*%
%ADD76R,0.8032X1.4032*%
G04:AMPARAMS|DCode=77|XSize=1.4032mm|YSize=1.2032mm|CornerRadius=0.3516mm|HoleSize=0mm|Usage=FLASHONLY|Rotation=90.000|XOffset=0mm|YOffset=0mm|HoleType=Round|Shape=RoundedRectangle|*
%AMROUNDEDRECTD77*
21,1,1.4032,0.5000,0,0,90.0*
21,1,0.7000,1.2032,0,0,90.0*
1,1,0.7032,0.2500,0.3500*
1,1,0.7032,0.2500,-0.3500*
1,1,0.7032,-0.2500,-0.3500*
1,1,0.7032,-0.2500,0.3500*
%
%ADD77ROUNDEDRECTD77*%
G04:AMPARAMS|DCode=78|XSize=0.36mm|YSize=0.96mm|CornerRadius=0.115mm|HoleSize=0mm|Usage=FLASHONLY|Rotation=90.000|XOffset=0mm|YOffset=0mm|HoleType=Round|Shape=RoundedRectangle|*
%AMROUNDEDRECTD78*
21,1,0.3600,0.7300,0,0,90.0*
21,1,0.1300,0.9600,0,0,90.0*
1,1,0.2300,0.3650,0.0650*
1,1,0.2300,0.3650,-0.0650*
1,1,0.2300,-0.3650,-0.0650*
1,1,0.2300,-0.3650,0.0650*
%
%ADD78ROUNDEDRECTD78*%
%ADD79R,0.4532X0.6782*%
%ADD80R,0.6782X0.4532*%
%ADD81R,0.8282X1.2032*%
%ADD82R,1.2032X1.4032*%
%ADD83R,2.1900X2.1900*%
G04:AMPARAMS|DCode=84|XSize=1.0732mm|YSize=1.1332mm|CornerRadius=0.2104mm|HoleSize=0mm|Usage=FLASHONLY|Rotation=0.000|XOffset=0mm|YOffset=0mm|HoleType=Round|Shape=RoundedRectangle|*
%AMROUNDEDRECTD84*
21,1,1.0732,0.7125,0,0,0.0*
21,1,0.6525,1.1332,0,0,0.0*
1,1,0.4207,0.3263,-0.3563*
1,1,0.4207,-0.3263,-0.3563*
1,1,0.4207,-0.3263,0.3563*
1,1,0.4207,0.3263,0.3563*
%
%ADD84ROUNDEDRECTD84*%
%ADD85R,1.3016X0.9016*%
%ADD86R,7.6032X2.2032*%
%ADD87R,4.8000X4.8000*%
G04:AMPARAMS|DCode=88|XSize=2.8956mm|YSize=0.8382mm|CornerRadius=0.235mm|HoleSize=0mm|Usage=FLASHONLY|Rotation=270.000|XOffset=0mm|YOffset=0mm|HoleType=Round|Shape=RoundedRectangle|*
%AMROUNDEDRECTD88*
21,1,2.8956,0.3683,0,0,270.0*
21,1,2.4257,0.8382,0,0,270.0*
1,1,0.4699,-0.1842,-1.2129*
1,1,0.4699,-0.1842,1.2129*
1,1,0.4699,0.1842,1.2129*
1,1,0.4699,0.1842,-1.2129*
%
%ADD88ROUNDEDRECTD88*%
%ADD89R,1.2032X0.4332*%
%ADD90R,1.1132X1.4232*%
G04:AMPARAMS|DCode=91|XSize=0.8432mm|YSize=0.6732mm|CornerRadius=0.2191mm|HoleSize=0mm|Usage=FLASHONLY|Rotation=90.000|XOffset=0mm|YOffset=0mm|HoleType=Round|Shape=RoundedRectangle|*
%AMROUNDEDRECTD91*
21,1,0.8432,0.2350,0,0,90.0*
21,1,0.4050,0.6732,0,0,90.0*
1,1,0.4382,0.1175,0.2025*
1,1,0.4382,0.1175,-0.2025*
1,1,0.4382,-0.1175,-0.2025*
1,1,0.4382,-0.1175,0.2025*
%
%ADD91ROUNDEDRECTD91*%
%ADD92R,0.6732X0.8432*%
%ADD93R,2.1032X1.3032*%
%ADD94R,0.3600X0.9600*%
%ADD95R,1.2032X3.4032*%
%ADD96R,1.4032X0.6432*%
%ADD97R,1.3016X0.8616*%
%ADD98R,1.3016X0.8016*%
%ADD99C,4.7752*%
%ADD100C,1.5500*%
%ADD101R,1.5500X1.5500*%
%ADD102C,0.8382*%
G36*
X63820Y598330D02*
X64160Y598300D01*
X64500Y598260D01*
X64830Y598200D01*
X65160Y598120D01*
X65490Y598020D01*
X65810Y597910D01*
X66120Y597780D01*
X66430Y597630D01*
X66730Y597470D01*
X67020Y597290D01*
X67300Y597100D01*
X67570Y596890D01*
X67830Y596670D01*
X68080Y596440D01*
X68310Y596190D01*
X68530Y595930D01*
X68740Y595660D01*
X68930Y595380D01*
X69110Y595090D01*
X69270Y594790D01*
X69420Y594480D01*
X69550Y594170D01*
X69660Y593850D01*
X69760Y593520D01*
X69840Y593190D01*
X69900Y592860D01*
X69940Y592520D01*
X69970Y592180D01*
X69980Y591840D01*
X69970Y591500D01*
X69940Y591160D01*
X69900Y590820D01*
X69840Y590490D01*
X69760Y590160D01*
X69660Y589830D01*
X69550Y589510D01*
X69420Y589200D01*
X69270Y588890D01*
X69110Y588590D01*
X68930Y588300D01*
X68740Y588020D01*
X68530Y587750D01*
X68310Y587490D01*
X68080Y587240D01*
X67830Y587010D01*
X67570Y586790D01*
X67300Y586580D01*
X67020Y586390D01*
X66730Y586210D01*
X66430Y586050D01*
X66120Y585900D01*
X65810Y585770D01*
X65490Y585660D01*
X65160Y585560D01*
X64830Y585480D01*
X64500Y585420D01*
X64160Y585380D01*
X63820Y585350D01*
X63480Y585340D01*
X57480D01*
X57140Y585350D01*
X56800Y585380D01*
X56460Y585420D01*
X56130Y585480D01*
X55800Y585560D01*
X55470Y585660D01*
X55150Y585770D01*
X54840Y585900D01*
X54530Y586050D01*
X54230Y586210D01*
X53940Y586390D01*
X53660Y586580D01*
X53390Y586790D01*
X53130Y587010D01*
X52880Y587240D01*
X52650Y587490D01*
X52430Y587750D01*
X52220Y588020D01*
X52030Y588300D01*
X51850Y588590D01*
X51690Y588890D01*
X51540Y589200D01*
X51410Y589510D01*
X51300Y589830D01*
X51200Y590160D01*
X51120Y590490D01*
X51060Y590820D01*
X51020Y591160D01*
X50990Y591500D01*
X50980Y591840D01*
X50990Y592180D01*
X51020Y592520D01*
X51060Y592860D01*
X51120Y593190D01*
X51200Y593520D01*
X51300Y593850D01*
X51410Y594170D01*
X51540Y594480D01*
X51690Y594790D01*
X51850Y595090D01*
X52030Y595380D01*
X52220Y595660D01*
X52430Y595930D01*
X52650Y596190D01*
X52880Y596440D01*
X53130Y596670D01*
X53390Y596890D01*
X53660Y597100D01*
X53940Y597290D01*
X54230Y597470D01*
X54530Y597630D01*
X54840Y597780D01*
X55150Y597910D01*
X55470Y598020D01*
X55800Y598120D01*
X56130Y598200D01*
X56460Y598260D01*
X56800Y598300D01*
X57140Y598330D01*
X57480Y598340D01*
X63480D01*
X63820Y598330D01*
D02*
G37*
G36*
X25820D02*
X26160Y598300D01*
X26500Y598260D01*
X26830Y598200D01*
X27160Y598120D01*
X27490Y598020D01*
X27810Y597910D01*
X28120Y597780D01*
X28430Y597630D01*
X28730Y597470D01*
X29020Y597290D01*
X29300Y597100D01*
X29570Y596890D01*
X29830Y596670D01*
X30080Y596440D01*
X30310Y596190D01*
X30530Y595930D01*
X30740Y595660D01*
X30930Y595380D01*
X31110Y595090D01*
X31270Y594790D01*
X31420Y594480D01*
X31550Y594170D01*
X31660Y593850D01*
X31760Y593520D01*
X31840Y593190D01*
X31900Y592860D01*
X31940Y592520D01*
X31970Y592180D01*
X31980Y591840D01*
X31970Y591500D01*
X31940Y591160D01*
X31900Y590820D01*
X31840Y590490D01*
X31760Y590160D01*
X31660Y589830D01*
X31550Y589510D01*
X31420Y589200D01*
X31270Y588890D01*
X31110Y588590D01*
X30930Y588300D01*
X30740Y588020D01*
X30530Y587750D01*
X30310Y587490D01*
X30080Y587240D01*
X29830Y587010D01*
X29570Y586790D01*
X29300Y586580D01*
X29020Y586390D01*
X28730Y586210D01*
X28430Y586050D01*
X28120Y585900D01*
X27810Y585770D01*
X27490Y585660D01*
X27160Y585560D01*
X26830Y585480D01*
X26500Y585420D01*
X26160Y585380D01*
X25820Y585350D01*
X25480Y585340D01*
X19480D01*
X19140Y585350D01*
X18800Y585380D01*
X18460Y585420D01*
X18130Y585480D01*
X17800Y585560D01*
X17470Y585660D01*
X17150Y585770D01*
X16840Y585900D01*
X16530Y586050D01*
X16230Y586210D01*
X15940Y586390D01*
X15660Y586580D01*
X15390Y586790D01*
X15130Y587010D01*
X14880Y587240D01*
X14650Y587490D01*
X14430Y587750D01*
X14220Y588020D01*
X14030Y588300D01*
X13850Y588590D01*
X13690Y588890D01*
X13540Y589200D01*
X13410Y589510D01*
X13300Y589830D01*
X13200Y590160D01*
X13120Y590490D01*
X13060Y590820D01*
X13020Y591160D01*
X12990Y591500D01*
X12980Y591840D01*
X12990Y592180D01*
X13020Y592520D01*
X13060Y592860D01*
X13120Y593190D01*
X13200Y593520D01*
X13300Y593850D01*
X13410Y594170D01*
X13540Y594480D01*
X13690Y594790D01*
X13850Y595090D01*
X14030Y595380D01*
X14220Y595660D01*
X14430Y595930D01*
X14650Y596190D01*
X14880Y596440D01*
X15130Y596670D01*
X15390Y596890D01*
X15660Y597100D01*
X15940Y597290D01*
X16230Y597470D01*
X16530Y597630D01*
X16840Y597780D01*
X17150Y597910D01*
X17470Y598020D01*
X17800Y598120D01*
X18130Y598200D01*
X18460Y598260D01*
X18800Y598300D01*
X19140Y598330D01*
X19480Y598340D01*
X25480D01*
X25820Y598330D01*
D02*
G37*
G36*
X63820Y511930D02*
X64160Y511900D01*
X64500Y511860D01*
X64830Y511800D01*
X65160Y511720D01*
X65490Y511620D01*
X65810Y511510D01*
X66120Y511380D01*
X66430Y511230D01*
X66730Y511070D01*
X67020Y510890D01*
X67300Y510700D01*
X67570Y510490D01*
X67830Y510270D01*
X68080Y510040D01*
X68310Y509790D01*
X68530Y509530D01*
X68740Y509260D01*
X68930Y508980D01*
X69110Y508690D01*
X69270Y508390D01*
X69420Y508080D01*
X69550Y507770D01*
X69660Y507450D01*
X69760Y507120D01*
X69840Y506790D01*
X69900Y506460D01*
X69940Y506120D01*
X69970Y505780D01*
X69980Y505440D01*
X69970Y505100D01*
X69940Y504760D01*
X69900Y504420D01*
X69840Y504090D01*
X69760Y503760D01*
X69660Y503430D01*
X69550Y503110D01*
X69420Y502800D01*
X69270Y502490D01*
X69110Y502190D01*
X68930Y501900D01*
X68740Y501620D01*
X68530Y501350D01*
X68310Y501090D01*
X68080Y500840D01*
X67830Y500610D01*
X67570Y500390D01*
X67300Y500180D01*
X67020Y499990D01*
X66730Y499810D01*
X66430Y499650D01*
X66120Y499500D01*
X65810Y499370D01*
X65490Y499260D01*
X65160Y499160D01*
X64830Y499080D01*
X64500Y499020D01*
X64160Y498980D01*
X63820Y498950D01*
X63480Y498940D01*
X57480D01*
X57140Y498950D01*
X56800Y498980D01*
X56460Y499020D01*
X56130Y499080D01*
X55800Y499160D01*
X55470Y499260D01*
X55150Y499370D01*
X54840Y499500D01*
X54530Y499650D01*
X54230Y499810D01*
X53940Y499990D01*
X53660Y500180D01*
X53390Y500390D01*
X53130Y500610D01*
X52880Y500840D01*
X52650Y501090D01*
X52430Y501350D01*
X52220Y501620D01*
X52030Y501900D01*
X51850Y502190D01*
X51690Y502490D01*
X51540Y502800D01*
X51410Y503110D01*
X51300Y503430D01*
X51200Y503760D01*
X51120Y504090D01*
X51060Y504420D01*
X51020Y504760D01*
X50990Y505100D01*
X50980Y505440D01*
X50990Y505780D01*
X51020Y506120D01*
X51060Y506460D01*
X51120Y506790D01*
X51200Y507120D01*
X51300Y507450D01*
X51410Y507770D01*
X51540Y508080D01*
X51690Y508390D01*
X51850Y508690D01*
X52030Y508980D01*
X52220Y509260D01*
X52430Y509530D01*
X52650Y509790D01*
X52880Y510040D01*
X53130Y510270D01*
X53390Y510490D01*
X53660Y510700D01*
X53940Y510890D01*
X54230Y511070D01*
X54530Y511230D01*
X54840Y511380D01*
X55150Y511510D01*
X55470Y511620D01*
X55800Y511720D01*
X56130Y511800D01*
X56460Y511860D01*
X56800Y511900D01*
X57140Y511930D01*
X57480Y511940D01*
X63480D01*
X63820Y511930D01*
D02*
G37*
G36*
X25820D02*
X26160Y511900D01*
X26500Y511860D01*
X26830Y511800D01*
X27160Y511720D01*
X27490Y511620D01*
X27810Y511510D01*
X28120Y511380D01*
X28430Y511230D01*
X28730Y511070D01*
X29020Y510890D01*
X29300Y510700D01*
X29570Y510490D01*
X29830Y510270D01*
X30080Y510040D01*
X30310Y509790D01*
X30530Y509530D01*
X30740Y509260D01*
X30930Y508980D01*
X31110Y508690D01*
X31270Y508390D01*
X31420Y508080D01*
X31550Y507770D01*
X31660Y507450D01*
X31760Y507120D01*
X31840Y506790D01*
X31900Y506460D01*
X31940Y506120D01*
X31970Y505780D01*
X31980Y505440D01*
X31970Y505100D01*
X31940Y504760D01*
X31900Y504420D01*
X31840Y504090D01*
X31760Y503760D01*
X31660Y503430D01*
X31550Y503110D01*
X31420Y502800D01*
X31270Y502490D01*
X31110Y502190D01*
X30930Y501900D01*
X30740Y501620D01*
X30530Y501350D01*
X30310Y501090D01*
X30080Y500840D01*
X29830Y500610D01*
X29570Y500390D01*
X29300Y500180D01*
X29020Y499990D01*
X28730Y499810D01*
X28430Y499650D01*
X28120Y499500D01*
X27810Y499370D01*
X27490Y499260D01*
X27160Y499160D01*
X26830Y499080D01*
X26500Y499020D01*
X26160Y498980D01*
X25820Y498950D01*
X25480Y498940D01*
X19480D01*
X19140Y498950D01*
X18800Y498980D01*
X18460Y499020D01*
X18130Y499080D01*
X17800Y499160D01*
X17470Y499260D01*
X17150Y499370D01*
X16840Y499500D01*
X16530Y499650D01*
X16230Y499810D01*
X15940Y499990D01*
X15660Y500180D01*
X15390Y500390D01*
X15130Y500610D01*
X14880Y500840D01*
X14650Y501090D01*
X14430Y501350D01*
X14220Y501620D01*
X14030Y501900D01*
X13850Y502190D01*
X13690Y502490D01*
X13540Y502800D01*
X13410Y503110D01*
X13300Y503430D01*
X13200Y503760D01*
X13120Y504090D01*
X13060Y504420D01*
X13020Y504760D01*
X12990Y505100D01*
X12980Y505440D01*
X12990Y505780D01*
X13020Y506120D01*
X13060Y506460D01*
X13120Y506790D01*
X13200Y507120D01*
X13300Y507450D01*
X13410Y507770D01*
X13540Y508080D01*
X13690Y508390D01*
X13850Y508690D01*
X14030Y508980D01*
X14220Y509260D01*
X14430Y509530D01*
X14650Y509790D01*
X14880Y510040D01*
X15130Y510270D01*
X15390Y510490D01*
X15660Y510700D01*
X15940Y510890D01*
X16230Y511070D01*
X16530Y511230D01*
X16840Y511380D01*
X17150Y511510D01*
X17470Y511620D01*
X17800Y511720D01*
X18130Y511800D01*
X18460Y511860D01*
X18800Y511900D01*
X19140Y511930D01*
X19480Y511940D01*
X25480D01*
X25820Y511930D01*
D02*
G37*
G36*
X192111Y528555D02*
X192242Y528530D01*
X192368Y528487D01*
X192487Y528428D01*
X192598Y528354D01*
X192698Y528266D01*
X192786Y528166D01*
X192860Y528055D01*
X192919Y527936D01*
X192962Y527810D01*
X192987Y527679D01*
X192996Y527546D01*
Y484546D01*
X192987Y484413D01*
X192962Y484282D01*
X192919Y484156D01*
X192860Y484037D01*
X192786Y483926D01*
X192698Y483826D01*
X192598Y483738D01*
X192487Y483664D01*
X192368Y483605D01*
X192242Y483563D01*
X192111Y483536D01*
X191978Y483528D01*
X175978D01*
X175845Y483536D01*
X175714Y483563D01*
X175588Y483605D01*
X175469Y483664D01*
X175358Y483738D01*
X175258Y483826D01*
X175170Y483926D01*
X175096Y484037D01*
X175037Y484156D01*
X174995Y484282D01*
X174968Y484413D01*
X174960Y484546D01*
Y494221D01*
X174957Y494256D01*
X174959Y494281D01*
X174958Y494306D01*
X174962Y494347D01*
X174965Y494389D01*
X174969Y494413D01*
X174972Y494439D01*
X174982Y494479D01*
X174989Y494520D01*
X174997Y494544D01*
X175003Y494568D01*
X175018Y494606D01*
X175031Y494646D01*
X175042Y494669D01*
X175051Y494692D01*
X175071Y494729D01*
X175089Y494766D01*
X175103Y494787D01*
X175114Y494809D01*
X175139Y494843D01*
X175162Y494878D01*
X175178Y494897D01*
X175193Y494917D01*
X175222Y494947D01*
X175249Y494979D01*
X175267Y494995D01*
X175285Y495014D01*
X175317Y495039D01*
X175348Y495067D01*
X175369Y495082D01*
X175388Y495097D01*
X175423Y495119D01*
X175458Y495142D01*
X175480Y495154D01*
X175502Y495167D01*
X176525Y495704D01*
X178377Y497042D01*
X179928Y498687D01*
X181142Y500593D01*
X181977Y502694D01*
X182402Y504914D01*
X182402Y507175D01*
X181978Y509395D01*
X181144Y511496D01*
X179930Y513403D01*
X178379Y515047D01*
X176528Y516386D01*
X175548Y516901D01*
X175544Y516903D01*
X175523Y516914D01*
X175505Y516924D01*
X175501Y516926D01*
X175469Y516942D01*
X175449Y516955D01*
X175427Y516967D01*
X175396Y516991D01*
X175391Y516993D01*
X175388Y516996D01*
X175358Y517016D01*
X175340Y517032D01*
X175320Y517047D01*
X175292Y517074D01*
X175288Y517077D01*
X175285Y517080D01*
X175258Y517104D01*
X175242Y517122D01*
X175224Y517139D01*
X175201Y517169D01*
X175196Y517174D01*
X175193Y517178D01*
X175170Y517204D01*
X175157Y517224D01*
X175141Y517243D01*
X175122Y517275D01*
X175118Y517281D01*
X175115Y517287D01*
X175096Y517314D01*
X175085Y517337D01*
X175073Y517357D01*
X175058Y517390D01*
X175054Y517398D01*
X175051Y517405D01*
X175037Y517434D01*
X175030Y517457D01*
X175020Y517480D01*
X175010Y517513D01*
X175006Y517523D01*
X175004Y517531D01*
X174995Y517560D01*
X174990Y517584D01*
X174983Y517608D01*
X174978Y517640D01*
X174975Y517652D01*
X174974Y517663D01*
X174968Y517691D01*
X174967Y517715D01*
X174963Y517739D01*
X174963Y517770D01*
X174961Y517785D01*
X174962Y517797D01*
X174960Y517824D01*
Y527546D01*
X174968Y527679D01*
X174995Y527810D01*
X175037Y527936D01*
X175096Y528055D01*
X175170Y528166D01*
X175258Y528266D01*
X175358Y528354D01*
X175469Y528428D01*
X175588Y528487D01*
X175714Y528530D01*
X175845Y528555D01*
X175978Y528564D01*
X191978D01*
X192111Y528555D01*
D02*
G37*
G36*
X165111D02*
X165242Y528530D01*
X165368Y528487D01*
X165487Y528428D01*
X165598Y528354D01*
X165698Y528266D01*
X165786Y528166D01*
X165860Y528055D01*
X165919Y527936D01*
X165961Y527810D01*
X165987Y527679D01*
X165996Y527546D01*
Y517866D01*
X165999Y517826D01*
X165998Y517806D01*
X165998Y517786D01*
X165993Y517740D01*
X165990Y517694D01*
X165986Y517674D01*
X165984Y517654D01*
X165973Y517608D01*
X165964Y517563D01*
X165958Y517544D01*
X165953Y517524D01*
X165936Y517481D01*
X165921Y517437D01*
X165912Y517419D01*
X165905Y517400D01*
X165883Y517359D01*
X165862Y517317D01*
X165851Y517300D01*
X165842Y517283D01*
X165814Y517245D01*
X165788Y517207D01*
X165775Y517192D01*
X165763Y517175D01*
X165731Y517141D01*
X165701Y517107D01*
X165685Y517093D01*
X165671Y517079D01*
X165636Y517049D01*
X165600Y517019D01*
X165583Y517007D01*
X165568Y516995D01*
X165528Y516970D01*
X165490Y516945D01*
X165472Y516936D01*
X165454Y516925D01*
X164431Y516387D01*
X162579Y515050D01*
X161028Y513405D01*
X159814Y511499D01*
X158979Y509398D01*
X158554Y507178D01*
X158554Y504917D01*
X158978Y502697D01*
X159812Y500596D01*
X161026Y498689D01*
X162577Y497045D01*
X164428Y495706D01*
X165408Y495191D01*
X165412Y495189D01*
X165435Y495177D01*
X165451Y495168D01*
X165454Y495166D01*
X165487Y495150D01*
X165507Y495137D01*
X165529Y495125D01*
X165561Y495101D01*
X165565Y495099D01*
X165568Y495096D01*
X165598Y495076D01*
X165616Y495060D01*
X165636Y495046D01*
X165664Y495018D01*
X165668Y495015D01*
X165671Y495012D01*
X165698Y494988D01*
X165714Y494970D01*
X165732Y494953D01*
X165756Y494923D01*
X165760Y494918D01*
X165763Y494915D01*
X165786Y494888D01*
X165799Y494868D01*
X165815Y494849D01*
X165834Y494817D01*
X165838Y494810D01*
X165841Y494805D01*
X165860Y494777D01*
X165871Y494756D01*
X165883Y494735D01*
X165898Y494701D01*
X165902Y494693D01*
X165904Y494687D01*
X165919Y494658D01*
X165927Y494635D01*
X165936Y494613D01*
X165946Y494579D01*
X165950Y494569D01*
X165952Y494561D01*
X165961Y494532D01*
X165966Y494508D01*
X165973Y494484D01*
X165978Y494452D01*
X165981Y494440D01*
X165982Y494430D01*
X165987Y494401D01*
X165989Y494377D01*
X165993Y494353D01*
X165993Y494321D01*
X165995Y494307D01*
X165994Y494296D01*
X165996Y494268D01*
Y484546D01*
X165987Y484413D01*
X165961Y484282D01*
X165919Y484156D01*
X165860Y484037D01*
X165786Y483926D01*
X165698Y483826D01*
X165598Y483738D01*
X165487Y483664D01*
X165368Y483605D01*
X165242Y483563D01*
X165111Y483536D01*
X164978Y483528D01*
X148978D01*
X148845Y483536D01*
X148715Y483563D01*
X148588Y483605D01*
X148469Y483664D01*
X148358Y483738D01*
X148258Y483826D01*
X148170Y483926D01*
X148096Y484037D01*
X148037Y484156D01*
X147994Y484282D01*
X147969Y484413D01*
X147960Y484546D01*
Y527546D01*
X147969Y527679D01*
X147994Y527810D01*
X148037Y527936D01*
X148096Y528055D01*
X148170Y528166D01*
X148258Y528266D01*
X148358Y528354D01*
X148469Y528428D01*
X148588Y528487D01*
X148715Y528530D01*
X148845Y528555D01*
X148978Y528564D01*
X164978D01*
X165111Y528555D01*
D02*
G37*
G36*
X235458Y468486D02*
X235478D01*
X235508Y468476D01*
X235528D01*
X235558Y468466D01*
X235578Y468456D01*
X235608Y468446D01*
X235628Y468426D01*
X235648Y468416D01*
X235668Y468396D01*
X235688Y468386D01*
X235708Y468366D01*
X235728Y468346D01*
X235748Y468326D01*
X235768Y468306D01*
X235778Y468286D01*
X235798Y468266D01*
X235808Y468246D01*
X235828Y468226D01*
X235838Y468196D01*
X235848Y468176D01*
X235858Y468146D01*
Y468126D01*
X235868Y468096D01*
Y468076D01*
X235878Y468046D01*
Y468026D01*
Y467996D01*
Y461596D01*
Y461566D01*
Y461546D01*
X235868Y461516D01*
Y461496D01*
X235858Y461466D01*
Y461446D01*
X235848Y461416D01*
X235838Y461396D01*
X235828Y461366D01*
X235808Y461346D01*
X235798Y461326D01*
X235778Y461306D01*
X235768Y461286D01*
X235748Y461266D01*
X235728Y461246D01*
X235708Y461226D01*
X235688Y461206D01*
X235668Y461196D01*
X235648Y461176D01*
X235628Y461166D01*
X235608Y461146D01*
X235578Y461136D01*
X235558Y461126D01*
X235528Y461116D01*
X235508D01*
X235478Y461106D01*
X235458D01*
X235428Y461096D01*
X232528D01*
X232498Y461106D01*
X232478D01*
X232448Y461116D01*
X232428D01*
X232398Y461126D01*
X232378Y461136D01*
X232348Y461146D01*
X232328Y461166D01*
X232308Y461176D01*
X232288Y461196D01*
X232268Y461206D01*
X232248Y461226D01*
X232228Y461246D01*
X232208Y461266D01*
X232188Y461286D01*
X232178Y461306D01*
X232158Y461326D01*
X232148Y461346D01*
X232128Y461366D01*
X232118Y461396D01*
X232108Y461416D01*
X232098Y461446D01*
Y461466D01*
X232088Y461496D01*
Y461516D01*
X232078Y461546D01*
Y461566D01*
Y461596D01*
Y467996D01*
Y468026D01*
Y468046D01*
X232088Y468076D01*
Y468096D01*
X232098Y468126D01*
Y468146D01*
X232108Y468176D01*
X232118Y468196D01*
X232128Y468226D01*
X232148Y468246D01*
X232158Y468266D01*
X232178Y468286D01*
X232188Y468306D01*
X232208Y468326D01*
X232228Y468346D01*
X232248Y468366D01*
X232268Y468386D01*
X232288Y468396D01*
X232308Y468416D01*
X232328Y468426D01*
X232348Y468446D01*
X232378Y468456D01*
X232398Y468466D01*
X232428Y468476D01*
X232448D01*
X232478Y468486D01*
X232498D01*
X232528Y468496D01*
X235428D01*
X235458Y468486D01*
D02*
G37*
G36*
X230458D02*
X230478D01*
X230508Y468476D01*
X230528D01*
X230558Y468466D01*
X230578Y468456D01*
X230608Y468446D01*
X230628Y468426D01*
X230648Y468416D01*
X230668Y468396D01*
X230688Y468386D01*
X230708Y468366D01*
X230728Y468346D01*
X230748Y468326D01*
X230768Y468306D01*
X230778Y468286D01*
X230798Y468266D01*
X230808Y468246D01*
X230828Y468226D01*
X230838Y468196D01*
X230848Y468176D01*
X230858Y468146D01*
Y468126D01*
X230868Y468096D01*
Y468076D01*
X230878Y468046D01*
Y468026D01*
Y467996D01*
Y461596D01*
Y461566D01*
Y461546D01*
X230868Y461516D01*
Y461496D01*
X230858Y461466D01*
Y461446D01*
X230848Y461416D01*
X230838Y461396D01*
X230828Y461366D01*
X230808Y461346D01*
X230798Y461326D01*
X230778Y461306D01*
X230768Y461286D01*
X230748Y461266D01*
X230728Y461246D01*
X230708Y461226D01*
X230688Y461206D01*
X230668Y461196D01*
X230648Y461176D01*
X230628Y461166D01*
X230608Y461146D01*
X230578Y461136D01*
X230558Y461126D01*
X230528Y461116D01*
X230508D01*
X230478Y461106D01*
X230458D01*
X230428Y461096D01*
X227528D01*
X227498Y461106D01*
X227478D01*
X227448Y461116D01*
X227428D01*
X227398Y461126D01*
X227378Y461136D01*
X227348Y461146D01*
X227328Y461166D01*
X227308Y461176D01*
X227288Y461196D01*
X227268Y461206D01*
X227248Y461226D01*
X227228Y461246D01*
X227208Y461266D01*
X227188Y461286D01*
X227178Y461306D01*
X227158Y461326D01*
X227148Y461346D01*
X227128Y461366D01*
X227118Y461396D01*
X227108Y461416D01*
X227098Y461446D01*
Y461466D01*
X227088Y461496D01*
Y461516D01*
X227078Y461546D01*
Y461566D01*
Y461596D01*
Y467996D01*
Y468026D01*
Y468046D01*
X227088Y468076D01*
Y468096D01*
X227098Y468126D01*
Y468146D01*
X227108Y468176D01*
X227118Y468196D01*
X227128Y468226D01*
X227148Y468246D01*
X227158Y468266D01*
X227178Y468286D01*
X227188Y468306D01*
X227208Y468326D01*
X227228Y468346D01*
X227248Y468366D01*
X227268Y468386D01*
X227288Y468396D01*
X227308Y468416D01*
X227328Y468426D01*
X227348Y468446D01*
X227378Y468456D01*
X227398Y468466D01*
X227428Y468476D01*
X227448D01*
X227478Y468486D01*
X227498D01*
X227528Y468496D01*
X230428D01*
X230458Y468486D01*
D02*
G37*
G36*
X225458D02*
X225478D01*
X225508Y468476D01*
X225528D01*
X225558Y468466D01*
X225578Y468456D01*
X225608Y468446D01*
X225628Y468426D01*
X225648Y468416D01*
X225668Y468396D01*
X225688Y468386D01*
X225708Y468366D01*
X225728Y468346D01*
X225748Y468326D01*
X225768Y468306D01*
X225778Y468286D01*
X225798Y468266D01*
X225808Y468246D01*
X225828Y468226D01*
X225838Y468196D01*
X225848Y468176D01*
X225858Y468146D01*
Y468126D01*
X225868Y468096D01*
Y468076D01*
X225878Y468046D01*
Y468026D01*
Y467996D01*
Y461596D01*
Y461566D01*
Y461546D01*
X225868Y461516D01*
Y461496D01*
X225858Y461466D01*
Y461446D01*
X225848Y461416D01*
X225838Y461396D01*
X225828Y461366D01*
X225808Y461346D01*
X225798Y461326D01*
X225778Y461306D01*
X225768Y461286D01*
X225748Y461266D01*
X225728Y461246D01*
X225708Y461226D01*
X225688Y461206D01*
X225668Y461196D01*
X225648Y461176D01*
X225628Y461166D01*
X225608Y461146D01*
X225578Y461136D01*
X225558Y461126D01*
X225528Y461116D01*
X225508D01*
X225478Y461106D01*
X225458D01*
X225428Y461096D01*
X222528D01*
X222498Y461106D01*
X222478D01*
X222448Y461116D01*
X222428D01*
X222398Y461126D01*
X222378Y461136D01*
X222348Y461146D01*
X222328Y461166D01*
X222308Y461176D01*
X222288Y461196D01*
X222268Y461206D01*
X222248Y461226D01*
X222228Y461246D01*
X222208Y461266D01*
X222188Y461286D01*
X222178Y461306D01*
X222158Y461326D01*
X222148Y461346D01*
X222128Y461366D01*
X222118Y461396D01*
X222108Y461416D01*
X222098Y461446D01*
Y461466D01*
X222088Y461496D01*
Y461516D01*
X222078Y461546D01*
Y461566D01*
Y461596D01*
Y467996D01*
Y468026D01*
Y468046D01*
X222088Y468076D01*
Y468096D01*
X222098Y468126D01*
Y468146D01*
X222108Y468176D01*
X222118Y468196D01*
X222128Y468226D01*
X222148Y468246D01*
X222158Y468266D01*
X222178Y468286D01*
X222188Y468306D01*
X222208Y468326D01*
X222228Y468346D01*
X222248Y468366D01*
X222268Y468386D01*
X222288Y468396D01*
X222308Y468416D01*
X222328Y468426D01*
X222348Y468446D01*
X222378Y468456D01*
X222398Y468466D01*
X222428Y468476D01*
X222448D01*
X222478Y468486D01*
X222498D01*
X222528Y468496D01*
X225428D01*
X225458Y468486D01*
D02*
G37*
G36*
X220458D02*
X220478D01*
X220508Y468476D01*
X220528D01*
X220558Y468466D01*
X220578Y468456D01*
X220608Y468446D01*
X220628Y468426D01*
X220648Y468416D01*
X220668Y468396D01*
X220688Y468386D01*
X220708Y468366D01*
X220728Y468346D01*
X220748Y468326D01*
X220768Y468306D01*
X220778Y468286D01*
X220798Y468266D01*
X220808Y468246D01*
X220828Y468226D01*
X220838Y468196D01*
X220848Y468176D01*
X220858Y468146D01*
Y468126D01*
X220868Y468096D01*
Y468076D01*
X220878Y468046D01*
Y468026D01*
Y467996D01*
Y461596D01*
Y461566D01*
Y461546D01*
X220868Y461516D01*
Y461496D01*
X220858Y461466D01*
Y461446D01*
X220848Y461416D01*
X220838Y461396D01*
X220828Y461366D01*
X220808Y461346D01*
X220798Y461326D01*
X220778Y461306D01*
X220768Y461286D01*
X220748Y461266D01*
X220728Y461246D01*
X220708Y461226D01*
X220688Y461206D01*
X220668Y461196D01*
X220648Y461176D01*
X220628Y461166D01*
X220608Y461146D01*
X220578Y461136D01*
X220558Y461126D01*
X220528Y461116D01*
X220508D01*
X220478Y461106D01*
X220458D01*
X220428Y461096D01*
X217528D01*
X217498Y461106D01*
X217478D01*
X217448Y461116D01*
X217428D01*
X217398Y461126D01*
X217378Y461136D01*
X217348Y461146D01*
X217328Y461166D01*
X217308Y461176D01*
X217288Y461196D01*
X217268Y461206D01*
X217248Y461226D01*
X217228Y461246D01*
X217208Y461266D01*
X217188Y461286D01*
X217178Y461306D01*
X217158Y461326D01*
X217148Y461346D01*
X217128Y461366D01*
X217118Y461396D01*
X217108Y461416D01*
X217098Y461446D01*
Y461466D01*
X217088Y461496D01*
Y461516D01*
X217078Y461546D01*
Y461566D01*
Y461596D01*
Y467996D01*
Y468026D01*
Y468046D01*
X217088Y468076D01*
Y468096D01*
X217098Y468126D01*
Y468146D01*
X217108Y468176D01*
X217118Y468196D01*
X217128Y468226D01*
X217148Y468246D01*
X217158Y468266D01*
X217178Y468286D01*
X217188Y468306D01*
X217208Y468326D01*
X217228Y468346D01*
X217248Y468366D01*
X217268Y468386D01*
X217288Y468396D01*
X217308Y468416D01*
X217328Y468426D01*
X217348Y468446D01*
X217378Y468456D01*
X217398Y468466D01*
X217428Y468476D01*
X217448D01*
X217478Y468486D01*
X217498D01*
X217528Y468496D01*
X220428D01*
X220458Y468486D01*
D02*
G37*
G36*
X215458D02*
X215478D01*
X215508Y468476D01*
X215528D01*
X215558Y468466D01*
X215578Y468456D01*
X215608Y468446D01*
X215628Y468426D01*
X215648Y468416D01*
X215668Y468396D01*
X215688Y468386D01*
X215708Y468366D01*
X215728Y468346D01*
X215748Y468326D01*
X215768Y468306D01*
X215778Y468286D01*
X215798Y468266D01*
X215808Y468246D01*
X215828Y468226D01*
X215838Y468196D01*
X215848Y468176D01*
X215858Y468146D01*
Y468126D01*
X215868Y468096D01*
Y468076D01*
X215878Y468046D01*
Y468026D01*
Y467996D01*
Y461596D01*
Y461566D01*
Y461546D01*
X215868Y461516D01*
Y461496D01*
X215858Y461466D01*
Y461446D01*
X215848Y461416D01*
X215838Y461396D01*
X215828Y461366D01*
X215808Y461346D01*
X215798Y461326D01*
X215778Y461306D01*
X215768Y461286D01*
X215748Y461266D01*
X215728Y461246D01*
X215708Y461226D01*
X215688Y461206D01*
X215668Y461196D01*
X215648Y461176D01*
X215628Y461166D01*
X215608Y461146D01*
X215578Y461136D01*
X215558Y461126D01*
X215528Y461116D01*
X215508D01*
X215478Y461106D01*
X215458D01*
X215428Y461096D01*
X212528D01*
X212498Y461106D01*
X212478D01*
X212448Y461116D01*
X212428D01*
X212398Y461126D01*
X212378Y461136D01*
X212348Y461146D01*
X212328Y461166D01*
X212308Y461176D01*
X212288Y461196D01*
X212268Y461206D01*
X212248Y461226D01*
X212228Y461246D01*
X212208Y461266D01*
X212188Y461286D01*
X212178Y461306D01*
X212158Y461326D01*
X212148Y461346D01*
X212128Y461366D01*
X212118Y461396D01*
X212108Y461416D01*
X212098Y461446D01*
Y461466D01*
X212088Y461496D01*
Y461516D01*
X212078Y461546D01*
Y461566D01*
Y461596D01*
Y467996D01*
Y468026D01*
Y468046D01*
X212088Y468076D01*
Y468096D01*
X212098Y468126D01*
Y468146D01*
X212108Y468176D01*
X212118Y468196D01*
X212128Y468226D01*
X212148Y468246D01*
X212158Y468266D01*
X212178Y468286D01*
X212188Y468306D01*
X212208Y468326D01*
X212228Y468346D01*
X212248Y468366D01*
X212268Y468386D01*
X212288Y468396D01*
X212308Y468416D01*
X212328Y468426D01*
X212348Y468446D01*
X212378Y468456D01*
X212398Y468466D01*
X212428Y468476D01*
X212448D01*
X212478Y468486D01*
X212498D01*
X212528Y468496D01*
X215428D01*
X215458Y468486D01*
D02*
G37*
G36*
X243758Y460186D02*
X243778D01*
X243808Y460176D01*
X243828D01*
X243858Y460166D01*
X243878Y460156D01*
X243908Y460146D01*
X243928Y460126D01*
X243948Y460116D01*
X243968Y460096D01*
X243988Y460086D01*
X244008Y460066D01*
X244028Y460046D01*
X244048Y460026D01*
X244068Y460006D01*
X244078Y459986D01*
X244098Y459966D01*
X244108Y459946D01*
X244128Y459926D01*
X244138Y459896D01*
X244148Y459876D01*
X244158Y459846D01*
Y459826D01*
X244168Y459796D01*
Y459776D01*
X244178Y459746D01*
Y459726D01*
Y459696D01*
Y456896D01*
Y456866D01*
Y456846D01*
X244168Y456816D01*
Y456796D01*
X244158Y456766D01*
Y456746D01*
X244148Y456716D01*
X244138Y456696D01*
X244128Y456666D01*
X244108Y456646D01*
X244098Y456626D01*
X244078Y456606D01*
X244068Y456586D01*
X244048Y456566D01*
X244028Y456546D01*
X244008Y456526D01*
X243988Y456506D01*
X243968Y456496D01*
X243948Y456476D01*
X243928Y456466D01*
X243908Y456446D01*
X243878Y456436D01*
X243858Y456426D01*
X243828Y456416D01*
X243808D01*
X243778Y456406D01*
X243758D01*
X243728Y456396D01*
X237228D01*
X237198Y456406D01*
X237178D01*
X237148Y456416D01*
X237128D01*
X237098Y456426D01*
X237078Y456436D01*
X237048Y456446D01*
X237028Y456466D01*
X237008Y456476D01*
X236988Y456496D01*
X236968Y456506D01*
X236948Y456526D01*
X236928Y456546D01*
X236908Y456566D01*
X236888Y456586D01*
X236878Y456606D01*
X236858Y456626D01*
X236848Y456646D01*
X236828Y456666D01*
X236818Y456696D01*
X236808Y456716D01*
X236798Y456746D01*
Y456766D01*
X236788Y456796D01*
Y456816D01*
X236778Y456846D01*
Y456866D01*
Y456896D01*
Y459696D01*
Y459726D01*
Y459746D01*
X236788Y459776D01*
Y459796D01*
X236798Y459826D01*
Y459846D01*
X236808Y459876D01*
X236818Y459896D01*
X236828Y459926D01*
X236848Y459946D01*
X236858Y459966D01*
X236878Y459986D01*
X236888Y460006D01*
X236908Y460026D01*
X236928Y460046D01*
X236948Y460066D01*
X236968Y460086D01*
X236988Y460096D01*
X237008Y460116D01*
X237028Y460126D01*
X237048Y460146D01*
X237078Y460156D01*
X237098Y460166D01*
X237128Y460176D01*
X237148D01*
X237178Y460186D01*
X237198D01*
X237228Y460196D01*
X243728D01*
X243758Y460186D01*
D02*
G37*
G36*
X210758D02*
X210778D01*
X210808Y460176D01*
X210828D01*
X210858Y460166D01*
X210878Y460156D01*
X210908Y460146D01*
X210928Y460126D01*
X210948Y460116D01*
X210968Y460096D01*
X210988Y460086D01*
X211008Y460066D01*
X211028Y460046D01*
X211048Y460026D01*
X211068Y460006D01*
X211078Y459986D01*
X211098Y459966D01*
X211108Y459946D01*
X211128Y459926D01*
X211138Y459896D01*
X211148Y459876D01*
X211158Y459846D01*
Y459826D01*
X211168Y459796D01*
Y459776D01*
X211178Y459746D01*
Y459726D01*
Y459696D01*
Y456896D01*
Y456866D01*
Y456846D01*
X211168Y456816D01*
Y456796D01*
X211158Y456766D01*
Y456746D01*
X211148Y456716D01*
X211138Y456696D01*
X211128Y456666D01*
X211108Y456646D01*
X211098Y456626D01*
X211078Y456606D01*
X211068Y456586D01*
X211048Y456566D01*
X211028Y456546D01*
X211008Y456526D01*
X210988Y456506D01*
X210968Y456496D01*
X210948Y456476D01*
X210928Y456466D01*
X210908Y456446D01*
X210878Y456436D01*
X210858Y456426D01*
X210828Y456416D01*
X210808D01*
X210778Y456406D01*
X210758D01*
X210728Y456396D01*
X204228D01*
X204198Y456406D01*
X204178D01*
X204148Y456416D01*
X204128D01*
X204098Y456426D01*
X204078Y456436D01*
X204048Y456446D01*
X204028Y456466D01*
X204008Y456476D01*
X203988Y456496D01*
X203968Y456506D01*
X203948Y456526D01*
X203928Y456546D01*
X203908Y456566D01*
X203888Y456586D01*
X203878Y456606D01*
X203858Y456626D01*
X203848Y456646D01*
X203828Y456666D01*
X203818Y456696D01*
X203808Y456716D01*
X203798Y456746D01*
Y456766D01*
X203788Y456796D01*
Y456816D01*
X203778Y456846D01*
Y456866D01*
Y456896D01*
Y459696D01*
Y459726D01*
Y459746D01*
X203788Y459776D01*
Y459796D01*
X203798Y459826D01*
Y459846D01*
X203808Y459876D01*
X203818Y459896D01*
X203828Y459926D01*
X203848Y459946D01*
X203858Y459966D01*
X203878Y459986D01*
X203888Y460006D01*
X203908Y460026D01*
X203928Y460046D01*
X203948Y460066D01*
X203968Y460086D01*
X203988Y460096D01*
X204008Y460116D01*
X204028Y460126D01*
X204048Y460146D01*
X204078Y460156D01*
X204098Y460166D01*
X204128Y460176D01*
X204148D01*
X204178Y460186D01*
X204198D01*
X204228Y460196D01*
X210728D01*
X210758Y460186D01*
D02*
G37*
G36*
X243758Y455186D02*
X243778D01*
X243808Y455176D01*
X243828D01*
X243858Y455166D01*
X243878Y455156D01*
X243908Y455146D01*
X243928Y455126D01*
X243948Y455116D01*
X243968Y455096D01*
X243988Y455086D01*
X244008Y455066D01*
X244028Y455046D01*
X244048Y455026D01*
X244068Y455006D01*
X244078Y454986D01*
X244098Y454966D01*
X244108Y454946D01*
X244128Y454926D01*
X244138Y454896D01*
X244148Y454876D01*
X244158Y454846D01*
Y454826D01*
X244168Y454796D01*
Y454776D01*
X244178Y454746D01*
Y454726D01*
Y454696D01*
Y451896D01*
Y451866D01*
Y451846D01*
X244168Y451816D01*
Y451796D01*
X244158Y451766D01*
Y451746D01*
X244148Y451716D01*
X244138Y451696D01*
X244128Y451666D01*
X244108Y451646D01*
X244098Y451626D01*
X244078Y451606D01*
X244068Y451586D01*
X244048Y451566D01*
X244028Y451546D01*
X244008Y451526D01*
X243988Y451506D01*
X243968Y451496D01*
X243948Y451476D01*
X243928Y451466D01*
X243908Y451446D01*
X243878Y451436D01*
X243858Y451426D01*
X243828Y451416D01*
X243808D01*
X243778Y451406D01*
X243758D01*
X243728Y451396D01*
X237228D01*
X237198Y451406D01*
X237178D01*
X237148Y451416D01*
X237128D01*
X237098Y451426D01*
X237078Y451436D01*
X237048Y451446D01*
X237028Y451466D01*
X237008Y451476D01*
X236988Y451496D01*
X236968Y451506D01*
X236948Y451526D01*
X236928Y451546D01*
X236908Y451566D01*
X236888Y451586D01*
X236878Y451606D01*
X236858Y451626D01*
X236848Y451646D01*
X236828Y451666D01*
X236818Y451696D01*
X236808Y451716D01*
X236798Y451746D01*
Y451766D01*
X236788Y451796D01*
Y451816D01*
X236778Y451846D01*
Y451866D01*
Y451896D01*
Y454696D01*
Y454726D01*
Y454746D01*
X236788Y454776D01*
Y454796D01*
X236798Y454826D01*
Y454846D01*
X236808Y454876D01*
X236818Y454896D01*
X236828Y454926D01*
X236848Y454946D01*
X236858Y454966D01*
X236878Y454986D01*
X236888Y455006D01*
X236908Y455026D01*
X236928Y455046D01*
X236948Y455066D01*
X236968Y455086D01*
X236988Y455096D01*
X237008Y455116D01*
X237028Y455126D01*
X237048Y455146D01*
X237078Y455156D01*
X237098Y455166D01*
X237128Y455176D01*
X237148D01*
X237178Y455186D01*
X237198D01*
X237228Y455196D01*
X243728D01*
X243758Y455186D01*
D02*
G37*
G36*
X210758D02*
X210778D01*
X210808Y455176D01*
X210828D01*
X210858Y455166D01*
X210878Y455156D01*
X210908Y455146D01*
X210928Y455126D01*
X210948Y455116D01*
X210968Y455096D01*
X210988Y455086D01*
X211008Y455066D01*
X211028Y455046D01*
X211048Y455026D01*
X211068Y455006D01*
X211078Y454986D01*
X211098Y454966D01*
X211108Y454946D01*
X211128Y454926D01*
X211138Y454896D01*
X211148Y454876D01*
X211158Y454846D01*
Y454826D01*
X211168Y454796D01*
Y454776D01*
X211178Y454746D01*
Y454726D01*
Y454696D01*
Y451896D01*
Y451866D01*
Y451846D01*
X211168Y451816D01*
Y451796D01*
X211158Y451766D01*
Y451746D01*
X211148Y451716D01*
X211138Y451696D01*
X211128Y451666D01*
X211108Y451646D01*
X211098Y451626D01*
X211078Y451606D01*
X211068Y451586D01*
X211048Y451566D01*
X211028Y451546D01*
X211008Y451526D01*
X210988Y451506D01*
X210968Y451496D01*
X210948Y451476D01*
X210928Y451466D01*
X210908Y451446D01*
X210878Y451436D01*
X210858Y451426D01*
X210828Y451416D01*
X210808D01*
X210778Y451406D01*
X210758D01*
X210728Y451396D01*
X204228D01*
X204198Y451406D01*
X204178D01*
X204148Y451416D01*
X204128D01*
X204098Y451426D01*
X204078Y451436D01*
X204048Y451446D01*
X204028Y451466D01*
X204008Y451476D01*
X203988Y451496D01*
X203968Y451506D01*
X203948Y451526D01*
X203928Y451546D01*
X203908Y451566D01*
X203888Y451586D01*
X203878Y451606D01*
X203858Y451626D01*
X203848Y451646D01*
X203828Y451666D01*
X203818Y451696D01*
X203808Y451716D01*
X203798Y451746D01*
Y451766D01*
X203788Y451796D01*
Y451816D01*
X203778Y451846D01*
Y451866D01*
Y451896D01*
Y454696D01*
Y454726D01*
Y454746D01*
X203788Y454776D01*
Y454796D01*
X203798Y454826D01*
Y454846D01*
X203808Y454876D01*
X203818Y454896D01*
X203828Y454926D01*
X203848Y454946D01*
X203858Y454966D01*
X203878Y454986D01*
X203888Y455006D01*
X203908Y455026D01*
X203928Y455046D01*
X203948Y455066D01*
X203968Y455086D01*
X203988Y455096D01*
X204008Y455116D01*
X204028Y455126D01*
X204048Y455146D01*
X204078Y455156D01*
X204098Y455166D01*
X204128Y455176D01*
X204148D01*
X204178Y455186D01*
X204198D01*
X204228Y455196D01*
X210728D01*
X210758Y455186D01*
D02*
G37*
G36*
X243758Y450186D02*
X243778D01*
X243808Y450176D01*
X243828D01*
X243858Y450166D01*
X243878Y450156D01*
X243908Y450146D01*
X243928Y450126D01*
X243948Y450116D01*
X243968Y450096D01*
X243988Y450086D01*
X244008Y450066D01*
X244028Y450046D01*
X244048Y450026D01*
X244068Y450006D01*
X244078Y449986D01*
X244098Y449966D01*
X244108Y449946D01*
X244128Y449926D01*
X244138Y449896D01*
X244148Y449876D01*
X244158Y449846D01*
Y449826D01*
X244168Y449796D01*
Y449776D01*
X244178Y449746D01*
Y449726D01*
Y449696D01*
Y446896D01*
Y446866D01*
Y446846D01*
X244168Y446816D01*
Y446796D01*
X244158Y446766D01*
Y446746D01*
X244148Y446716D01*
X244138Y446696D01*
X244128Y446666D01*
X244108Y446646D01*
X244098Y446626D01*
X244078Y446606D01*
X244068Y446586D01*
X244048Y446566D01*
X244028Y446546D01*
X244008Y446526D01*
X243988Y446506D01*
X243968Y446496D01*
X243948Y446476D01*
X243928Y446466D01*
X243908Y446446D01*
X243878Y446436D01*
X243858Y446426D01*
X243828Y446416D01*
X243808D01*
X243778Y446406D01*
X243758D01*
X243728Y446396D01*
X237228D01*
X237198Y446406D01*
X237178D01*
X237148Y446416D01*
X237128D01*
X237098Y446426D01*
X237078Y446436D01*
X237048Y446446D01*
X237028Y446466D01*
X237008Y446476D01*
X236988Y446496D01*
X236968Y446506D01*
X236948Y446526D01*
X236928Y446546D01*
X236908Y446566D01*
X236888Y446586D01*
X236878Y446606D01*
X236858Y446626D01*
X236848Y446646D01*
X236828Y446666D01*
X236818Y446696D01*
X236808Y446716D01*
X236798Y446746D01*
Y446766D01*
X236788Y446796D01*
Y446816D01*
X236778Y446846D01*
Y446866D01*
Y446896D01*
Y449696D01*
Y449726D01*
Y449746D01*
X236788Y449776D01*
Y449796D01*
X236798Y449826D01*
Y449846D01*
X236808Y449876D01*
X236818Y449896D01*
X236828Y449926D01*
X236848Y449946D01*
X236858Y449966D01*
X236878Y449986D01*
X236888Y450006D01*
X236908Y450026D01*
X236928Y450046D01*
X236948Y450066D01*
X236968Y450086D01*
X236988Y450096D01*
X237008Y450116D01*
X237028Y450126D01*
X237048Y450146D01*
X237078Y450156D01*
X237098Y450166D01*
X237128Y450176D01*
X237148D01*
X237178Y450186D01*
X237198D01*
X237228Y450196D01*
X243728D01*
X243758Y450186D01*
D02*
G37*
G36*
X210758D02*
X210778D01*
X210808Y450176D01*
X210828D01*
X210858Y450166D01*
X210878Y450156D01*
X210908Y450146D01*
X210928Y450126D01*
X210948Y450116D01*
X210968Y450096D01*
X210988Y450086D01*
X211008Y450066D01*
X211028Y450046D01*
X211048Y450026D01*
X211068Y450006D01*
X211078Y449986D01*
X211098Y449966D01*
X211108Y449946D01*
X211128Y449926D01*
X211138Y449896D01*
X211148Y449876D01*
X211158Y449846D01*
Y449826D01*
X211168Y449796D01*
Y449776D01*
X211178Y449746D01*
Y449726D01*
Y449696D01*
Y446896D01*
Y446866D01*
Y446846D01*
X211168Y446816D01*
Y446796D01*
X211158Y446766D01*
Y446746D01*
X211148Y446716D01*
X211138Y446696D01*
X211128Y446666D01*
X211108Y446646D01*
X211098Y446626D01*
X211078Y446606D01*
X211068Y446586D01*
X211048Y446566D01*
X211028Y446546D01*
X211008Y446526D01*
X210988Y446506D01*
X210968Y446496D01*
X210948Y446476D01*
X210928Y446466D01*
X210908Y446446D01*
X210878Y446436D01*
X210858Y446426D01*
X210828Y446416D01*
X210808D01*
X210778Y446406D01*
X210758D01*
X210728Y446396D01*
X204228D01*
X204198Y446406D01*
X204178D01*
X204148Y446416D01*
X204128D01*
X204098Y446426D01*
X204078Y446436D01*
X204048Y446446D01*
X204028Y446466D01*
X204008Y446476D01*
X203988Y446496D01*
X203968Y446506D01*
X203948Y446526D01*
X203928Y446546D01*
X203908Y446566D01*
X203888Y446586D01*
X203878Y446606D01*
X203858Y446626D01*
X203848Y446646D01*
X203828Y446666D01*
X203818Y446696D01*
X203808Y446716D01*
X203798Y446746D01*
Y446766D01*
X203788Y446796D01*
Y446816D01*
X203778Y446846D01*
Y446866D01*
Y446896D01*
Y449696D01*
Y449726D01*
Y449746D01*
X203788Y449776D01*
Y449796D01*
X203798Y449826D01*
Y449846D01*
X203808Y449876D01*
X203818Y449896D01*
X203828Y449926D01*
X203848Y449946D01*
X203858Y449966D01*
X203878Y449986D01*
X203888Y450006D01*
X203908Y450026D01*
X203928Y450046D01*
X203948Y450066D01*
X203968Y450086D01*
X203988Y450096D01*
X204008Y450116D01*
X204028Y450126D01*
X204048Y450146D01*
X204078Y450156D01*
X204098Y450166D01*
X204128Y450176D01*
X204148D01*
X204178Y450186D01*
X204198D01*
X204228Y450196D01*
X210728D01*
X210758Y450186D01*
D02*
G37*
G36*
X243758Y445186D02*
X243778D01*
X243808Y445176D01*
X243828D01*
X243858Y445166D01*
X243878Y445156D01*
X243908Y445146D01*
X243928Y445126D01*
X243948Y445116D01*
X243968Y445096D01*
X243988Y445086D01*
X244008Y445066D01*
X244028Y445046D01*
X244048Y445026D01*
X244068Y445006D01*
X244078Y444986D01*
X244098Y444966D01*
X244108Y444946D01*
X244128Y444926D01*
X244138Y444896D01*
X244148Y444876D01*
X244158Y444846D01*
Y444826D01*
X244168Y444796D01*
Y444776D01*
X244178Y444746D01*
Y444726D01*
Y444696D01*
Y441896D01*
Y441866D01*
Y441846D01*
X244168Y441816D01*
Y441796D01*
X244158Y441766D01*
Y441746D01*
X244148Y441716D01*
X244138Y441696D01*
X244128Y441666D01*
X244108Y441646D01*
X244098Y441626D01*
X244078Y441606D01*
X244068Y441586D01*
X244048Y441566D01*
X244028Y441546D01*
X244008Y441526D01*
X243988Y441506D01*
X243968Y441496D01*
X243948Y441476D01*
X243928Y441466D01*
X243908Y441446D01*
X243878Y441436D01*
X243858Y441426D01*
X243828Y441416D01*
X243808D01*
X243778Y441406D01*
X243758D01*
X243728Y441396D01*
X237228D01*
X237198Y441406D01*
X237178D01*
X237148Y441416D01*
X237128D01*
X237098Y441426D01*
X237078Y441436D01*
X237048Y441446D01*
X237028Y441466D01*
X237008Y441476D01*
X236988Y441496D01*
X236968Y441506D01*
X236948Y441526D01*
X236928Y441546D01*
X236908Y441566D01*
X236888Y441586D01*
X236878Y441606D01*
X236858Y441626D01*
X236848Y441646D01*
X236828Y441666D01*
X236818Y441696D01*
X236808Y441716D01*
X236798Y441746D01*
Y441766D01*
X236788Y441796D01*
Y441816D01*
X236778Y441846D01*
Y441866D01*
Y441896D01*
Y444696D01*
Y444726D01*
Y444746D01*
X236788Y444776D01*
Y444796D01*
X236798Y444826D01*
Y444846D01*
X236808Y444876D01*
X236818Y444896D01*
X236828Y444926D01*
X236848Y444946D01*
X236858Y444966D01*
X236878Y444986D01*
X236888Y445006D01*
X236908Y445026D01*
X236928Y445046D01*
X236948Y445066D01*
X236968Y445086D01*
X236988Y445096D01*
X237008Y445116D01*
X237028Y445126D01*
X237048Y445146D01*
X237078Y445156D01*
X237098Y445166D01*
X237128Y445176D01*
X237148D01*
X237178Y445186D01*
X237198D01*
X237228Y445196D01*
X243728D01*
X243758Y445186D01*
D02*
G37*
G36*
X210758D02*
X210778D01*
X210808Y445176D01*
X210828D01*
X210858Y445166D01*
X210878Y445156D01*
X210908Y445146D01*
X210928Y445126D01*
X210948Y445116D01*
X210968Y445096D01*
X210988Y445086D01*
X211008Y445066D01*
X211028Y445046D01*
X211048Y445026D01*
X211068Y445006D01*
X211078Y444986D01*
X211098Y444966D01*
X211108Y444946D01*
X211128Y444926D01*
X211138Y444896D01*
X211148Y444876D01*
X211158Y444846D01*
Y444826D01*
X211168Y444796D01*
Y444776D01*
X211178Y444746D01*
Y444726D01*
Y444696D01*
Y441896D01*
Y441866D01*
Y441846D01*
X211168Y441816D01*
Y441796D01*
X211158Y441766D01*
Y441746D01*
X211148Y441716D01*
X211138Y441696D01*
X211128Y441666D01*
X211108Y441646D01*
X211098Y441626D01*
X211078Y441606D01*
X211068Y441586D01*
X211048Y441566D01*
X211028Y441546D01*
X211008Y441526D01*
X210988Y441506D01*
X210968Y441496D01*
X210948Y441476D01*
X210928Y441466D01*
X210908Y441446D01*
X210878Y441436D01*
X210858Y441426D01*
X210828Y441416D01*
X210808D01*
X210778Y441406D01*
X210758D01*
X210728Y441396D01*
X204228D01*
X204198Y441406D01*
X204178D01*
X204148Y441416D01*
X204128D01*
X204098Y441426D01*
X204078Y441436D01*
X204048Y441446D01*
X204028Y441466D01*
X204008Y441476D01*
X203988Y441496D01*
X203968Y441506D01*
X203948Y441526D01*
X203928Y441546D01*
X203908Y441566D01*
X203888Y441586D01*
X203878Y441606D01*
X203858Y441626D01*
X203848Y441646D01*
X203828Y441666D01*
X203818Y441696D01*
X203808Y441716D01*
X203798Y441746D01*
Y441766D01*
X203788Y441796D01*
Y441816D01*
X203778Y441846D01*
Y441866D01*
Y441896D01*
Y444696D01*
Y444726D01*
Y444746D01*
X203788Y444776D01*
Y444796D01*
X203798Y444826D01*
Y444846D01*
X203808Y444876D01*
X203818Y444896D01*
X203828Y444926D01*
X203848Y444946D01*
X203858Y444966D01*
X203878Y444986D01*
X203888Y445006D01*
X203908Y445026D01*
X203928Y445046D01*
X203948Y445066D01*
X203968Y445086D01*
X203988Y445096D01*
X204008Y445116D01*
X204028Y445126D01*
X204048Y445146D01*
X204078Y445156D01*
X204098Y445166D01*
X204128Y445176D01*
X204148D01*
X204178Y445186D01*
X204198D01*
X204228Y445196D01*
X210728D01*
X210758Y445186D01*
D02*
G37*
G36*
X243758Y440186D02*
X243778D01*
X243808Y440176D01*
X243828D01*
X243858Y440166D01*
X243878Y440156D01*
X243908Y440146D01*
X243928Y440126D01*
X243948Y440116D01*
X243968Y440096D01*
X243988Y440086D01*
X244008Y440066D01*
X244028Y440046D01*
X244048Y440026D01*
X244068Y440006D01*
X244078Y439986D01*
X244098Y439966D01*
X244108Y439946D01*
X244128Y439926D01*
X244138Y439896D01*
X244148Y439876D01*
X244158Y439846D01*
Y439826D01*
X244168Y439796D01*
Y439776D01*
X244178Y439746D01*
Y439726D01*
Y439696D01*
Y436896D01*
Y436866D01*
Y436846D01*
X244168Y436816D01*
Y436796D01*
X244158Y436766D01*
Y436746D01*
X244148Y436716D01*
X244138Y436696D01*
X244128Y436666D01*
X244108Y436646D01*
X244098Y436626D01*
X244078Y436606D01*
X244068Y436586D01*
X244048Y436566D01*
X244028Y436546D01*
X244008Y436526D01*
X243988Y436506D01*
X243968Y436496D01*
X243948Y436476D01*
X243928Y436466D01*
X243908Y436446D01*
X243878Y436436D01*
X243858Y436426D01*
X243828Y436416D01*
X243808D01*
X243778Y436406D01*
X243758D01*
X243728Y436396D01*
X237228D01*
X237198Y436406D01*
X237178D01*
X237148Y436416D01*
X237128D01*
X237098Y436426D01*
X237078Y436436D01*
X237048Y436446D01*
X237028Y436466D01*
X237008Y436476D01*
X236988Y436496D01*
X236968Y436506D01*
X236948Y436526D01*
X236928Y436546D01*
X236908Y436566D01*
X236888Y436586D01*
X236878Y436606D01*
X236858Y436626D01*
X236848Y436646D01*
X236828Y436666D01*
X236818Y436696D01*
X236808Y436716D01*
X236798Y436746D01*
Y436766D01*
X236788Y436796D01*
Y436816D01*
X236778Y436846D01*
Y436866D01*
Y436896D01*
Y439696D01*
Y439726D01*
Y439746D01*
X236788Y439776D01*
Y439796D01*
X236798Y439826D01*
Y439846D01*
X236808Y439876D01*
X236818Y439896D01*
X236828Y439926D01*
X236848Y439946D01*
X236858Y439966D01*
X236878Y439986D01*
X236888Y440006D01*
X236908Y440026D01*
X236928Y440046D01*
X236948Y440066D01*
X236968Y440086D01*
X236988Y440096D01*
X237008Y440116D01*
X237028Y440126D01*
X237048Y440146D01*
X237078Y440156D01*
X237098Y440166D01*
X237128Y440176D01*
X237148D01*
X237178Y440186D01*
X237198D01*
X237228Y440196D01*
X243728D01*
X243758Y440186D01*
D02*
G37*
G36*
X210758D02*
X210778D01*
X210808Y440176D01*
X210828D01*
X210858Y440166D01*
X210878Y440156D01*
X210908Y440146D01*
X210928Y440126D01*
X210948Y440116D01*
X210968Y440096D01*
X210988Y440086D01*
X211008Y440066D01*
X211028Y440046D01*
X211048Y440026D01*
X211068Y440006D01*
X211078Y439986D01*
X211098Y439966D01*
X211108Y439946D01*
X211128Y439926D01*
X211138Y439896D01*
X211148Y439876D01*
X211158Y439846D01*
Y439826D01*
X211168Y439796D01*
Y439776D01*
X211178Y439746D01*
Y439726D01*
Y439696D01*
Y436896D01*
Y436866D01*
Y436846D01*
X211168Y436816D01*
Y436796D01*
X211158Y436766D01*
Y436746D01*
X211148Y436716D01*
X211138Y436696D01*
X211128Y436666D01*
X211108Y436646D01*
X211098Y436626D01*
X211078Y436606D01*
X211068Y436586D01*
X211048Y436566D01*
X211028Y436546D01*
X211008Y436526D01*
X210988Y436506D01*
X210968Y436496D01*
X210948Y436476D01*
X210928Y436466D01*
X210908Y436446D01*
X210878Y436436D01*
X210858Y436426D01*
X210828Y436416D01*
X210808D01*
X210778Y436406D01*
X210758D01*
X210728Y436396D01*
X204228D01*
X204198Y436406D01*
X204178D01*
X204148Y436416D01*
X204128D01*
X204098Y436426D01*
X204078Y436436D01*
X204048Y436446D01*
X204028Y436466D01*
X204008Y436476D01*
X203988Y436496D01*
X203968Y436506D01*
X203948Y436526D01*
X203928Y436546D01*
X203908Y436566D01*
X203888Y436586D01*
X203878Y436606D01*
X203858Y436626D01*
X203848Y436646D01*
X203828Y436666D01*
X203818Y436696D01*
X203808Y436716D01*
X203798Y436746D01*
Y436766D01*
X203788Y436796D01*
Y436816D01*
X203778Y436846D01*
Y436866D01*
Y436896D01*
Y439696D01*
Y439726D01*
Y439746D01*
X203788Y439776D01*
Y439796D01*
X203798Y439826D01*
Y439846D01*
X203808Y439876D01*
X203818Y439896D01*
X203828Y439926D01*
X203848Y439946D01*
X203858Y439966D01*
X203878Y439986D01*
X203888Y440006D01*
X203908Y440026D01*
X203928Y440046D01*
X203948Y440066D01*
X203968Y440086D01*
X203988Y440096D01*
X204008Y440116D01*
X204028Y440126D01*
X204048Y440146D01*
X204078Y440156D01*
X204098Y440166D01*
X204128Y440176D01*
X204148D01*
X204178Y440186D01*
X204198D01*
X204228Y440196D01*
X210728D01*
X210758Y440186D01*
D02*
G37*
G36*
X235458Y435486D02*
X235478D01*
X235508Y435476D01*
X235528D01*
X235558Y435466D01*
X235578Y435456D01*
X235608Y435446D01*
X235628Y435426D01*
X235648Y435416D01*
X235668Y435396D01*
X235688Y435386D01*
X235708Y435366D01*
X235728Y435346D01*
X235748Y435326D01*
X235768Y435306D01*
X235778Y435286D01*
X235798Y435266D01*
X235808Y435246D01*
X235828Y435226D01*
X235838Y435196D01*
X235848Y435176D01*
X235858Y435146D01*
Y435126D01*
X235868Y435096D01*
Y435076D01*
X235878Y435046D01*
Y435026D01*
Y434996D01*
Y428596D01*
Y428566D01*
Y428546D01*
X235868Y428516D01*
Y428496D01*
X235858Y428466D01*
Y428446D01*
X235848Y428416D01*
X235838Y428396D01*
X235828Y428366D01*
X235808Y428346D01*
X235798Y428326D01*
X235778Y428306D01*
X235768Y428286D01*
X235748Y428266D01*
X235728Y428246D01*
X235708Y428226D01*
X235688Y428206D01*
X235668Y428196D01*
X235648Y428176D01*
X235628Y428166D01*
X235608Y428146D01*
X235578Y428136D01*
X235558Y428126D01*
X235528Y428116D01*
X235508D01*
X235478Y428106D01*
X235458D01*
X235428Y428096D01*
X232528D01*
X232498Y428106D01*
X232478D01*
X232448Y428116D01*
X232428D01*
X232398Y428126D01*
X232378Y428136D01*
X232348Y428146D01*
X232328Y428166D01*
X232308Y428176D01*
X232288Y428196D01*
X232268Y428206D01*
X232248Y428226D01*
X232228Y428246D01*
X232208Y428266D01*
X232188Y428286D01*
X232178Y428306D01*
X232158Y428326D01*
X232148Y428346D01*
X232128Y428366D01*
X232118Y428396D01*
X232108Y428416D01*
X232098Y428446D01*
Y428466D01*
X232088Y428496D01*
Y428516D01*
X232078Y428546D01*
Y428566D01*
Y428596D01*
Y434996D01*
Y435026D01*
Y435046D01*
X232088Y435076D01*
Y435096D01*
X232098Y435126D01*
Y435146D01*
X232108Y435176D01*
X232118Y435196D01*
X232128Y435226D01*
X232148Y435246D01*
X232158Y435266D01*
X232178Y435286D01*
X232188Y435306D01*
X232208Y435326D01*
X232228Y435346D01*
X232248Y435366D01*
X232268Y435386D01*
X232288Y435396D01*
X232308Y435416D01*
X232328Y435426D01*
X232348Y435446D01*
X232378Y435456D01*
X232398Y435466D01*
X232428Y435476D01*
X232448D01*
X232478Y435486D01*
X232498D01*
X232528Y435496D01*
X235428D01*
X235458Y435486D01*
D02*
G37*
G36*
X230458D02*
X230478D01*
X230508Y435476D01*
X230528D01*
X230558Y435466D01*
X230578Y435456D01*
X230608Y435446D01*
X230628Y435426D01*
X230648Y435416D01*
X230668Y435396D01*
X230688Y435386D01*
X230708Y435366D01*
X230728Y435346D01*
X230748Y435326D01*
X230768Y435306D01*
X230778Y435286D01*
X230798Y435266D01*
X230808Y435246D01*
X230828Y435226D01*
X230838Y435196D01*
X230848Y435176D01*
X230858Y435146D01*
Y435126D01*
X230868Y435096D01*
Y435076D01*
X230878Y435046D01*
Y435026D01*
Y434996D01*
Y428596D01*
Y428566D01*
Y428546D01*
X230868Y428516D01*
Y428496D01*
X230858Y428466D01*
Y428446D01*
X230848Y428416D01*
X230838Y428396D01*
X230828Y428366D01*
X230808Y428346D01*
X230798Y428326D01*
X230778Y428306D01*
X230768Y428286D01*
X230748Y428266D01*
X230728Y428246D01*
X230708Y428226D01*
X230688Y428206D01*
X230668Y428196D01*
X230648Y428176D01*
X230628Y428166D01*
X230608Y428146D01*
X230578Y428136D01*
X230558Y428126D01*
X230528Y428116D01*
X230508D01*
X230478Y428106D01*
X230458D01*
X230428Y428096D01*
X227528D01*
X227498Y428106D01*
X227478D01*
X227448Y428116D01*
X227428D01*
X227398Y428126D01*
X227378Y428136D01*
X227348Y428146D01*
X227328Y428166D01*
X227308Y428176D01*
X227288Y428196D01*
X227268Y428206D01*
X227248Y428226D01*
X227228Y428246D01*
X227208Y428266D01*
X227188Y428286D01*
X227178Y428306D01*
X227158Y428326D01*
X227148Y428346D01*
X227128Y428366D01*
X227118Y428396D01*
X227108Y428416D01*
X227098Y428446D01*
Y428466D01*
X227088Y428496D01*
Y428516D01*
X227078Y428546D01*
Y428566D01*
Y428596D01*
Y434996D01*
Y435026D01*
Y435046D01*
X227088Y435076D01*
Y435096D01*
X227098Y435126D01*
Y435146D01*
X227108Y435176D01*
X227118Y435196D01*
X227128Y435226D01*
X227148Y435246D01*
X227158Y435266D01*
X227178Y435286D01*
X227188Y435306D01*
X227208Y435326D01*
X227228Y435346D01*
X227248Y435366D01*
X227268Y435386D01*
X227288Y435396D01*
X227308Y435416D01*
X227328Y435426D01*
X227348Y435446D01*
X227378Y435456D01*
X227398Y435466D01*
X227428Y435476D01*
X227448D01*
X227478Y435486D01*
X227498D01*
X227528Y435496D01*
X230428D01*
X230458Y435486D01*
D02*
G37*
G36*
X225458D02*
X225478D01*
X225508Y435476D01*
X225528D01*
X225558Y435466D01*
X225578Y435456D01*
X225608Y435446D01*
X225628Y435426D01*
X225648Y435416D01*
X225668Y435396D01*
X225688Y435386D01*
X225708Y435366D01*
X225728Y435346D01*
X225748Y435326D01*
X225768Y435306D01*
X225778Y435286D01*
X225798Y435266D01*
X225808Y435246D01*
X225828Y435226D01*
X225838Y435196D01*
X225848Y435176D01*
X225858Y435146D01*
Y435126D01*
X225868Y435096D01*
Y435076D01*
X225878Y435046D01*
Y435026D01*
Y434996D01*
Y428596D01*
Y428566D01*
Y428546D01*
X225868Y428516D01*
Y428496D01*
X225858Y428466D01*
Y428446D01*
X225848Y428416D01*
X225838Y428396D01*
X225828Y428366D01*
X225808Y428346D01*
X225798Y428326D01*
X225778Y428306D01*
X225768Y428286D01*
X225748Y428266D01*
X225728Y428246D01*
X225708Y428226D01*
X225688Y428206D01*
X225668Y428196D01*
X225648Y428176D01*
X225628Y428166D01*
X225608Y428146D01*
X225578Y428136D01*
X225558Y428126D01*
X225528Y428116D01*
X225508D01*
X225478Y428106D01*
X225458D01*
X225428Y428096D01*
X222528D01*
X222498Y428106D01*
X222478D01*
X222448Y428116D01*
X222428D01*
X222398Y428126D01*
X222378Y428136D01*
X222348Y428146D01*
X222328Y428166D01*
X222308Y428176D01*
X222288Y428196D01*
X222268Y428206D01*
X222248Y428226D01*
X222228Y428246D01*
X222208Y428266D01*
X222188Y428286D01*
X222178Y428306D01*
X222158Y428326D01*
X222148Y428346D01*
X222128Y428366D01*
X222118Y428396D01*
X222108Y428416D01*
X222098Y428446D01*
Y428466D01*
X222088Y428496D01*
Y428516D01*
X222078Y428546D01*
Y428566D01*
Y428596D01*
Y434996D01*
Y435026D01*
Y435046D01*
X222088Y435076D01*
Y435096D01*
X222098Y435126D01*
Y435146D01*
X222108Y435176D01*
X222118Y435196D01*
X222128Y435226D01*
X222148Y435246D01*
X222158Y435266D01*
X222178Y435286D01*
X222188Y435306D01*
X222208Y435326D01*
X222228Y435346D01*
X222248Y435366D01*
X222268Y435386D01*
X222288Y435396D01*
X222308Y435416D01*
X222328Y435426D01*
X222348Y435446D01*
X222378Y435456D01*
X222398Y435466D01*
X222428Y435476D01*
X222448D01*
X222478Y435486D01*
X222498D01*
X222528Y435496D01*
X225428D01*
X225458Y435486D01*
D02*
G37*
G36*
X220458D02*
X220478D01*
X220508Y435476D01*
X220528D01*
X220558Y435466D01*
X220578Y435456D01*
X220608Y435446D01*
X220628Y435426D01*
X220648Y435416D01*
X220668Y435396D01*
X220688Y435386D01*
X220708Y435366D01*
X220728Y435346D01*
X220748Y435326D01*
X220768Y435306D01*
X220778Y435286D01*
X220798Y435266D01*
X220808Y435246D01*
X220828Y435226D01*
X220838Y435196D01*
X220848Y435176D01*
X220858Y435146D01*
Y435126D01*
X220868Y435096D01*
Y435076D01*
X220878Y435046D01*
Y435026D01*
Y434996D01*
Y428596D01*
Y428566D01*
Y428546D01*
X220868Y428516D01*
Y428496D01*
X220858Y428466D01*
Y428446D01*
X220848Y428416D01*
X220838Y428396D01*
X220828Y428366D01*
X220808Y428346D01*
X220798Y428326D01*
X220778Y428306D01*
X220768Y428286D01*
X220748Y428266D01*
X220728Y428246D01*
X220708Y428226D01*
X220688Y428206D01*
X220668Y428196D01*
X220648Y428176D01*
X220628Y428166D01*
X220608Y428146D01*
X220578Y428136D01*
X220558Y428126D01*
X220528Y428116D01*
X220508D01*
X220478Y428106D01*
X220458D01*
X220428Y428096D01*
X217528D01*
X217498Y428106D01*
X217478D01*
X217448Y428116D01*
X217428D01*
X217398Y428126D01*
X217378Y428136D01*
X217348Y428146D01*
X217328Y428166D01*
X217308Y428176D01*
X217288Y428196D01*
X217268Y428206D01*
X217248Y428226D01*
X217228Y428246D01*
X217208Y428266D01*
X217188Y428286D01*
X217178Y428306D01*
X217158Y428326D01*
X217148Y428346D01*
X217128Y428366D01*
X217118Y428396D01*
X217108Y428416D01*
X217098Y428446D01*
Y428466D01*
X217088Y428496D01*
Y428516D01*
X217078Y428546D01*
Y428566D01*
Y428596D01*
Y434996D01*
Y435026D01*
Y435046D01*
X217088Y435076D01*
Y435096D01*
X217098Y435126D01*
Y435146D01*
X217108Y435176D01*
X217118Y435196D01*
X217128Y435226D01*
X217148Y435246D01*
X217158Y435266D01*
X217178Y435286D01*
X217188Y435306D01*
X217208Y435326D01*
X217228Y435346D01*
X217248Y435366D01*
X217268Y435386D01*
X217288Y435396D01*
X217308Y435416D01*
X217328Y435426D01*
X217348Y435446D01*
X217378Y435456D01*
X217398Y435466D01*
X217428Y435476D01*
X217448D01*
X217478Y435486D01*
X217498D01*
X217528Y435496D01*
X220428D01*
X220458Y435486D01*
D02*
G37*
G36*
X215458D02*
X215478D01*
X215508Y435476D01*
X215528D01*
X215558Y435466D01*
X215578Y435456D01*
X215608Y435446D01*
X215628Y435426D01*
X215648Y435416D01*
X215668Y435396D01*
X215688Y435386D01*
X215708Y435366D01*
X215728Y435346D01*
X215748Y435326D01*
X215768Y435306D01*
X215778Y435286D01*
X215798Y435266D01*
X215808Y435246D01*
X215828Y435226D01*
X215838Y435196D01*
X215848Y435176D01*
X215858Y435146D01*
Y435126D01*
X215868Y435096D01*
Y435076D01*
X215878Y435046D01*
Y435026D01*
Y434996D01*
Y428596D01*
Y428566D01*
Y428546D01*
X215868Y428516D01*
Y428496D01*
X215858Y428466D01*
Y428446D01*
X215848Y428416D01*
X215838Y428396D01*
X215828Y428366D01*
X215808Y428346D01*
X215798Y428326D01*
X215778Y428306D01*
X215768Y428286D01*
X215748Y428266D01*
X215728Y428246D01*
X215708Y428226D01*
X215688Y428206D01*
X215668Y428196D01*
X215648Y428176D01*
X215628Y428166D01*
X215608Y428146D01*
X215578Y428136D01*
X215558Y428126D01*
X215528Y428116D01*
X215508D01*
X215478Y428106D01*
X215458D01*
X215428Y428096D01*
X212528D01*
X212498Y428106D01*
X212478D01*
X212448Y428116D01*
X212428D01*
X212398Y428126D01*
X212378Y428136D01*
X212348Y428146D01*
X212328Y428166D01*
X212308Y428176D01*
X212288Y428196D01*
X212268Y428206D01*
X212248Y428226D01*
X212228Y428246D01*
X212208Y428266D01*
X212188Y428286D01*
X212178Y428306D01*
X212158Y428326D01*
X212148Y428346D01*
X212128Y428366D01*
X212118Y428396D01*
X212108Y428416D01*
X212098Y428446D01*
Y428466D01*
X212088Y428496D01*
Y428516D01*
X212078Y428546D01*
Y428566D01*
Y428596D01*
Y434996D01*
Y435026D01*
Y435046D01*
X212088Y435076D01*
Y435096D01*
X212098Y435126D01*
Y435146D01*
X212108Y435176D01*
X212118Y435196D01*
X212128Y435226D01*
X212148Y435246D01*
X212158Y435266D01*
X212178Y435286D01*
X212188Y435306D01*
X212208Y435326D01*
X212228Y435346D01*
X212248Y435366D01*
X212268Y435386D01*
X212288Y435396D01*
X212308Y435416D01*
X212328Y435426D01*
X212348Y435446D01*
X212378Y435456D01*
X212398Y435466D01*
X212428Y435476D01*
X212448D01*
X212478Y435486D01*
X212498D01*
X212528Y435496D01*
X215428D01*
X215458Y435486D01*
D02*
G37*
G36*
X98840Y108828D02*
Y106796D01*
X91768D01*
Y113868D01*
X93800D01*
X98840Y108828D01*
D02*
G37*
G36*
X69800Y106756D02*
X62728Y106796D01*
Y108828D01*
X67768Y113868D01*
X69800D01*
Y106756D01*
D02*
G37*
G36*
X98840Y82796D02*
X93800Y77756D01*
X91768D01*
Y84826D01*
X98840Y84828D01*
Y82796D01*
D02*
G37*
G36*
X69798Y84826D02*
X69800Y77756D01*
X67768D01*
X62728Y82796D01*
Y84828D01*
X69798Y84826D01*
D02*
G37*
D19*
X452320Y586930D02*
D03*
D22*
X95284Y103812D02*
D03*
Y99812D02*
D03*
Y95812D02*
D03*
Y91812D02*
D03*
Y87812D02*
D03*
Y83812D02*
D03*
X66284Y87812D02*
D03*
Y91812D02*
D03*
Y95812D02*
D03*
Y99812D02*
D03*
Y103812D02*
D03*
Y107812D02*
D03*
D23*
X88784Y81312D02*
D03*
X84784D02*
D03*
X80784D02*
D03*
X76784D02*
D03*
X72784D02*
D03*
X68784D02*
D03*
X72784Y110312D02*
D03*
X76784D02*
D03*
X80784D02*
D03*
X84784D02*
D03*
X88784D02*
D03*
X92784D02*
D03*
D24*
X80784Y95812D02*
D03*
D40*
X328955Y162306D02*
D03*
X316205Y170942D02*
D03*
X328955D02*
D03*
X316205Y162306D02*
D03*
D51*
X396776Y409914D02*
D03*
X336776D02*
D03*
X396776Y372914D02*
D03*
X336776D02*
D03*
D56*
X294273Y330454D02*
D03*
X312787D02*
D03*
D62*
X438770Y203717D02*
D03*
D63*
Y213717D02*
D03*
D64*
X290830Y360172D02*
D03*
X132842Y108966D02*
D03*
X81274Y60240D02*
D03*
X133500Y98000D02*
D03*
X200660Y93980D02*
D03*
X65750Y65500D02*
D03*
X177750Y129000D02*
D03*
X229250Y314500D02*
D03*
X51816Y116332D02*
D03*
X132000Y480000D02*
D03*
X242013Y192264D02*
D03*
X311658Y429006D02*
D03*
X244250Y167000D02*
D03*
X158728Y466046D02*
D03*
X117750Y464500D02*
D03*
D65*
X375750Y460500D02*
D03*
Y480500D02*
D03*
X414528Y363380D02*
D03*
X352778Y554046D02*
D03*
X332528Y523546D02*
D03*
X385250Y82000D02*
D03*
X333250Y91500D02*
D03*
X182880Y467728D02*
D03*
X171728Y402046D02*
D03*
X210820Y79870D02*
D03*
X215900Y24270D02*
D03*
X143452Y63969D02*
D03*
X122500Y63500D02*
D03*
X49000Y46000D02*
D03*
X199576Y314324D02*
D03*
X414528Y383380D02*
D03*
X352778Y534046D02*
D03*
X385250Y102000D02*
D03*
X333250Y111500D02*
D03*
X199576Y334324D02*
D03*
X332528Y503546D02*
D03*
D66*
X143452Y81469D02*
D03*
X210820Y62370D02*
D03*
X122500Y81000D02*
D03*
X49000Y63500D02*
D03*
X171728Y419546D02*
D03*
X182880Y450228D02*
D03*
X215900Y41770D02*
D03*
D67*
X68250Y36500D02*
D03*
X98750Y35250D02*
D03*
Y51250D02*
D03*
X68250Y52500D02*
D03*
X261112Y423800D02*
D03*
X246478Y388296D02*
D03*
X198728Y388296D02*
D03*
X183326Y318824D02*
D03*
X319532Y397638D02*
D03*
Y413638D02*
D03*
X183326Y334824D02*
D03*
X198728Y404296D02*
D03*
X230478D02*
D03*
Y388296D02*
D03*
X276352Y439546D02*
D03*
Y423546D02*
D03*
X350520Y469520D02*
D03*
Y485520D02*
D03*
X335280Y469520D02*
D03*
Y485520D02*
D03*
X214478Y404296D02*
D03*
Y388296D02*
D03*
X261112Y439800D02*
D03*
X246478Y404296D02*
D03*
X262478Y388546D02*
D03*
Y404546D02*
D03*
D68*
X187750Y63000D02*
D03*
X163750Y79000D02*
D03*
X187750D02*
D03*
X163750Y71000D02*
D03*
X187750D02*
D03*
X163750Y63000D02*
D03*
X187750Y87000D02*
D03*
Y55000D02*
D03*
Y47000D02*
D03*
Y39000D02*
D03*
X163750D02*
D03*
Y47000D02*
D03*
Y55000D02*
D03*
Y87000D02*
D03*
D69*
X157834Y109136D02*
D03*
D70*
X372478Y511546D02*
D03*
X353078D02*
D03*
Y516546D02*
D03*
Y506546D02*
D03*
Y501546D02*
D03*
X372478D02*
D03*
Y506546D02*
D03*
Y516546D02*
D03*
D71*
X36250Y96500D02*
D03*
Y104500D02*
D03*
X47250Y96500D02*
D03*
Y104500D02*
D03*
D72*
X157534Y105636D02*
D03*
Y102136D02*
D03*
Y98636D02*
D03*
X167434Y105636D02*
D03*
Y109136D02*
D03*
Y98636D02*
D03*
Y102136D02*
D03*
D73*
X289600Y186630D02*
D03*
X279600Y255330D02*
D03*
X274600Y186630D02*
D03*
X294600D02*
D03*
X284600D02*
D03*
X299600D02*
D03*
X319600D02*
D03*
X279600D02*
D03*
X269600D02*
D03*
Y255330D02*
D03*
X264600D02*
D03*
X274600D02*
D03*
X284600D02*
D03*
X289600D02*
D03*
X294600D02*
D03*
X299600D02*
D03*
X304600D02*
D03*
X309600D02*
D03*
X314600D02*
D03*
X319600D02*
D03*
X314600Y186630D02*
D03*
X309600D02*
D03*
X304600D02*
D03*
D74*
X414274Y397735D02*
D03*
Y409985D02*
D03*
D75*
X381382Y354330D02*
D03*
X187978Y421546D02*
D03*
X108508Y573532D02*
D03*
Y560832D02*
D03*
X282576Y40132D02*
D03*
X298576D02*
D03*
X232750Y171000D02*
D03*
X216750D02*
D03*
X216282Y155956D02*
D03*
X232282D02*
D03*
X397382Y354330D02*
D03*
X295530Y308376D02*
D03*
X311530D02*
D03*
X92508Y573532D02*
D03*
Y560832D02*
D03*
X203978Y421546D02*
D03*
D76*
X362778Y509046D02*
D03*
D77*
X380500Y273500D02*
D03*
X380000Y255250D02*
D03*
X368148Y172618D02*
D03*
X369652Y154076D02*
D03*
X224650Y488950D02*
D03*
X224142Y505968D02*
D03*
X315308Y291866D02*
D03*
X313804Y273324D02*
D03*
X182364Y259948D02*
D03*
X180864Y279948D02*
D03*
X182598Y223742D02*
D03*
X181348Y241492D02*
D03*
X182473Y206117D02*
D03*
X277990Y472440D02*
D03*
X200864Y279948D02*
D03*
X362246Y291250D02*
D03*
X295308Y291866D02*
D03*
X220250Y253250D02*
D03*
X201348Y241492D02*
D03*
X349906Y136042D02*
D03*
X349652Y154076D02*
D03*
D78*
X326450Y208480D02*
D03*
Y203480D02*
D03*
Y198480D02*
D03*
X257750Y248480D02*
D03*
Y198480D02*
D03*
Y238480D02*
D03*
Y223480D02*
D03*
Y193480D02*
D03*
Y233480D02*
D03*
Y243480D02*
D03*
Y228480D02*
D03*
X326450Y218480D02*
D03*
X257750Y203480D02*
D03*
Y208480D02*
D03*
Y213480D02*
D03*
Y218480D02*
D03*
X326450Y248480D02*
D03*
Y243480D02*
D03*
Y238480D02*
D03*
Y233480D02*
D03*
Y228480D02*
D03*
Y223480D02*
D03*
Y213480D02*
D03*
Y193480D02*
D03*
D79*
X368012Y119579D02*
D03*
X353012D02*
D03*
X358012Y96329D02*
D03*
X353012D02*
D03*
X368012D02*
D03*
X363012D02*
D03*
X358012Y119579D02*
D03*
X363012D02*
D03*
D80*
X351387Y107954D02*
D03*
Y102954D02*
D03*
X369637Y107954D02*
D03*
Y102954D02*
D03*
X351387Y112954D02*
D03*
X369637D02*
D03*
D81*
X281603Y549296D02*
D03*
X110011Y544322D02*
D03*
X94009Y213360D02*
D03*
X81759D02*
D03*
X97761Y544322D02*
D03*
X269353Y549296D02*
D03*
D82*
X260490Y472440D02*
D03*
X296304Y273324D02*
D03*
X207150Y488950D02*
D03*
X382246Y291250D02*
D03*
X199864Y259948D02*
D03*
X199973Y206117D02*
D03*
X237750Y253250D02*
D03*
X200098Y223742D02*
D03*
X369906Y136042D02*
D03*
X362500Y255250D02*
D03*
X363000Y273500D02*
D03*
X350648Y172618D02*
D03*
X206642Y505968D02*
D03*
D83*
X223978Y448296D02*
D03*
D84*
X242242Y271780D02*
D03*
X226642D02*
D03*
D85*
X61280Y576140D02*
D03*
Y521140D02*
D03*
D86*
X67742Y253982D02*
D03*
Y473982D02*
D03*
D87*
X292100Y220980D02*
D03*
D88*
X308864Y80772D02*
D03*
X296164Y121412D02*
D03*
X258064Y80772D02*
D03*
X308864Y121412D02*
D03*
X270764D02*
D03*
X283464D02*
D03*
X270764Y80772D02*
D03*
X296164D02*
D03*
X258064Y121412D02*
D03*
X283464Y80772D02*
D03*
D89*
X61426Y206406D02*
D03*
Y186406D02*
D03*
Y210406D02*
D03*
Y182406D02*
D03*
Y218406D02*
D03*
Y214406D02*
D03*
Y190406D02*
D03*
Y202406D02*
D03*
Y194406D02*
D03*
Y198406D02*
D03*
D90*
X121270Y526034D02*
D03*
X88570D02*
D03*
X121150Y500854D02*
D03*
X88450D02*
D03*
D91*
X466376Y213797D02*
D03*
X422100D02*
D03*
D92*
X456376D02*
D03*
X412100D02*
D03*
D93*
X267970Y298504D02*
D03*
Y273504D02*
D03*
D94*
X264600Y186630D02*
D03*
D95*
X275160Y500380D02*
D03*
X253160D02*
D03*
D96*
X39426Y173606D02*
D03*
Y227206D02*
D03*
D97*
X61280Y563840D02*
D03*
Y533440D02*
D03*
D98*
Y553640D02*
D03*
Y543640D02*
D03*
D99*
X409250Y28500D02*
D03*
D100*
X209228Y562546D02*
D03*
D101*
X234228D02*
D03*
D102*
X454500Y570000D02*
D03*
M02*
